<?xml version="1.0" encoding="utf-8"?>
<svg xmlns="http://www.w3.org/2000/svg" fill="none" height="100%" overflow="visible" preserveAspectRatio="none" style="display: block;" viewBox="0 0 4.96614 8.04837" width="100%">
<path d="M0.153794 7.24097L0.71128 6.6194C1.01886 7.00387 1.49305 7.22814 1.98646 7.22814C3.07581 7.22814 3.99854 6.37589 4.0434 3.89603C3.54358 4.5176 2.85793 4.89566 2.22355 4.89566C0.871478 4.89566 0 4.08185 0 2.48628C0 1.00605 1.0445 0 2.28763 0C3.82554 0 4.96614 1.24315 4.96614 3.73583C4.96614 6.85008 3.56281 8.04837 2.01209 8.04837C1.18547 8.04837 0.57672 7.70233 0.147389 7.23455L0.153794 7.24097ZM2.39016 4.15876C2.88998 4.15876 3.52436 3.84477 4.02418 3.10145C3.89602 1.59559 3.28086 0.794596 2.29404 0.794596C1.53149 0.794596 0.941966 1.46742 0.941966 2.49269C0.941966 3.51796 1.42257 4.15876 2.39016 4.15876Z" fill="var(--fill-0, white)" id="Vector"/>
</svg>