<?xml version="1.0" encoding="utf-8"?>
<svg xmlns="http://www.w3.org/2000/svg" fill="none" height="100%" overflow="visible" preserveAspectRatio="none" style="display: block;" viewBox="0 0 5.11352 8.04833" width="100%">
<path d="M0.0064044 6.96539L0.506222 6.31181C0.974 6.79881 1.58275 7.22814 2.48627 7.22814C3.38978 7.22814 4.10747 6.67066 4.10747 5.79918C4.10747 4.87003 3.46669 4.26127 1.6212 4.26127V3.49872C3.26804 3.49872 3.83194 2.85793 3.83194 2.03772C3.83194 1.28799 3.30649 0.807385 2.47986 0.807385C1.83907 0.807385 1.26876 1.13419 0.826618 1.58915L0.294759 0.967583C0.890696 0.403686 1.60197 0 2.52471 0C3.86397 0 4.84439 0.704863 4.84439 1.97363C4.84439 2.90919 4.26767 3.51153 3.42823 3.8127V3.85756C4.36379 4.08825 5.11352 4.77391 5.11352 5.83763C5.11352 7.22174 3.97291 8.04833 2.55676 8.04833C1.30721 8.04833 0.519042 7.52291 0 6.95902L0.0064044 6.96539Z" fill="var(--fill-0, white)" id="Vector"/>
</svg>