<?xml version="1.0" encoding="utf-8"?>
<svg xmlns="http://www.w3.org/2000/svg" fill="none" height="100%" overflow="visible" preserveAspectRatio="none" style="display: block;" viewBox="0 0 4.96614 8.05476" width="100%">
<path d="M0 4.32535C0 1.19828 1.40333 0 2.96046 0C3.78708 0 4.38943 0.346027 4.82517 0.820213L4.26767 1.44178C3.95368 1.06372 3.47309 0.833022 2.9925 0.833022C1.89034 0.833022 0.980407 1.67247 0.935551 4.14593C1.43537 3.54358 2.12102 3.17832 2.75541 3.17832C4.09467 3.17832 4.96614 3.98572 4.96614 5.56207C4.96614 7.05512 3.92164 8.05476 2.67851 8.05476C1.14061 8.05476 0 6.81161 0 4.33174V4.32535ZM0.954774 4.94692C1.08293 6.45919 1.68528 7.27939 2.66569 7.27939C3.44105 7.27939 4.02418 6.59374 4.02418 5.55566C4.02418 4.51758 3.54358 3.90884 2.5888 3.90884C2.08898 3.90884 1.48022 4.17797 0.954774 4.94692Z" fill="var(--fill-0, white)" id="Vector"/>
</svg>