<?xml version="1.0" encoding="utf-8"?>
<svg xmlns="http://www.w3.org/2000/svg" fill="none" height="100%" overflow="visible" preserveAspectRatio="none" style="display: block;" viewBox="0 0 5.11993 8.04835" width="100%">
<path d="M0.0128161 6.96541L0.512633 6.31181C0.980412 6.79881 1.58916 7.22814 2.49268 7.22814C3.3962 7.22814 4.11389 6.67065 4.11389 5.79917C4.11389 4.87643 3.47309 4.26128 1.62761 4.26128V3.49873C3.27445 3.49873 3.83835 2.85794 3.83835 2.03772C3.83835 1.288 3.3129 0.8074 2.48628 0.8074C1.84548 0.8074 1.27518 1.1342 0.83303 1.58916L0.301171 0.967598C0.897108 0.403701 1.60839 0 2.53113 0C3.87039 0 4.8508 0.711281 4.8508 1.97364C4.8508 2.9092 4.27408 3.51154 3.43465 3.81271V3.85757C4.3702 4.08826 5.11993 4.7739 5.11993 5.83762C5.11993 7.22173 3.97291 8.04835 2.55676 8.04835C1.30722 8.04835 0.519042 7.5229 0 6.95901L0.0128161 6.96541Z" fill="var(--fill-0, white)" id="Vector"/>
</svg>