<?xml version="1.0" encoding="utf-8"?>
<svg xmlns="http://www.w3.org/2000/svg" fill="none" height="100%" overflow="visible" preserveAspectRatio="none" style="display: block;" viewBox="0 0 665 373.728" width="100%">
<g filter="url(#filter0_d_0_2597)" id="Group 2">
<g clip-path="url(#clip0_0_2597)" id="Frame">
<g id="Layer 2">
<path d="M307.192 0H8.84857C3.96164 0 0 3.96164 0 8.84857V356.88C0 361.767 3.96164 365.728 8.84857 365.728H307.192C312.079 365.728 316.04 361.767 316.04 356.88V8.84857C316.04 3.96164 312.079 0 307.192 0Z" fill="var(--fill-0, #828E7B)" id="Vector"/>
</g>
<g id="Layer 1">
<g id="Group" opacity="0.8">
<path d="M286.69 74.1667H212.517V74.778H286.69V74.1667Z" fill="var(--fill-0, white)" id="Vector_2"/>
</g>
<g id="Group_2" opacity="0.8">
<path d="M286.69 121.334H29.3503V121.945H286.69V121.334Z" fill="var(--fill-0, white)" id="Vector_3"/>
</g>
<g id="Group_3" opacity="0.8">
<path d="M286.69 168.501H29.3503V169.112H286.69V168.501Z" fill="var(--fill-0, white)" id="Vector_4"/>
</g>
<g id="Group_4" opacity="0.8">
<path d="M286.69 215.668H29.3503V216.28H286.69V215.668Z" fill="var(--fill-0, white)" id="Vector_5"/>
</g>
<g id="Group_5" opacity="0.8">
<path d="M286.69 262.835H29.3503V263.447H286.69V262.835Z" fill="var(--fill-0, white)" id="Vector_6"/>
</g>
<g id="Group_6" opacity="0.8">
<path d="M64.1774 310.003H29.3503V310.614H64.1774V310.003Z" fill="var(--fill-0, white)" id="Vector_7"/>
</g>
</g>
<g id="Layer 5">
<path d="M279.253 122.229C284.474 122.229 288.707 126.461 288.707 131.682C288.707 136.904 284.474 141.136 279.253 141.136H185.473C180.252 141.136 176.02 136.904 176.02 131.682C176.02 126.461 180.252 122.229 185.473 122.229H279.253Z" fill="var(--fill-0, #E35FFF)" id="Vector (Stroke)" opacity="0.5"/>
<g id="Group_7">
<path d="M186.765 151.724V152.436H179.921V151.724H182.902V150.438H180.753V148.006H185.102V146.991H180.734V146.298H185.952V148.693H181.591V149.745H186.116V150.438H183.759V151.724H186.765Z" fill="var(--fill-0, #AA35A5)" id="Vector_8"/>
<path d="M191.562 146.474V151.466H188.013V146.474H191.562ZM188.864 147.161V150.779H190.723V147.161H188.864ZM193.83 145.756V153.337H192.961V145.756H193.83Z" fill="var(--fill-0, #AA35A5)" id="Vector_9"/>
<path d="M202.15 151.686V152.392H195.305V151.686H198.286V150.237C196.906 150.111 195.942 149.348 195.942 148.226C195.942 146.997 197.114 146.203 198.721 146.203C200.328 146.203 201.5 146.997 201.5 148.226C201.5 149.348 200.53 150.117 199.15 150.243V151.68H202.156L202.15 151.686ZM198.721 149.569C199.843 149.569 200.656 149.052 200.656 148.233C200.656 147.413 199.843 146.896 198.721 146.896C197.599 146.896 196.78 147.413 196.78 148.233C196.78 149.052 197.593 149.569 198.721 149.569Z" fill="var(--fill-0, #AA35A5)" id="Vector_10"/>
<path d="M205.679 150.987C206.322 150.961 206.965 150.911 207.57 150.829L207.645 151.466C206.063 151.743 204.33 151.749 203.038 151.749L202.918 151.037C203.486 151.037 204.141 151.037 204.816 151.018V149.833C203.876 149.663 203.215 148.983 203.215 148.05C203.215 146.978 204.078 146.235 205.238 146.235C206.397 146.235 207.255 146.978 207.255 148.05C207.255 148.976 206.612 149.657 205.673 149.821V150.987H205.679ZM205.244 149.121C205.931 149.121 206.423 148.712 206.423 148.05C206.423 147.388 205.931 146.972 205.244 146.972C204.557 146.972 204.053 147.388 204.053 148.05C204.053 148.712 204.557 149.121 205.244 149.121ZM209.977 149.531H208.874V153.312H208.011V145.768H208.874V148.812H209.977V149.531Z" fill="var(--fill-0, #AA35A5)" id="Vector_11"/>
<path d="M216.878 149.531V150.167H219.009V151.989H214.71V152.594H219.229V153.256H213.859V151.384H218.17V150.804H213.847V150.167H216.021V149.531H213.034V148.844H219.878V149.531H216.885H216.878ZM213.374 147.899C214.761 147.791 215.744 147.281 215.92 146.67H213.67V145.989H219.261V146.67H216.992C217.168 147.281 218.145 147.791 219.538 147.899L219.273 148.554C217.962 148.447 216.916 147.974 216.462 147.281C216.009 147.974 214.981 148.441 213.658 148.554L213.38 147.899H213.374Z" fill="var(--fill-0, #AA35A5)" id="Vector_12"/>
<path d="M222.027 150.829C223.225 150.823 224.271 150.76 225.468 150.571L225.563 151.277C224.265 151.503 223.137 151.541 221.807 151.541H221.164V148.548H223.798V147.142H221.145V146.436H224.668V149.241H222.034V150.829H222.027ZM226.962 145.749V153.337H226.092V145.749H226.962Z" fill="var(--fill-0, #AA35A5)" id="Vector_13"/>
<path d="M231.897 148.453C231.752 149.329 231.078 149.915 230.189 149.915C229.193 149.915 228.475 149.171 228.475 148.1C228.475 147.029 229.193 146.279 230.189 146.279C231.078 146.279 231.746 146.865 231.884 147.741H232.546V145.926H233.346V150.136H232.546V148.453H231.891H231.897ZM230.189 149.197C230.75 149.197 231.141 148.762 231.141 148.1C231.141 147.438 230.75 146.997 230.189 146.997C229.628 146.997 229.244 147.432 229.244 148.1C229.244 148.768 229.647 149.197 230.189 149.197ZM232.704 150.69C232.704 151.591 233.731 152.411 235.187 152.625L234.872 153.287C233.693 153.11 232.748 152.556 232.275 151.787C231.809 152.556 230.851 153.11 229.672 153.287L229.344 152.625C230.807 152.417 231.84 151.598 231.84 150.69V150.463H232.704V150.69ZM234.828 150.841H234.008V145.762H234.828V150.841Z" fill="var(--fill-0, #AA35A5)" id="Vector_14"/>
<path d="M236.138 153.804C236.718 153.571 237.052 153.142 237.052 152.657C237.021 152.663 236.996 152.663 236.958 152.663C236.617 152.663 236.315 152.449 236.315 152.045C236.315 151.667 236.617 151.428 236.983 151.428C237.449 151.428 237.727 151.819 237.727 152.468C237.727 153.344 237.216 154.024 236.353 154.352L236.132 153.81L236.138 153.804Z" fill="var(--fill-0, #AA35A5)" id="Vector_15"/>
<path d="M244.13 147.69H240.475V146.997H241.874V145.97H242.724V146.997H244.13V147.69ZM243.89 149.871C243.89 150.917 243.222 151.636 242.29 151.636C241.357 151.636 240.701 150.917 240.701 149.871C240.701 148.825 241.363 148.113 242.29 148.113C243.216 148.113 243.89 148.831 243.89 149.871ZM243.128 149.871C243.128 149.253 242.787 148.831 242.29 148.831C241.792 148.831 241.451 149.247 241.451 149.871C241.451 150.495 241.792 150.917 242.29 150.917C242.787 150.917 243.128 150.507 243.128 149.871ZM244.678 145.913H245.491V152.959H244.678V149.335H243.935V148.623H244.678V145.913ZM246.941 145.762V153.325H246.121V145.762H246.941Z" fill="var(--fill-0, #AA35A5)" id="Vector_16"/>
<path d="M251.724 150.703C252.077 150.672 252.43 150.634 252.764 150.596L252.815 151.232C251.252 151.491 249.5 151.516 248.189 151.516L248.094 150.804H249.021V147.224H248.283V146.531H252.455V147.224H251.718V150.703H251.724ZM249.859 150.791C250.193 150.785 250.546 150.766 250.886 150.747V147.218H249.859V150.791ZM255.216 149.43H254.037V153.331H253.174V145.768H254.037V148.724H255.216V149.436V149.43Z" fill="var(--fill-0, #AA35A5)" id="Vector_17"/>
<path d="M260.025 148.976C260.025 150.615 259.205 151.648 258.077 151.648C256.949 151.648 256.136 150.621 256.136 148.976C256.136 147.331 256.955 146.316 258.077 146.316C259.199 146.316 260.025 147.356 260.025 148.976ZM256.962 148.976C256.962 150.167 257.422 150.873 258.077 150.873C258.733 150.873 259.199 150.161 259.199 148.976C259.199 147.791 258.739 147.092 258.077 147.092C257.415 147.092 256.962 147.804 256.962 148.976ZM262.098 145.756V153.337H261.228V145.756H262.098Z" fill="var(--fill-0, #AA35A5)" id="Vector_18"/>
<path d="M270.417 151.636V152.348H263.573V151.636H270.417ZM269.749 150.167C268.52 149.915 267.455 149.127 266.964 148.094C266.472 149.134 265.407 149.915 264.178 150.167L263.812 149.455C265.3 149.178 266.516 148.018 266.516 146.821V146.254H267.43V146.821C267.43 148.025 268.64 149.191 270.134 149.455L269.755 150.167H269.749Z" fill="var(--fill-0, #AA35A5)" id="Vector_19"/>
<path d="M278.112 151.724V152.436H271.268V151.724H274.249V150.3H272.113V146.336H277.281V147.041H272.989V147.955H277.11V148.636H272.989V149.625H277.35V150.312H275.119V151.737H278.112V151.724Z" fill="var(--fill-0, #AA35A5)" id="Vector_20"/>
<path d="M285.808 151.636V152.348H278.963V151.636H285.808ZM285.14 150.167C283.911 149.915 282.846 149.127 282.354 148.094C281.862 149.134 280.797 149.915 279.568 150.167L279.203 149.455C280.69 149.178 281.906 148.018 281.906 146.821V146.254H282.82V146.821C282.82 148.025 284.03 149.191 285.524 149.455L285.146 150.167H285.14Z" fill="var(--fill-0, #AA35A5)" id="Vector_21"/>
</g>
</g>
<g id="Layer 4">
<g id="Group_8">
<path d="M147.167 29.2053L147.999 28.0709C148.636 28.7074 149.436 29.2684 150.602 29.2684C151.856 29.2684 152.808 28.4238 152.808 27.0436C152.808 25.6634 151.964 24.8693 150.69 24.8693C149.978 24.8693 149.556 25.0836 148.907 25.5058L148.062 24.9638L148.396 19.6761H154.037V21.1446H149.909L149.651 23.9996C150.136 23.7601 150.571 23.6214 151.176 23.6214C153.035 23.6214 154.56 24.6676 154.56 26.9932C154.56 29.3188 152.764 30.699 150.81 30.699C149.058 30.699 147.955 29.9868 147.167 29.2179V29.2053Z" fill="var(--fill-0, white)" id="Vector_22"/>
<path d="M159.64 24.0626C158.461 24.1067 157.327 24.1067 156.3 24.1067L156.117 22.9849C158.745 22.9849 162.041 22.9723 164.928 22.6697L165.035 23.6529C163.781 23.8357 162.482 23.9428 161.209 23.9996V26.01H159.64V24.0626ZM157.1 20.2874C157.1 19.0333 158.461 18.2455 160.503 18.2455C162.545 18.2455 163.888 19.0333 163.888 20.2874C163.888 21.5416 162.526 22.3294 160.503 22.3294C158.48 22.3294 157.1 21.5416 157.1 20.2874ZM167.846 30.428V31.5309H158.153V28.4301H165.911V27.5226H158.127V26.4512H167.455V29.4322H159.697V30.428H167.846ZM158.562 20.2874C158.562 20.924 159.318 21.2832 160.497 21.2832C161.676 21.2832 162.419 20.9177 162.419 20.2874C162.419 19.6572 161.663 19.2917 160.497 19.2917C159.331 19.2917 158.562 19.6572 158.562 20.2874ZM165.898 24.4092V17.9997H167.455V25.9659H165.898V25.3735H163.327V24.4029H165.898V24.4092Z" fill="var(--fill-0, white)" id="Vector_23"/>
</g>
<g id="Group_9" opacity="0.2">
<path d="M40.1652 86.6518C42.4656 84.3577 43.7639 82.9901 43.7639 81.7359C43.7639 80.8661 43.2912 80.2485 42.3206 80.2485C41.6778 80.2485 41.1232 80.6582 40.6946 81.1624L40.1274 80.6141C40.7702 79.9208 41.4446 79.4544 42.4404 79.4544C43.8458 79.4544 44.7219 80.343 44.7219 81.6918C44.7219 83.1287 43.4173 84.553 41.6022 86.4564C42.0118 86.4249 42.4782 86.3807 42.8879 86.3807H45.1063V87.2253H40.1652V86.6454V86.6518Z" fill="var(--fill-0, white)" id="Vector_24"/>
<path d="M46.2155 83.7085C46.2155 80.633 47.5957 79.4544 49.1272 79.4544C49.9402 79.4544 50.5327 79.7947 50.9612 80.2611L50.4129 80.8725C50.1041 80.5006 49.6314 80.2737 49.1587 80.2737C48.0747 80.2737 47.1798 81.0993 47.1357 83.5321C47.6273 82.9396 48.3016 82.5804 48.9256 82.5804C50.2428 82.5804 51.0999 83.3745 51.0999 84.9249C51.0999 86.3934 50.0726 87.3765 48.8499 87.3765C47.3374 87.3765 46.2155 86.1539 46.2155 83.7148V83.7085ZM47.1609 84.3199C47.2869 85.8072 47.8794 86.6139 48.8436 86.6139C49.6062 86.6139 50.1797 85.9396 50.1797 84.9186C50.1797 83.8976 49.7071 83.2989 48.768 83.2989C48.2764 83.2989 47.6777 83.5636 47.1609 84.3199Z" fill="var(--fill-0, white)" id="Vector_25"/>
</g>
<g id="Group_10" opacity="0.2">
<path d="M77.2486 86.6518C79.5489 84.3577 80.8472 82.9901 80.8472 81.7359C80.8472 80.8661 80.3746 80.2485 79.404 80.2485C78.7611 80.2485 78.2065 80.6582 77.778 81.1624L77.2107 80.6141C77.8536 79.9208 78.5279 79.4544 79.5237 79.4544C80.9292 79.4544 81.8052 80.343 81.8052 81.6918C81.8052 83.1287 80.5006 84.553 78.6855 86.4564C79.0952 86.4249 79.5615 86.3807 79.9712 86.3807H82.1896V87.2253H77.2486V86.6454V86.6518Z" fill="var(--fill-0, white)" id="Vector_26"/>
<path d="M87.0488 80.425H83.2484V79.5868H88.1643V80.1855C86.3618 82.4985 85.9774 84.2442 85.8639 87.2253H84.8493C84.9753 84.3451 85.5551 82.5237 87.0551 80.425H87.0488Z" fill="var(--fill-0, white)" id="Vector_27"/>
</g>
<g id="Group_11" opacity="0.2">
<path d="M114.332 86.6518C116.632 84.3577 117.931 82.9901 117.931 81.7359C117.931 80.8661 117.458 80.2485 116.487 80.2485C115.844 80.2485 115.29 80.6582 114.861 81.1624L114.294 80.6141C114.937 79.9208 115.611 79.4544 116.607 79.4544C118.012 79.4544 118.889 80.343 118.889 81.6918C118.889 83.1287 117.584 84.553 115.769 86.4564C116.178 86.4249 116.645 86.3807 117.055 86.3807H119.273V87.2253H114.332V86.6454V86.6518Z" fill="var(--fill-0, white)" id="Vector_28"/>
<path d="M120.288 85.2778C120.288 84.282 121.019 83.5951 121.731 83.2106V83.1665C121.164 82.7821 120.672 82.2149 120.672 81.4019C120.672 80.2359 121.605 79.4544 122.828 79.4544C124.164 79.4544 124.983 80.2926 124.983 81.4775C124.983 82.2842 124.397 82.9648 123.93 83.3178V83.3682C124.605 83.7779 125.26 84.3136 125.26 85.3282C125.26 86.4753 124.277 87.3639 122.796 87.3639C121.315 87.3639 120.288 86.4879 120.288 85.2715V85.2778ZM124.328 85.3156C124.328 84.3199 123.363 83.9669 122.248 83.5258C121.624 83.9228 121.176 84.49 121.176 85.1959C121.176 86.0341 121.87 86.6391 122.815 86.6391C123.76 86.6391 124.328 86.0908 124.328 85.3093V85.3156ZM124.145 81.5342C124.145 80.7842 123.666 80.1855 122.815 80.1855C122.084 80.1855 121.561 80.6645 121.561 81.4082C121.561 82.3283 122.405 82.7128 123.325 83.0783C123.849 82.6056 124.138 82.1014 124.138 81.5342H124.145Z" fill="var(--fill-0, white)" id="Vector_29"/>
</g>
<g id="Group_12" opacity="0.2">
<path d="M151.415 86.6519C153.716 84.3578 155.014 82.9902 155.014 81.736C155.014 80.8662 154.541 80.2486 153.571 80.2486C152.928 80.2486 152.373 80.6583 151.945 81.1625L151.377 80.6142C152.02 79.9209 152.695 79.4545 153.69 79.4545C155.096 79.4545 155.972 80.3431 155.972 81.6919C155.972 83.1288 154.667 84.5531 152.852 86.4565C153.262 86.425 153.728 86.3808 154.138 86.3808H156.356V87.2254H151.415V86.6455V86.6519Z" fill="var(--fill-0, white)" id="Vector_30"/>
<path d="M157.516 86.5635L158.064 85.9522C158.367 86.324 158.833 86.5509 159.318 86.5509C160.39 86.5509 161.297 85.7127 161.342 83.2737C160.85 83.885 160.176 84.2568 159.552 84.2568C158.222 84.2568 157.365 83.4501 157.365 81.8871C157.365 80.4313 158.392 79.4418 159.615 79.4418C161.127 79.4418 162.249 80.6645 162.249 83.1161C162.249 86.1791 160.869 87.3576 159.344 87.3576C158.531 87.3576 157.932 87.0173 157.51 86.5509L157.516 86.5635ZM159.709 83.5321C160.201 83.5321 160.825 83.2232 161.316 82.4922C161.19 81.0111 160.585 80.2233 159.615 80.2233C158.865 80.2233 158.285 80.8851 158.285 81.8934C158.285 82.9018 158.758 83.5321 159.709 83.5321Z" fill="var(--fill-0, white)" id="Vector_31"/>
</g>
<g id="Group_13" opacity="0.2">
<path d="M188.341 86.2988L188.833 85.656C189.293 86.135 189.891 86.5572 190.78 86.5572C191.669 86.5572 192.375 86.0089 192.375 85.1518C192.375 84.2442 191.744 83.6392 189.929 83.6392V82.8892C191.549 82.8892 192.104 82.259 192.104 81.4523C192.104 80.7149 191.587 80.2422 190.774 80.2422C190.144 80.2422 189.583 80.5636 189.148 81.0111L188.625 80.3998C189.211 79.8452 189.91 79.4481 190.818 79.4481C192.135 79.4481 193.099 80.1477 193.099 81.3892C193.099 82.3094 192.532 82.9018 191.707 83.198V83.2422C192.627 83.469 193.364 84.1434 193.364 85.1896C193.364 86.5509 192.242 87.3639 190.849 87.3639C189.62 87.3639 188.845 86.8471 188.335 86.2925L188.341 86.2988Z" fill="var(--fill-0, white)" id="Vector_32"/>
<path d="M194.505 83.387C194.505 80.8282 195.438 79.4543 196.956 79.4543C198.475 79.4543 199.402 80.8345 199.402 83.387C199.402 85.9395 198.482 87.3701 196.956 87.3701C195.431 87.3701 194.505 85.9458 194.505 83.387ZM198.444 83.387C198.444 81.1496 197.845 80.2358 196.956 80.2358C196.068 80.2358 195.456 81.1433 195.456 83.387C195.456 85.6306 196.055 86.5886 196.956 86.5886C197.858 86.5886 198.444 85.6243 198.444 83.387Z" fill="var(--fill-0, white)" id="Vector_33"/>
</g>
<path d="M229.029 86.4186H230.775V80.7842H229.382V80.154C230.076 80.0342 230.58 79.8515 231.008 79.5994H231.758V86.4249H233.334V87.2379H229.029V86.4249V86.4186Z" fill="var(--fill-0, white)" id="Vector_34"/>
<path d="M265.646 86.6518C267.947 84.3577 269.245 82.9901 269.245 81.7359C269.245 80.8661 268.772 80.2485 267.802 80.2485C267.159 80.2485 266.604 80.6582 266.176 81.1624L265.608 80.6141C266.251 79.9208 266.926 79.4544 267.921 79.4544C269.327 79.4544 270.203 80.343 270.203 81.6918C270.203 83.1287 268.898 84.553 267.083 86.4564C267.493 86.4249 267.959 86.3807 268.369 86.3807H270.587V87.2253H265.646V86.6454V86.6518Z" fill="var(--fill-0, white)" id="Vector_35"/>
<g id="Group_14" opacity="0.6">
<path d="M44.3626 59.0157C43.2471 59.0157 42.4278 58.3287 42.4278 57.3519C42.4278 56.375 43.2471 55.6817 44.3626 55.6817C45.4781 55.6817 46.3101 56.3813 46.3101 57.3519C46.3101 58.3224 45.4844 59.0157 44.3626 59.0157ZM44.3626 58.3288C45.0118 58.3288 45.4907 57.9443 45.4907 57.3519C45.4907 56.7595 45.0055 56.375 44.3626 56.375C43.7198 56.375 43.2471 56.7595 43.2471 57.3519C43.2471 57.9443 43.7198 58.3288 44.3626 58.3288ZM48.6041 62.085V62.7467H43.5496V60.8056H47.5453V60.188H43.5307V59.5262H48.3835V61.4295H44.3752V62.085H48.6041ZM48.3835 59.1922H47.539V55.4296H48.3835V59.1922Z" fill="var(--fill-0, white)" id="Vector_36"/>
</g>
<path d="M81.2632 58.7258C80.6266 58.751 80.009 58.751 79.4544 58.751L79.3536 58.146C80.7779 58.146 82.5678 58.1397 84.1308 57.9758L84.1875 58.5052C83.5068 58.6061 82.801 58.6628 82.114 58.6943V59.7846H81.2632V58.7258ZM79.8893 56.6775C79.8893 55.9969 80.6266 55.5746 81.7359 55.5746C82.8451 55.5746 83.5699 56.0032 83.5699 56.6775C83.5699 57.3519 82.8325 57.7804 81.7359 57.7804C80.6393 57.7804 79.8893 57.3519 79.8893 56.6775ZM85.7127 62.1795V62.7782H80.4628V61.1018H84.6665V60.6102H80.4439V60.0304H85.4984V61.6438H81.2947V62.1858H85.7127V62.1795ZM80.6834 56.6775C80.6834 57.0242 81.093 57.2195 81.7296 57.2195C82.3661 57.2195 82.7695 57.0242 82.7695 56.6775C82.7695 56.3309 82.3598 56.1355 81.7296 56.1355C81.0993 56.1355 80.6834 56.3309 80.6834 56.6775ZM84.6539 58.9149V55.4422H85.4984V59.7594H84.6539V59.438H83.261V58.9149H84.6539Z" fill="var(--fill-0, white)" id="Vector_37"/>
<path d="M119.128 60.7615C119.758 60.73 120.389 60.6859 120.981 60.5976L121.044 61.2216C119.462 61.4989 117.748 61.5178 116.481 61.5178L116.368 60.8245C116.935 60.8245 117.597 60.8245 118.284 60.7993V60.0808C117.464 59.9422 116.928 59.4443 116.928 58.7384C116.928 57.9002 117.647 57.3519 118.706 57.3519C119.765 57.3519 120.477 57.9002 120.477 58.7384C120.477 59.4443 119.941 59.9485 119.122 60.0808V60.7678L119.128 60.7615ZM120.899 56.9737H116.5V56.2931H118.284V55.4675H119.128V56.2931H120.899V56.9737ZM118.712 59.4569C119.292 59.4569 119.689 59.1796 119.689 58.7258C119.689 58.272 119.298 57.9884 118.712 57.9884C118.126 57.9884 117.729 58.2657 117.729 58.7258C117.729 59.1859 118.132 59.4569 118.712 59.4569ZM123.288 59.23H122.241V62.8413H121.397V55.4359H122.241V58.5304H123.288V59.23Z" fill="var(--fill-0, white)" id="Vector_38"/>
<path d="M160.226 60.2321H157.283V62.8476H156.438V60.2321H153.539V59.5451H160.226V60.2321ZM159.615 58.8518C158.386 58.6565 157.377 58.0325 156.892 57.1817C156.419 58.0451 155.392 58.6565 154.163 58.8518L153.835 58.1712C155.342 57.9569 156.438 57.0494 156.438 56.0725V55.6817H157.333V56.0725C157.333 57.0305 158.449 57.9569 159.936 58.1712L159.608 58.8518H159.615Z" fill="var(--fill-0, white)" id="Vector_39"/>
<path d="M197.322 59.1292V59.8098H190.622V59.1292H193.541V58.3035H191.473V55.7385H196.465V58.3035H194.391V59.1292H197.322ZM191.372 60.4653H196.49V62.8413H195.646V61.1459H191.366V60.4653H191.372ZM192.299 57.6292H195.633V56.4065H192.299V57.6292Z" fill="var(--fill-0, white)" id="Vector_40"/>
<path d="M234.412 58.4989V59.1859H227.712V58.4989H232.546C232.735 57.6733 232.748 57.0494 232.748 56.4884H228.55V55.8015H233.573V56.375C233.573 56.9548 233.573 57.6103 233.384 58.4989H234.405H234.412ZM228.525 60.0808H233.58V62.753H228.525V60.0808ZM229.351 62.0787H232.754V60.7489H229.351V62.0787Z" fill="var(--fill-0, white)" id="Vector_41"/>
<g id="Group_15" opacity="0.6">
<path d="M271.501 61.2783V61.9778H264.802V61.2783H267.72V59.8854H265.627V56.0032H270.688V56.6901H266.485V57.5851H270.524V58.2468H266.485V59.2111H270.751V59.8854H268.564V61.2783H271.495H271.501Z" fill="var(--fill-0, white)" id="Vector_42"/>
</g>
<path d="M42.9761 133.731L43.4677 133.088C43.9278 133.567 44.5265 133.989 45.4151 133.989C46.3038 133.989 47.0096 133.441 47.0096 132.584C47.0096 131.67 46.3794 131.071 44.5643 131.071V130.321C46.184 130.321 46.7386 129.691 46.7386 128.884C46.7386 128.147 46.2218 127.674 45.4088 127.674C44.7786 127.674 44.2177 127.996 43.7828 128.443L43.2597 127.832C43.8458 127.277 44.5454 126.88 45.4529 126.88C46.7701 126.88 47.7344 127.573 47.7344 128.821C47.7344 129.741 47.1672 130.334 46.3416 130.63V130.674C47.2617 130.901 47.9991 131.575 47.9991 132.621C47.9991 133.983 46.8773 134.796 45.4844 134.796C44.2555 134.796 43.4803 134.279 42.9698 133.724L42.9761 133.731Z" fill="var(--fill-0, white)" id="Vector_43"/>
<path d="M83.3934 132.552H79.9649V131.909L83.2295 127.025H84.3135V131.771H85.3534V132.552H84.3135V134.663H83.3934V132.552ZM83.3934 131.771V129.533C83.3934 129.136 83.4249 128.481 83.4438 128.077H83.3997C83.2043 128.443 82.99 128.771 82.7695 129.149L80.9796 131.771H83.3871H83.3934Z" fill="var(--fill-0, white)" id="Vector_44"/>
<path d="M117.136 133.762L117.615 133.119C118.063 133.567 118.63 133.989 119.544 133.989C120.458 133.989 121.214 133.315 121.214 132.256C121.214 131.197 120.571 130.561 119.588 130.561C119.065 130.561 118.731 130.731 118.284 131.033L117.76 130.699L118.006 127.025H121.832V127.863H118.863L118.668 130.145C119.021 129.949 119.361 129.823 119.834 129.823C121.138 129.823 122.204 130.573 122.204 132.224C122.204 133.876 120.962 134.808 119.632 134.808C118.41 134.808 117.66 134.292 117.136 133.769V133.762Z" fill="var(--fill-0, white)" id="Vector_45"/>
<path d="M154.497 131.134C154.497 128.059 155.877 126.88 157.409 126.88C158.222 126.88 158.814 127.22 159.243 127.68L158.695 128.292C158.386 127.92 157.913 127.693 157.44 127.693C156.356 127.693 155.461 128.519 155.417 130.951C155.909 130.365 156.583 130 157.207 130C158.524 130 159.381 130.794 159.381 132.344C159.381 133.813 158.354 134.796 157.132 134.796C155.619 134.796 154.497 133.573 154.497 131.134ZM155.442 131.745C155.569 133.233 156.161 134.04 157.125 134.04C157.888 134.04 158.461 133.365 158.461 132.344C158.461 131.323 157.989 130.724 157.05 130.724C156.558 130.724 155.959 130.989 155.442 131.739V131.745Z" fill="var(--fill-0, white)" id="Vector_46"/>
<path d="M195.33 127.857H191.53V127.019H196.446V127.617C194.643 129.93 194.259 131.676 194.146 134.657H193.131C193.257 131.777 193.837 129.956 195.337 127.857H195.33Z" fill="var(--fill-0, white)" id="Vector_47"/>
<path d="M228.569 132.71C228.569 131.714 229.3 131.027 230.013 130.643V130.598C229.445 130.214 228.954 129.647 228.954 128.834C228.954 127.668 229.886 126.886 231.109 126.886C232.445 126.886 233.265 127.725 233.265 128.909C233.265 129.71 232.678 130.397 232.212 130.75V130.806C232.886 131.216 233.542 131.752 233.542 132.766C233.542 133.913 232.559 134.802 231.078 134.802C229.597 134.802 228.569 133.926 228.569 132.716V132.71ZM232.609 132.741C232.609 131.745 231.645 131.393 230.529 130.951C229.905 131.348 229.458 131.916 229.458 132.621C229.458 133.46 230.151 134.065 231.097 134.065C232.042 134.065 232.609 133.516 232.609 132.735V132.741ZM232.426 128.96C232.426 128.21 231.941 127.611 231.097 127.611C230.365 127.611 229.842 128.096 229.842 128.834C229.842 129.754 230.687 130.138 231.607 130.504C232.13 130.031 232.42 129.527 232.42 128.96H232.426Z" fill="var(--fill-0, white)" id="Vector_48"/>
<path d="M265.798 133.995L266.346 133.384C266.648 133.762 267.115 133.983 267.6 133.983C268.671 133.983 269.579 133.145 269.623 130.706C269.132 131.317 268.457 131.689 267.833 131.689C266.503 131.689 265.646 130.888 265.646 129.319C265.646 127.863 266.674 126.874 267.896 126.874C269.409 126.874 270.531 128.096 270.531 130.548C270.531 133.611 269.15 134.79 267.625 134.79C266.812 134.79 266.214 134.449 265.791 133.989L265.798 133.995ZM267.991 130.964C268.482 130.964 269.106 130.655 269.598 129.924C269.472 128.443 268.867 127.655 267.896 127.655C267.146 127.655 266.566 128.317 266.566 129.325C266.566 130.334 267.039 130.964 267.991 130.964Z" fill="var(--fill-0, white)" id="Vector_49"/>
<g id="Group_16">
<path d="M40.6316 181.276H42.3774V175.642H40.9845V175.011C41.6778 174.892 42.182 174.709 42.6106 174.457H43.3605V181.282H44.9361V182.095H40.6316V181.282V181.276Z" fill="var(--fill-0, white)" id="Vector_50"/>
<path d="M46.1651 178.245C46.1651 175.686 47.0979 174.312 48.6167 174.312C50.1356 174.312 51.0621 175.692 51.0621 178.245C51.0621 180.797 50.1419 182.228 48.6167 182.228C47.0916 182.228 46.1651 180.803 46.1651 178.245ZM50.1041 178.245C50.1041 176.007 49.5054 175.093 48.6167 175.093C47.7281 175.093 47.1168 176.001 47.1168 178.245C47.1168 180.488 47.7155 181.446 48.6167 181.446C49.518 181.446 50.1041 180.482 50.1041 178.245Z" fill="var(--fill-0, white)" id="Vector_51"/>
</g>
<g id="Group_17">
<path d="M77.7212 181.276H79.467V175.642H78.0742V175.011C78.7674 174.892 79.2716 174.709 79.7002 174.457H80.4502V181.282H82.0258V182.095H77.7212V181.282V181.276Z" fill="var(--fill-0, white)" id="Vector_52"/>
<path d="M83.6644 181.276H85.4102V175.642H84.0173V175.011C84.7106 174.892 85.2148 174.709 85.6434 174.457H86.3933V181.282H87.9689V182.095H83.6644V181.282V181.276Z" fill="var(--fill-0, white)" id="Vector_53"/>
</g>
<g id="Group_18">
<path d="M114.805 181.276H116.55V175.642H115.158V175.011C115.851 174.892 116.355 174.709 116.784 174.457H117.534V181.282H119.109V182.095H114.805V181.282V181.276Z" fill="var(--fill-0, white)" id="Vector_54"/>
<path d="M120.281 181.516C122.582 179.221 123.88 177.854 123.88 176.6C123.88 175.73 123.407 175.112 122.437 175.112C121.794 175.112 121.239 175.522 120.811 176.026L120.244 175.478C120.886 174.785 121.561 174.318 122.557 174.318C123.962 174.318 124.838 175.207 124.838 176.556C124.838 177.993 123.533 179.417 121.718 181.32C122.128 181.289 122.594 181.245 123.004 181.245H125.222V182.089H120.281V181.509V181.516Z" fill="var(--fill-0, white)" id="Vector_55"/>
</g>
<g id="Group_19">
<path d="M151.888 181.276H153.634V175.642H152.241V175.011C152.934 174.892 153.438 174.709 153.867 174.457H154.617V181.282H156.192V182.095H151.888V181.282V181.276Z" fill="var(--fill-0, white)" id="Vector_56"/>
<path d="M157.201 181.163L157.692 180.52C158.153 180.999 158.751 181.421 159.64 181.421C160.529 181.421 161.234 180.873 161.234 180.016C161.234 179.108 160.604 178.503 158.789 178.503V177.753C160.409 177.753 160.963 177.123 160.963 176.316C160.963 175.579 160.447 175.106 159.634 175.106C159.003 175.106 158.442 175.427 158.008 175.875L157.484 175.264C158.077 174.709 158.77 174.312 159.678 174.312C160.995 174.312 161.959 175.011 161.959 176.253C161.959 177.173 161.392 177.766 160.566 178.062V178.106C161.486 178.333 162.224 179.007 162.224 180.053C162.224 181.415 161.102 182.228 159.709 182.228C158.474 182.228 157.705 181.711 157.195 181.156L157.201 181.163Z" fill="var(--fill-0, white)" id="Vector_57"/>
</g>
<g id="Group_20">
<path d="M188.971 181.276H190.717V175.642H189.324V175.011C190.017 174.892 190.522 174.709 190.95 174.457H191.7V181.282H193.276V182.095H188.971V181.282V181.276Z" fill="var(--fill-0, white)" id="Vector_58"/>
<path d="M197.618 179.984H194.19V179.341L197.454 174.457H198.538V179.203H199.578V179.984H198.538V182.095H197.618V179.984ZM197.618 179.203V176.965C197.618 176.568 197.65 175.913 197.669 175.509H197.624C197.429 175.875 197.215 176.209 196.994 176.581L195.204 179.209H197.612L197.618 179.203Z" fill="var(--fill-0, white)" id="Vector_59"/>
</g>
<g id="Group_21">
<path d="M226.061 181.276H227.807V175.642H226.414V175.011C227.107 174.892 227.611 174.709 228.04 174.457H228.79V181.282H230.365V182.095H226.061V181.282V181.276Z" fill="var(--fill-0, white)" id="Vector_60"/>
<path d="M231.361 181.194L231.84 180.551C232.288 180.999 232.861 181.421 233.769 181.421C234.676 181.421 235.439 180.747 235.439 179.688C235.439 178.629 234.796 177.992 233.813 177.992C233.29 177.992 232.956 178.163 232.508 178.465L231.985 178.131L232.231 174.457H236.057V175.295H233.088L232.893 177.577C233.246 177.381 233.586 177.255 234.059 177.255C235.363 177.255 236.428 178.005 236.428 179.656C236.428 181.308 235.187 182.24 233.857 182.24C232.634 182.24 231.884 181.724 231.361 181.2V181.194Z" fill="var(--fill-0, white)" id="Vector_61"/>
</g>
<g id="Group_22">
<path d="M263.144 181.276H264.89V175.642H263.497V175.011C264.197 174.892 264.695 174.709 265.123 174.457H265.873V181.282H267.449V182.095H263.144V181.282V181.276Z" fill="var(--fill-0, white)" id="Vector_62"/>
<path d="M268.728 178.566C268.728 175.49 270.108 174.312 271.64 174.312C272.453 174.312 273.045 174.652 273.474 175.119L272.926 175.73C272.617 175.358 272.144 175.131 271.671 175.131C270.587 175.131 269.692 175.957 269.648 178.39C270.14 177.797 270.814 177.438 271.438 177.438C272.755 177.438 273.613 178.232 273.613 179.782C273.613 181.251 272.585 182.234 271.363 182.234C269.85 182.234 268.728 181.011 268.728 178.572V178.566ZM269.667 179.177C269.793 180.665 270.386 181.471 271.35 181.471C272.113 181.471 272.686 180.797 272.686 179.776C272.686 178.755 272.213 178.156 271.274 178.156C270.783 178.156 270.184 178.421 269.667 179.177Z" fill="var(--fill-0, white)" id="Vector_63"/>
</g>
<g id="Group_23">
<path d="M40.6316 228.708H42.3774V223.074H40.9845V222.443C41.6778 222.324 42.182 222.141 42.6106 221.889H43.3605V228.714H44.9361V229.527H40.6316V228.714V228.708Z" fill="var(--fill-0, white)" id="Vector_64"/>
<path d="M49.9655 222.721H46.1651V221.882H51.081V222.481C49.2785 224.794 48.894 226.54 48.7806 229.521H47.7659C47.892 226.641 48.4718 224.819 49.9718 222.721H49.9655Z" fill="var(--fill-0, white)" id="Vector_65"/>
</g>
<g id="Group_24">
<path d="M77.7212 228.708H79.467V223.074H78.0742V222.443C78.7674 222.324 79.2716 222.141 79.7002 221.889H80.4502V228.714H82.0258V229.527H77.7212V228.714V228.708Z" fill="var(--fill-0, white)" id="Vector_66"/>
<path d="M83.2043 227.573C83.2043 226.578 83.9354 225.891 84.6476 225.506V225.462C84.0804 225.078 83.5888 224.511 83.5888 223.698C83.5888 222.532 84.5215 221.75 85.7442 221.75C87.0803 221.75 87.8996 222.588 87.8996 223.773C87.8996 224.574 87.3135 225.261 86.8471 225.613V225.67C87.5215 226.08 88.1769 226.616 88.1769 227.63C88.1769 228.777 87.1937 229.666 85.7127 229.666C84.2316 229.666 83.2043 228.79 83.2043 227.58V227.573ZM87.2442 227.605C87.2442 226.609 86.2799 226.256 85.1644 225.815C84.5404 226.212 84.093 226.779 84.093 227.485C84.093 228.323 84.7862 228.929 85.7316 228.929C86.677 228.929 87.2442 228.38 87.2442 227.599V227.605ZM87.0614 223.824C87.0614 223.074 86.5824 222.475 85.7316 222.475C85.0005 222.475 84.4774 222.96 84.4774 223.698C84.4774 224.618 85.3219 225.002 86.2421 225.368C86.7652 224.895 87.0551 224.391 87.0551 223.824H87.0614Z" fill="var(--fill-0, white)" id="Vector_67"/>
</g>
<g id="Group_25">
<path d="M114.805 228.708H116.55V223.074H115.158V222.443C115.851 222.324 116.355 222.141 116.784 221.889H117.534V228.714H119.109V229.527H114.805V228.714V228.708Z" fill="var(--fill-0, white)" id="Vector_68"/>
<path d="M120.426 228.859L120.975 228.248C121.277 228.626 121.744 228.847 122.229 228.847C123.3 228.847 124.208 228.008 124.252 225.569C123.76 226.181 123.086 226.553 122.462 226.553C121.132 226.553 120.275 225.752 120.275 224.183C120.275 222.727 121.302 221.737 122.525 221.737C124.038 221.737 125.159 222.96 125.159 225.412C125.159 228.475 123.779 229.653 122.254 229.653C121.441 229.653 120.842 229.313 120.42 228.853L120.426 228.859ZM122.626 225.828C123.117 225.828 123.741 225.519 124.233 224.788C124.107 223.307 123.502 222.519 122.531 222.519C121.781 222.519 121.202 223.181 121.202 224.189C121.202 225.197 121.674 225.828 122.626 225.828Z" fill="var(--fill-0, white)" id="Vector_69"/>
</g>
<g id="Group_26">
<path d="M151.415 228.947C153.716 226.653 155.014 225.286 155.014 224.032C155.014 223.162 154.541 222.544 153.571 222.544C152.928 222.544 152.373 222.954 151.945 223.452L151.377 222.903C152.02 222.204 152.695 221.744 153.69 221.744C155.096 221.744 155.972 222.632 155.972 223.981C155.972 225.418 154.667 226.842 152.852 228.746C153.262 228.714 153.728 228.67 154.138 228.67H156.356V229.515H151.415V228.935V228.947Z" fill="var(--fill-0, white)" id="Vector_70"/>
<path d="M157.415 225.676C157.415 223.118 158.348 221.744 159.867 221.744C161.386 221.744 162.312 223.124 162.312 225.676C162.312 228.229 161.392 229.66 159.867 229.66C158.342 229.66 157.415 228.235 157.415 225.676ZM161.36 225.676C161.36 223.439 160.762 222.525 159.873 222.525C158.984 222.525 158.373 223.439 158.373 225.676C158.373 227.914 158.972 228.878 159.873 228.878C160.774 228.878 161.36 227.914 161.36 225.676Z" fill="var(--fill-0, white)" id="Vector_71"/>
</g>
<g id="Group_27">
<path d="M188.505 228.947C190.805 226.653 192.104 225.286 192.104 224.032C192.104 223.162 191.631 222.544 190.66 222.544C190.017 222.544 189.463 222.954 189.034 223.452L188.467 222.903C189.11 222.204 189.784 221.744 190.78 221.744C192.185 221.744 193.062 222.632 193.062 223.981C193.062 225.418 191.757 226.842 189.942 228.746C190.352 228.714 190.818 228.67 191.228 228.67H193.446V229.515H188.505V228.935V228.947Z" fill="var(--fill-0, white)" id="Vector_72"/>
<path d="M194.921 228.708H196.667V223.074H195.274V222.443C195.967 222.324 196.471 222.141 196.9 221.889H197.65V228.714H199.225V229.527H194.921V228.714V228.708Z" fill="var(--fill-0, white)" id="Vector_73"/>
</g>
<g id="Group_28">
<path d="M225.588 228.947C227.889 226.653 229.187 225.286 229.187 224.032C229.187 223.162 228.714 222.544 227.744 222.544C227.101 222.544 226.546 222.954 226.118 223.452L225.55 222.903C226.193 222.204 226.868 221.744 227.863 221.744C229.269 221.744 230.145 222.632 230.145 223.981C230.145 225.418 228.84 226.842 227.025 228.746C227.435 228.714 227.901 228.67 228.311 228.67H230.529V229.515H225.588V228.935V228.947Z" fill="var(--fill-0, white)" id="Vector_74"/>
<path d="M231.531 228.947C233.832 226.653 235.13 225.286 235.13 224.032C235.13 223.162 234.657 222.544 233.687 222.544C233.044 222.544 232.489 222.954 232.061 223.452L231.494 222.903C232.136 222.204 232.811 221.744 233.807 221.744C235.212 221.744 236.088 222.632 236.088 223.981C236.088 225.418 234.783 226.842 232.968 228.746C233.378 228.714 233.844 228.67 234.254 228.67H236.472V229.515H231.531V228.935V228.947Z" fill="var(--fill-0, white)" id="Vector_75"/>
</g>
<g id="Group_29">
<path d="M262.672 228.947C264.972 226.653 266.27 225.286 266.27 224.032C266.27 223.162 265.798 222.544 264.827 222.544C264.184 222.544 263.63 222.954 263.201 223.452L262.634 222.903C263.277 222.204 263.951 221.744 264.947 221.744C266.352 221.744 267.228 222.632 267.228 223.981C267.228 225.418 265.924 226.842 264.109 228.746C264.518 228.714 264.985 228.67 265.394 228.67H267.613V229.515H262.672V228.935V228.947Z" fill="var(--fill-0, white)" id="Vector_76"/>
<path d="M268.457 228.588L268.949 227.945C269.409 228.424 270.008 228.847 270.896 228.847C271.785 228.847 272.491 228.298 272.491 227.441C272.491 226.527 271.86 225.929 270.045 225.929V225.179C271.665 225.179 272.22 224.548 272.22 223.742C272.22 223.004 271.703 222.532 270.89 222.532C270.26 222.532 269.699 222.853 269.264 223.3L268.741 222.689C269.333 222.135 270.026 221.737 270.94 221.737C272.258 221.737 273.222 222.431 273.222 223.679C273.222 224.599 272.655 225.191 271.829 225.487V225.532C272.749 225.758 273.487 226.433 273.487 227.479C273.487 228.84 272.365 229.653 270.972 229.653C269.737 229.653 268.968 229.136 268.457 228.582V228.588Z" fill="var(--fill-0, white)" id="Vector_77"/>
</g>
<g id="Group_30">
<path d="M40.1652 276.373C42.4656 274.079 43.7639 272.711 43.7639 271.457C43.7639 270.587 43.2912 269.97 42.3206 269.97C41.6778 269.97 41.1232 270.379 40.6946 270.884L40.1274 270.335C40.7702 269.642 41.4446 269.176 42.4404 269.176C43.8458 269.176 44.7219 270.064 44.7219 271.413C44.7219 272.85 43.4173 274.274 41.6022 276.178C42.0118 276.146 42.4782 276.102 42.8879 276.102H45.1063V276.947H40.1652V276.367V276.373Z" fill="var(--fill-0, white)" id="Vector_78"/>
<path d="M49.2785 274.842H45.85V274.199L49.1146 269.314H50.1986V274.06H51.2385V274.842H50.1986V276.953H49.2785V274.842ZM49.2785 274.06V271.823C49.2785 271.426 49.31 270.77 49.3289 270.367H49.2848C49.0894 270.732 48.8751 271.066 48.6546 271.438L46.8647 274.066H49.2722L49.2785 274.06Z" fill="var(--fill-0, white)" id="Vector_79"/>
</g>
<g id="Group_31">
<path d="M40.0014 324.359L40.4929 323.717C40.953 324.196 41.5517 324.618 42.4404 324.618C43.329 324.618 44.0349 324.07 44.0349 323.212C44.0349 322.299 43.4047 321.7 41.5896 321.7V320.95C43.2093 320.95 43.7639 320.32 43.7639 319.513C43.7639 318.776 43.2471 318.303 42.4341 318.303C41.8038 318.303 41.2429 318.624 40.8081 319.072L40.285 318.46C40.8711 317.906 41.5707 317.509 42.4782 317.509C43.7954 317.509 44.7597 318.202 44.7597 319.45C44.7597 320.37 44.1925 320.962 43.3668 321.259V321.303C44.287 321.53 45.0244 322.204 45.0244 323.25C45.0244 324.612 43.9025 325.425 42.5097 325.425C41.2807 325.425 40.5055 324.908 39.9951 324.353L40.0014 324.359Z" fill="var(--fill-0, white)" id="Vector_80"/>
<path d="M46.5811 324.473H48.3268V318.839H46.934V318.208C47.6273 318.089 48.1315 317.906 48.56 317.654H49.31V324.479H50.8856V325.292H46.5811V324.479V324.473Z" fill="var(--fill-0, white)" id="Vector_81"/>
</g>
<g id="Group_32">
<path d="M77.2486 276.373C79.5489 274.079 80.8472 272.711 80.8472 271.457C80.8472 270.587 80.3746 269.97 79.404 269.97C78.7611 269.97 78.2065 270.379 77.778 270.884L77.2107 270.335C77.8536 269.642 78.5279 269.176 79.5237 269.176C80.9292 269.176 81.8052 270.064 81.8052 271.413C81.8052 272.85 80.5006 274.274 78.6855 276.178C79.0952 276.146 79.5615 276.102 79.9712 276.102H82.1896V276.947H77.2486V276.367V276.373Z" fill="var(--fill-0, white)" id="Vector_82"/>
<path d="M83.0216 276.052L83.5005 275.409C83.948 275.856 84.5215 276.278 85.4291 276.278C86.3366 276.278 87.0992 275.604 87.0992 274.545C87.0992 273.487 86.4564 272.85 85.4732 272.85C84.9501 272.85 84.6161 273.02 84.1686 273.323L83.6455 272.989L83.8913 269.314H87.7168V270.153H84.7484L84.553 272.434C84.906 272.239 85.2463 272.113 85.719 272.113C87.0236 272.113 88.0887 272.863 88.0887 274.514C88.0887 276.165 86.8471 277.098 85.5173 277.098C84.2947 277.098 83.5447 276.581 83.0216 276.058V276.052Z" fill="var(--fill-0, white)" id="Vector_83"/>
</g>
<g id="Group_33">
<path d="M114.332 276.373C116.632 274.079 117.931 272.711 117.931 271.457C117.931 270.587 117.458 269.97 116.487 269.97C115.844 269.97 115.29 270.379 114.861 270.884L114.294 270.335C114.937 269.642 115.611 269.176 116.607 269.176C118.012 269.176 118.889 270.064 118.889 271.413C118.889 272.85 117.584 274.274 115.769 276.178C116.178 276.146 116.645 276.102 117.055 276.102H119.273V276.947H114.332V276.367V276.373Z" fill="var(--fill-0, white)" id="Vector_84"/>
<path d="M120.389 273.43C120.389 270.354 121.769 269.176 123.3 269.176C124.113 269.176 124.706 269.516 125.134 269.982L124.586 270.594C124.277 270.222 123.804 269.995 123.332 269.995C122.248 269.995 121.353 270.821 121.309 273.253C121.8 272.661 122.475 272.302 123.099 272.302C124.416 272.302 125.273 273.096 125.273 274.646C125.273 276.115 124.246 277.098 123.023 277.098C121.51 277.098 120.389 275.875 120.389 273.436V273.43ZM121.328 274.041C121.454 275.529 122.046 276.335 123.01 276.335C123.773 276.335 124.346 275.661 124.346 274.64C124.346 273.619 123.874 273.02 122.935 273.02C122.443 273.02 121.844 273.285 121.328 274.041Z" fill="var(--fill-0, white)" id="Vector_85"/>
</g>
<g id="Group_34">
<path d="M151.415 276.373C153.716 274.079 155.014 272.711 155.014 271.457C155.014 270.587 154.541 269.97 153.571 269.97C152.928 269.97 152.373 270.379 151.945 270.884L151.377 270.335C152.02 269.642 152.695 269.176 153.69 269.176C155.096 269.176 155.972 270.064 155.972 271.413C155.972 272.85 154.667 274.274 152.852 276.178C153.262 276.146 153.728 276.102 154.138 276.102H156.356V276.947H151.415V276.367V276.373Z" fill="var(--fill-0, white)" id="Vector_86"/>
<path d="M161.222 270.153H157.421V269.314H162.337V269.913C160.535 272.226 160.15 273.972 160.037 276.953H159.022C159.148 274.073 159.728 272.251 161.228 270.153H161.222Z" fill="var(--fill-0, white)" id="Vector_87"/>
</g>
<g id="Group_35">
<path d="M188.505 276.373C190.805 274.079 192.104 272.711 192.104 271.457C192.104 270.587 191.631 269.97 190.66 269.97C190.017 269.97 189.463 270.379 189.034 270.884L188.467 270.335C189.11 269.642 189.784 269.176 190.78 269.176C192.185 269.176 193.062 270.064 193.062 271.413C193.062 272.85 191.757 274.274 189.942 276.178C190.352 276.146 190.818 276.102 191.228 276.102H193.446V276.947H188.505V276.367V276.373Z" fill="var(--fill-0, white)" id="Vector_88"/>
<path d="M194.461 275.005C194.461 274.01 195.192 273.323 195.904 272.938V272.894C195.337 272.51 194.845 271.942 194.845 271.129C194.845 269.963 195.778 269.182 197.001 269.182C198.337 269.182 199.156 270.02 199.156 271.205C199.156 272.012 198.57 272.692 198.103 273.045V273.096C198.778 273.505 199.433 274.041 199.433 275.056C199.433 276.203 198.45 277.091 196.969 277.091C195.488 277.091 194.461 276.215 194.461 274.999V275.005ZM198.501 275.037C198.501 274.041 197.536 273.688 196.421 273.247C195.797 273.644 195.349 274.211 195.349 274.917C195.349 275.755 196.043 276.36 196.988 276.36C197.933 276.36 198.501 275.812 198.501 275.031V275.037ZM198.318 271.255C198.318 270.505 197.839 269.907 196.988 269.907C196.257 269.907 195.734 270.386 195.734 271.129C195.734 272.049 196.578 272.434 197.498 272.799C198.022 272.327 198.311 271.823 198.311 271.255H198.318Z" fill="var(--fill-0, white)" id="Vector_89"/>
</g>
<g id="Group_36">
<path d="M225.588 276.373C227.889 274.079 229.187 272.711 229.187 271.457C229.187 270.587 228.714 269.97 227.744 269.97C227.101 269.97 226.546 270.379 226.118 270.884L225.55 270.335C226.193 269.642 226.868 269.176 227.863 269.176C229.269 269.176 230.145 270.064 230.145 271.413C230.145 272.85 228.84 274.274 227.025 276.178C227.435 276.146 227.901 276.102 228.311 276.102H230.529V276.946H225.588V276.367V276.373Z" fill="var(--fill-0, white)" id="Vector_90"/>
<path d="M231.683 276.291L232.231 275.68C232.533 276.052 233 276.278 233.485 276.278C234.557 276.278 235.464 275.44 235.508 273.001C235.017 273.613 234.342 273.984 233.718 273.984C232.389 273.984 231.531 273.178 231.531 271.615C231.531 270.159 232.559 269.169 233.781 269.169C235.294 269.169 236.416 270.392 236.416 272.844C236.416 275.907 235.036 277.085 233.51 277.085C232.697 277.085 232.099 276.745 231.676 276.278L231.683 276.291ZM233.882 273.26C234.374 273.26 234.998 272.951 235.489 272.22C235.363 270.739 234.758 269.951 233.788 269.951C233.038 269.951 232.458 270.613 232.458 271.621C232.458 272.629 232.931 273.26 233.882 273.26Z" fill="var(--fill-0, white)" id="Vector_91"/>
</g>
<g id="Group_37">
<path d="M262.514 276.02L263.006 275.377C263.466 275.856 264.064 276.278 264.953 276.278C265.842 276.278 266.548 275.73 266.548 274.873C266.548 273.966 265.917 273.36 264.102 273.36V272.61C265.722 272.61 266.277 271.98 266.277 271.174C266.277 270.436 265.76 269.963 264.947 269.963C264.316 269.963 263.756 270.285 263.321 270.732L262.798 270.121C263.384 269.566 264.083 269.169 264.991 269.169C266.308 269.169 267.272 269.869 267.272 271.111C267.272 272.031 266.705 272.623 265.879 272.919V272.963C266.8 273.19 267.537 273.865 267.537 274.911C267.537 276.272 266.409 277.085 265.016 277.085C263.787 277.085 263.012 276.568 262.501 276.014L262.514 276.02Z" fill="var(--fill-0, white)" id="Vector_92"/>
<path d="M268.671 273.108C268.671 270.549 269.604 269.176 271.123 269.176C272.642 269.176 273.568 270.556 273.568 273.108C273.568 275.661 272.648 277.091 271.123 277.091C269.598 277.091 268.671 275.667 268.671 273.108ZM272.617 273.108C272.617 270.871 272.018 269.957 271.129 269.957C270.241 269.957 269.629 270.865 269.629 273.108C269.629 275.352 270.228 276.31 271.129 276.31C272.031 276.31 272.617 275.346 272.617 273.108Z" fill="var(--fill-0, white)" id="Vector_93"/>
</g>
<g id="Group_38" opacity="0.2">
<path d="M80.6897 324.473H82.4354V318.839H81.0426V318.208C81.7359 318.089 82.2401 317.906 82.6686 317.654H83.4186V324.479H84.9942V325.292H80.6897V324.479V324.473Z" fill="var(--fill-0, white)" id="Vector_94"/>
</g>
<g id="Group_39" opacity="0.2">
<path d="M117.307 324.712C119.607 322.418 120.905 321.051 120.905 319.797C120.905 318.927 120.433 318.309 119.462 318.309C118.819 318.309 118.265 318.719 117.836 319.217L117.269 318.668C117.912 317.969 118.586 317.509 119.582 317.509C120.987 317.509 121.863 318.397 121.863 319.746C121.863 321.183 120.559 322.607 118.744 324.511C119.153 324.479 119.62 324.435 120.029 324.435H122.248V325.28H117.307V324.7V324.712Z" fill="var(--fill-0, white)" id="Vector_95"/>
</g>
<g id="Group_40" opacity="0.2">
<path d="M154.232 324.359L154.724 323.717C155.184 324.196 155.783 324.618 156.671 324.618C157.56 324.618 158.266 324.07 158.266 323.212C158.266 322.299 157.636 321.7 155.821 321.7V320.95C157.44 320.95 157.995 320.32 157.995 319.513C157.995 318.776 157.478 318.303 156.665 318.303C156.035 318.303 155.474 318.624 155.039 319.072L154.516 318.46C155.102 317.906 155.802 317.509 156.709 317.509C158.026 317.509 158.991 318.202 158.991 319.45C158.991 320.37 158.424 320.962 157.598 321.259V321.303C158.518 321.53 159.255 322.204 159.255 323.25C159.255 324.612 158.134 325.425 156.741 325.425C155.512 325.425 154.737 324.908 154.226 324.353L154.232 324.359Z" fill="var(--fill-0, white)" id="Vector_96"/>
</g>
<g id="Group_41" opacity="0.2">
<path d="M194.65 323.181H191.221V322.538L194.486 317.654H195.57V322.399H196.61V323.181H195.57V325.292H194.65V323.181ZM194.65 322.399V320.162C194.65 319.765 194.681 319.11 194.7 318.706H194.656C194.461 319.072 194.246 319.4 194.026 319.778L192.236 322.399H194.643H194.65Z" fill="var(--fill-0, white)" id="Vector_97"/>
</g>
<g id="Group_42" opacity="0.2">
<path d="M228.387 324.391L228.865 323.748C229.313 324.196 229.88 324.618 230.794 324.618C231.708 324.618 232.464 323.944 232.464 322.885C232.464 321.826 231.821 321.189 230.838 321.189C230.315 321.189 229.981 321.36 229.534 321.662L229.01 321.328L229.256 317.654H233.082V318.492H230.113L229.918 320.773C230.271 320.578 230.611 320.452 231.084 320.452C232.389 320.452 233.454 321.202 233.454 322.853C233.454 324.504 232.212 325.437 230.882 325.437C229.66 325.437 228.91 324.92 228.387 324.397V324.391Z" fill="var(--fill-0, white)" id="Vector_98"/>
</g>
<g id="Group_43" opacity="0.2">
<path d="M265.753 321.763C265.753 318.687 267.134 317.509 268.665 317.509C269.478 317.509 270.071 317.849 270.499 318.309L269.951 318.921C269.642 318.549 269.169 318.322 268.697 318.322C267.613 318.322 266.718 319.147 266.674 321.58C267.165 320.994 267.84 320.628 268.463 320.628C269.781 320.628 270.638 321.423 270.638 322.973C270.638 324.441 269.611 325.425 268.388 325.425C266.875 325.425 265.753 324.202 265.753 321.763ZM266.693 322.374C266.819 323.862 267.411 324.668 268.375 324.668C269.138 324.668 269.711 323.994 269.711 322.973C269.711 321.952 269.239 321.353 268.3 321.353C267.808 321.353 267.209 321.618 266.693 322.368V322.374Z" fill="var(--fill-0, white)" id="Vector_99"/>
</g>
</g>
</g>
<g clip-path="url(#clip1_0_2597)" id="Frame_2">
<g id="Layer 2_2">
<path d="M648.151 0H349.808C344.921 0 340.96 3.96164 340.96 8.84857V356.88C340.96 361.767 344.921 365.728 349.808 365.728H648.151C653.038 365.728 657 361.767 657 356.88V8.84857C657 3.96164 653.038 0 648.151 0Z" fill="var(--fill-0, #828E7B)" id="Vector_100"/>
</g>
<g id="Layer 1_2">
<g id="Group_44" opacity="0.8">
<path d="M627.65 74.1667H405.15V74.778H627.65V74.1667Z" fill="var(--fill-0, white)" id="Vector_101"/>
</g>
<g id="Group_45" opacity="0.8">
<path d="M627.65 121.334H370.31V121.945H627.65V121.334Z" fill="var(--fill-0, white)" id="Vector_102"/>
</g>
<g id="Group_46" opacity="0.8">
<path d="M627.65 168.501H370.31V169.112H627.65V168.501Z" fill="var(--fill-0, white)" id="Vector_103"/>
</g>
<g id="Group_47" opacity="0.8">
<path d="M627.65 215.668H370.31V216.28H627.65V215.668Z" fill="var(--fill-0, white)" id="Vector_104"/>
</g>
<g id="Group_48" opacity="0.8">
<path d="M480.01 262.835H370.31V263.447H480.01V262.835Z" fill="var(--fill-0, white)" id="Vector_105"/>
</g>
</g>
<g id="Layer 5_2">
<path d="M620.875 74.9167C626.096 74.9167 630.328 79.1492 630.328 84.3703C630.328 89.5914 626.096 93.8239 620.875 93.8239H527.101C521.88 93.8239 517.648 89.5914 517.648 84.3703C517.648 79.1492 521.88 74.9167 527.101 74.9167H620.875Z" fill="var(--fill-0, #5FFF8C)" id="Vector (Stroke)_2" opacity="0.5"/>
<path d="M620.875 122.229C626.096 122.229 630.328 126.461 630.328 131.682C630.328 136.904 626.096 141.136 620.875 141.136H527.101C521.88 141.136 517.648 136.904 517.648 131.682C517.648 126.461 521.88 122.229 527.101 122.229H620.875Z" fill="var(--fill-0, #FFE05C)" id="Vector (Stroke)_3" opacity="0.5"/>
<g id="Group_49">
<path d="M544.294 103.441V104.154H537.45V103.441H540.431V102.156H538.282V99.7229H542.63V98.7083H538.263V98.015H543.481V100.41H539.12V101.462H543.645V102.156H541.288V103.441H544.294Z" fill="var(--fill-0, #5FFF8C)" id="Vector_106"/>
<path d="M549.09 98.1976V103.189H545.542V98.1976H549.09ZM546.393 98.8783V102.496H548.252V98.8783H546.393ZM551.359 97.4729V105.055H550.489V97.4729H551.359Z" fill="var(--fill-0, #5FFF8C)" id="Vector_107"/>
<path d="M559.685 103.41V104.116H552.84V103.41H555.821V101.96C554.441 101.834 553.477 101.072 553.477 99.9498C553.477 98.7209 554.649 97.9268 556.256 97.9268C557.863 97.9268 559.036 98.7209 559.036 99.9498C559.036 101.072 558.065 101.841 556.685 101.967V103.404H559.691L559.685 103.41ZM556.25 101.292C557.372 101.292 558.185 100.775 558.185 99.9561C558.185 99.1368 557.372 98.62 556.25 98.62C555.128 98.62 554.309 99.1368 554.309 99.9561C554.309 100.775 555.122 101.292 556.25 101.292Z" fill="var(--fill-0, #5FFF8C)" id="Vector_108"/>
<path d="M563.208 102.704C563.851 102.679 564.493 102.628 565.098 102.546L565.174 103.183C563.592 103.46 561.859 103.467 560.561 103.467L560.441 102.754C561.008 102.754 561.664 102.754 562.338 102.735V101.551C561.399 101.38 560.737 100.7 560.737 99.7671C560.737 98.6956 561.601 97.952 562.76 97.952C563.92 97.952 564.777 98.6956 564.777 99.7671C564.777 100.694 564.134 101.374 563.195 101.538V102.704H563.208ZM562.773 100.838C563.46 100.838 563.951 100.429 563.951 99.7671C563.951 99.1053 563.46 98.6893 562.773 98.6893C562.086 98.6893 561.588 99.1053 561.588 99.7671C561.588 100.429 562.092 100.838 562.773 100.838ZM567.512 101.248H566.409V105.03H565.546V97.4856H566.409V100.53H567.512V101.248Z" fill="var(--fill-0, #5FFF8C)" id="Vector_109"/>
<path d="M574.407 101.248V101.885H576.537V103.706H572.239V104.311H576.758V104.973H571.388V103.101H575.699V102.521H571.376V101.885H573.55V101.248H570.563V100.561H577.407V101.248H574.413H574.407ZM570.903 99.6158C572.289 99.5087 573.273 98.9982 573.449 98.3868H571.199V97.7062H576.789V98.3868H574.521C574.697 98.9982 575.674 99.5087 577.067 99.6158L576.802 100.271C575.491 100.164 574.445 99.6914 573.991 98.9982C573.537 99.6914 572.51 100.158 571.187 100.271L570.909 99.6158H570.903Z" fill="var(--fill-0, #5FFF8C)" id="Vector_110"/>
<path d="M579.556 102.546C580.754 102.54 581.8 102.477 582.997 102.288L583.092 102.994C581.793 103.221 580.665 103.259 579.336 103.259H578.693V100.265H581.327V98.8595H578.674V98.1536H582.197V100.958H579.562V102.546H579.556ZM584.491 97.4667V105.055H583.621V97.4667H584.491Z" fill="var(--fill-0, #5FFF8C)" id="Vector_111"/>
<path d="M589.426 100.17C589.281 101.046 588.606 101.633 587.718 101.633C586.722 101.633 586.003 100.889 586.003 99.8175C586.003 98.7461 586.722 97.9961 587.718 97.9961C588.606 97.9961 589.274 98.5822 589.419 99.4582H590.081V97.6431H590.882V101.853H590.081V100.17H589.426ZM587.718 100.914C588.279 100.914 588.669 100.479 588.669 99.8175C588.669 99.1557 588.279 98.7146 587.718 98.7146C587.157 98.7146 586.772 99.1494 586.772 99.8175C586.772 100.486 587.176 100.914 587.718 100.914ZM590.232 102.414C590.232 103.315 591.26 104.135 592.716 104.349L592.4 105.011C591.222 104.834 590.277 104.28 589.804 103.511C589.337 104.28 588.379 104.834 587.201 105.011L586.873 104.349C588.335 104.141 589.369 103.322 589.369 102.414V102.187H590.232V102.414ZM592.356 102.565H591.537V97.4856H592.356V102.565Z" fill="var(--fill-0, #5FFF8C)" id="Vector_112"/>
<path d="M599.938 100.706C599.938 102.338 599.125 103.366 597.997 103.366C596.869 103.366 596.056 102.338 596.056 100.706C596.056 99.0738 596.869 98.0402 597.997 98.0402C599.125 98.0402 599.938 99.0801 599.938 100.706ZM599.112 100.706C599.112 99.5276 598.652 98.8154 597.997 98.8154C597.342 98.8154 596.881 99.5276 596.881 100.706C596.881 101.885 597.335 102.597 597.997 102.597C598.659 102.597 599.112 101.885 599.112 100.706ZM603.02 101.147H601.841V105.048H600.978V97.4856H601.841V100.441H603.02V101.154V101.147Z" fill="var(--fill-0, #5FFF8C)" id="Vector_113"/>
<path d="M608.421 100.92C607.217 101.172 606.096 101.261 604.766 101.261H604.135V97.9141H604.999V100.542C606.196 100.536 607.217 100.448 608.32 100.227L608.421 100.92ZM604.955 102.086H609.909V104.948H604.955V102.086ZM605.812 104.254H609.064V102.773H605.812V104.254ZM609.909 97.4856V101.746H609.039V97.4856H609.909Z" fill="var(--fill-0, #5FFF8C)" id="Vector_114"/>
</g>
<g id="Group_50">
<path d="M549.834 151.724V152.436H542.99V151.724H545.971V150.438H543.822V148.006H548.17V146.991H543.803V146.298H549.021V148.693H544.66V149.745H549.185V150.438H546.828V151.724H549.834Z" fill="var(--fill-0, #FFE05C)" id="Vector_115"/>
<path d="M554.636 146.474V151.466H551.088V146.474H554.636ZM551.933 147.161V150.779H553.792V147.161H551.933ZM556.899 145.756V153.337H556.029V145.756H556.899Z" fill="var(--fill-0, #FFE05C)" id="Vector_116"/>
<path d="M565.225 151.686V152.392H558.38V151.686H561.361V150.237C559.981 150.111 559.017 149.348 559.017 148.226C559.017 146.997 560.189 146.203 561.796 146.203C563.403 146.203 564.575 146.997 564.575 148.226C564.575 149.348 563.605 150.117 562.225 150.243V151.68H565.231L565.225 151.686ZM561.79 149.569C562.912 149.569 563.725 149.052 563.725 148.233C563.725 147.413 562.912 146.896 561.79 146.896C560.668 146.896 559.849 147.413 559.849 148.233C559.849 149.052 560.662 149.569 561.79 149.569Z" fill="var(--fill-0, #FFE05C)" id="Vector_117"/>
<path d="M568.748 150.987C569.39 150.961 570.033 150.911 570.638 150.829L570.714 151.466C569.132 151.743 567.399 151.749 566.101 151.749L565.981 151.037C566.548 151.037 567.203 151.037 567.878 151.018V149.833C566.939 149.663 566.277 148.983 566.277 148.05C566.277 146.978 567.14 146.235 568.3 146.235C569.46 146.235 570.317 146.978 570.317 148.05C570.317 148.976 569.674 149.657 568.735 149.821V150.987H568.748ZM568.313 149.121C569 149.121 569.491 148.712 569.491 148.05C569.491 147.388 569 146.972 568.313 146.972C567.626 146.972 567.128 147.388 567.128 148.05C567.128 148.712 567.632 149.121 568.313 149.121ZM573.052 149.531H571.949V153.312H571.086V145.768H571.949V148.812H573.052V149.531Z" fill="var(--fill-0, #FFE05C)" id="Vector_118"/>
<path d="M579.947 149.531V150.167H582.077V151.989H577.779V152.594H582.298V153.256H576.928V151.384H581.239V150.804H576.915V150.167H579.09V149.531H576.102V148.844H582.947V149.531H579.953H579.947ZM576.443 147.899C577.829 147.791 578.813 147.281 578.989 146.67H576.739V145.989H582.329V146.67H580.06C580.237 147.281 581.214 147.791 582.607 147.899L582.342 148.554C581.031 148.447 579.985 147.974 579.531 147.281C579.077 147.974 578.05 148.441 576.726 148.554L576.449 147.899H576.443Z" fill="var(--fill-0, #FFE05C)" id="Vector_119"/>
<path d="M585.096 150.829C586.293 150.823 587.34 150.76 588.537 150.571L588.632 151.277C587.333 151.503 586.205 151.541 584.875 151.541H584.233V148.548H586.867V147.142H584.214V146.436H587.737V149.241H585.102V150.829H585.096ZM590.037 145.749V153.337H589.167V145.749H590.037Z" fill="var(--fill-0, #FFE05C)" id="Vector_120"/>
<path d="M594.966 148.453C594.821 149.329 594.146 149.915 593.258 149.915C592.262 149.915 591.543 149.171 591.543 148.1C591.543 147.029 592.262 146.279 593.258 146.279C594.146 146.279 594.814 146.865 594.959 147.741H595.621V145.926H596.421V150.136H595.621V148.453H594.966ZM593.258 149.197C593.819 149.197 594.209 148.762 594.209 148.1C594.209 147.438 593.819 146.997 593.258 146.997C592.697 146.997 592.312 147.432 592.312 148.1C592.312 148.768 592.716 149.197 593.258 149.197ZM595.772 150.69C595.772 151.591 596.8 152.411 598.255 152.625L597.94 153.287C596.762 153.11 595.816 152.556 595.344 151.787C594.877 152.556 593.919 153.11 592.741 153.287L592.413 152.625C593.875 152.417 594.909 151.598 594.909 150.69V150.463H595.772V150.69ZM597.896 150.841H597.077V145.762H597.896V150.841Z" fill="var(--fill-0, #FFE05C)" id="Vector_121"/>
<path d="M600.877 151.938L601.344 151.321C601.703 151.686 602.163 152.001 602.799 152.001C603.493 152.001 603.972 151.623 603.972 151.025C603.972 150.363 603.537 149.934 602.15 149.934V149.222C603.36 149.222 603.764 148.781 603.764 148.201C603.764 147.665 603.404 147.338 602.818 147.338C602.339 147.338 601.942 147.571 601.589 147.924L601.085 147.319C601.57 146.878 602.138 146.562 602.85 146.562C603.953 146.562 604.734 147.13 604.734 148.119C604.734 148.812 604.325 149.272 603.669 149.518V149.562C604.381 149.739 604.942 150.256 604.942 151.069C604.942 152.146 604.016 152.783 602.881 152.783C601.911 152.783 601.281 152.398 600.871 151.938H600.877Z" fill="var(--fill-0, #FFE05C)" id="Vector_122"/>
</g>
</g>
<g id="Layer 4_2">
<g id="Group_51">
<path d="M488.505 25.4365C488.505 21.1761 490.503 19.4492 492.709 19.4492C493.951 19.4492 494.858 19.9786 495.488 20.6404L494.537 21.6992C494.127 21.2139 493.446 20.8862 492.785 20.8862C491.379 20.8862 490.201 21.945 490.125 25.1214C490.774 24.321 491.745 23.8231 492.545 23.8231C494.404 23.8231 495.677 24.926 495.677 27.1634C495.677 29.4007 494.165 30.6864 492.35 30.6864C490.232 30.6864 488.512 29.01 488.512 25.4428L488.505 25.4365ZM490.169 26.4071C490.352 28.4175 491.152 29.3566 492.331 29.3566C493.301 29.3566 494.07 28.5436 494.07 27.1634C494.07 25.7831 493.402 25.0899 492.224 25.0899C491.606 25.0899 490.831 25.4365 490.169 26.4071Z" fill="var(--fill-0, white)" id="Vector_123"/>
<path d="M500.6 24.0626C499.421 24.1067 498.287 24.1067 497.259 24.1067L497.077 22.9849C499.705 22.9849 503.001 22.9723 505.887 22.6697L505.994 23.6529C504.74 23.8357 503.442 23.9428 502.169 23.9996V26.01H500.6V24.0626ZM498.06 20.2874C498.06 19.0333 499.421 18.2455 501.463 18.2455C503.505 18.2455 504.847 19.0333 504.847 20.2874C504.847 21.5416 503.486 22.3294 501.463 22.3294C499.44 22.3294 498.06 21.5416 498.06 20.2874ZM508.805 30.428V31.5309H499.112V28.4301H506.864V27.5226H499.081V26.4512H508.408V29.4322H500.65V30.428H508.799H508.805ZM499.522 20.2874C499.522 20.924 500.278 21.2832 501.457 21.2832C502.635 21.2832 503.379 20.9177 503.379 20.2874C503.379 19.6572 502.623 19.2917 501.457 19.2917C500.291 19.2917 499.522 19.6572 499.522 20.2874ZM506.858 24.4092V17.9997H508.415V25.9659H506.858V25.3735H504.287V24.4029H506.858V24.4092Z" fill="var(--fill-0, white)" id="Vector_124"/>
</g>
<g id="Group_52" opacity="0.2">
<path d="M380.961 86.2988L381.453 85.656C381.913 86.135 382.511 86.5572 383.4 86.5572C384.289 86.5572 384.995 86.0089 384.995 85.1518C384.995 84.2442 384.364 83.6392 382.549 83.6392V82.8892C384.169 82.8892 384.724 82.259 384.724 81.4523C384.724 80.7149 384.207 80.2422 383.394 80.2422C382.764 80.2422 382.203 80.5636 381.768 81.0111L381.245 80.3998C381.831 79.8452 382.53 79.4481 383.438 79.4481C384.755 79.4481 385.719 80.1477 385.719 81.3892C385.719 82.3094 385.152 82.9018 384.327 83.198V83.2422C385.247 83.469 385.984 84.1434 385.984 85.1896C385.984 86.5509 384.856 87.3639 383.463 87.3639C382.234 87.3639 381.459 86.8471 380.948 86.2925L380.961 86.2988Z" fill="var(--fill-0, white)" id="Vector_125"/>
<path d="M387.541 86.4186H389.287V80.7842H387.894V80.154C388.587 80.0342 389.091 79.8515 389.52 79.5994H390.27V86.4249H391.845V87.2379H387.541V86.4249V86.4186Z" fill="var(--fill-0, white)" id="Vector_126"/>
</g>
<path d="M421.649 86.4186H423.395V80.7842H422.002V80.154C422.696 80.0342 423.2 79.8515 423.628 79.5994H424.378V86.4249H425.954V87.2379H421.649V86.4249V86.4186Z" fill="var(--fill-0, white)" id="Vector_127"/>
<path d="M458.266 86.6518C460.567 84.3577 461.865 82.9901 461.865 81.7359C461.865 80.8661 461.392 80.2485 460.422 80.2485C459.779 80.2485 459.224 80.6582 458.796 81.1624L458.229 80.6141C458.871 79.9208 459.546 79.4544 460.542 79.4544C461.947 79.4544 462.823 80.343 462.823 81.6918C462.823 83.1287 461.518 84.553 459.703 86.4564C460.113 86.4249 460.579 86.3807 460.989 86.3807H463.207V87.2253H458.266V86.6454V86.6518Z" fill="var(--fill-0, white)" id="Vector_128"/>
<path d="M495.192 86.2988L495.684 85.656C496.144 86.135 496.743 86.5572 497.631 86.5572C498.52 86.5572 499.226 86.0089 499.226 85.1518C499.226 84.2442 498.595 83.6392 496.78 83.6392V82.8892C498.4 82.8892 498.955 82.259 498.955 81.4523C498.955 80.7149 498.438 80.2422 497.625 80.2422C496.995 80.2422 496.434 80.5636 495.999 81.0111L495.476 80.3998C496.062 79.8452 496.761 79.4481 497.669 79.4481C498.986 79.4481 499.95 80.1477 499.95 81.3892C499.95 82.3094 499.383 82.9018 498.558 83.198V83.2422C499.478 83.469 500.215 84.1434 500.215 85.1896C500.215 86.5509 499.093 87.3639 497.701 87.3639C496.465 87.3639 495.696 86.8471 495.186 86.2925L495.192 86.2988Z" fill="var(--fill-0, white)" id="Vector_129"/>
<path d="M535.603 85.1203H532.175V84.4774L535.439 79.5931H536.523V84.3388H537.563V85.1203H536.523V87.2316H535.603V85.1203ZM535.603 84.3388V82.1014C535.603 81.7044 535.635 81.0489 535.654 80.6456H535.609C535.414 81.0111 535.2 81.3451 534.979 81.717L533.189 84.3451H535.603V84.3388Z" fill="var(--fill-0, white)" id="Vector_130"/>
<path d="M569.346 86.3303L569.825 85.6875C570.273 86.135 570.846 86.5572 571.754 86.5572C572.661 86.5572 573.424 85.8829 573.424 84.8241C573.424 83.7653 572.781 83.1287 571.798 83.1287C571.275 83.1287 570.941 83.2989 570.493 83.6014L569.97 83.2674L570.216 79.5931H574.042V80.4313H571.073L570.878 82.7128C571.231 82.5174 571.577 82.3913 572.044 82.3913C573.348 82.3913 574.413 83.1413 574.413 84.7925C574.413 86.4438 573.172 87.3765 571.842 87.3765C570.619 87.3765 569.869 86.8597 569.346 86.3366V86.3303Z" fill="var(--fill-0, white)" id="Vector_131"/>
<path d="M606.713 83.7085C606.713 80.633 608.093 79.4544 609.625 79.4544C610.438 79.4544 611.03 79.7947 611.459 80.2611L610.911 80.8725C610.602 80.5006 610.129 80.2737 609.656 80.2737C608.572 80.2737 607.677 81.0993 607.633 83.5321C608.125 82.9396 608.799 82.5804 609.423 82.5804C610.74 82.5804 611.598 83.3745 611.598 84.9249C611.598 86.3934 610.57 87.3765 609.348 87.3765C607.835 87.3765 606.713 86.1539 606.713 83.7148V83.7085ZM607.652 84.3199C607.778 85.8072 608.371 86.6139 609.335 86.6139C610.098 86.6139 610.671 85.9396 610.671 84.9186C610.671 83.8976 610.198 83.2989 609.259 83.2989C608.768 83.2989 608.169 83.5636 607.652 84.3199Z" fill="var(--fill-0, white)" id="Vector_132"/>
<g id="Group_53" opacity="0.6">
<path d="M385.316 59.0157C384.201 59.0157 383.381 58.3287 383.381 57.3519C383.381 56.375 384.201 55.6817 385.316 55.6817C386.432 55.6817 387.264 56.3813 387.264 57.3519C387.264 58.3224 386.438 59.0157 385.316 59.0157ZM385.316 58.3288C385.965 58.3288 386.444 57.9443 386.444 57.3519C386.444 56.7595 385.959 56.375 385.316 56.375C384.673 56.375 384.201 56.7595 384.201 57.3519C384.201 57.9443 384.673 58.3288 385.316 58.3288ZM389.564 62.085V62.7467H384.509V60.8056H388.505V60.188H384.49V59.5262H389.343V61.4295H385.335V62.085H389.564ZM389.343 59.1922H388.499V55.4296H389.343V59.1922Z" fill="var(--fill-0, white)" id="Vector_133"/>
</g>
<path d="M422.223 58.7258C421.586 58.751 420.969 58.751 420.414 58.751L420.313 58.146C421.738 58.146 423.528 58.1397 425.091 57.9758L425.147 58.5052C424.467 58.6061 423.761 58.6628 423.074 58.6943V59.7846H422.223V58.7258ZM420.849 56.6775C420.849 55.9969 421.586 55.5746 422.689 55.5746C423.792 55.5746 424.523 56.0032 424.523 56.6775C424.523 57.3519 423.786 57.7804 422.689 57.7804C421.593 57.7804 420.849 57.3519 420.849 56.6775ZM426.672 62.1795V62.7782H421.423V61.1018H425.626V60.6102H421.404V60.0304H426.458V61.6438H422.254V62.1858H426.672V62.1795ZM421.643 56.6775C421.643 57.0242 422.053 57.2195 422.689 57.2195C423.326 57.2195 423.729 57.0242 423.729 56.6775C423.729 56.3309 423.32 56.1355 422.689 56.1355C422.059 56.1355 421.643 56.3309 421.643 56.6775ZM425.614 58.9149V55.4422H426.458V59.7594H425.614V59.438H424.221V58.9149H425.614Z" fill="var(--fill-0, white)" id="Vector_134"/>
<path d="M460.088 60.7615C460.718 60.73 461.348 60.6859 461.941 60.5976L462.004 61.2216C460.422 61.4989 458.708 61.5178 457.441 61.5178L457.327 60.8245C457.895 60.8245 458.556 60.8245 459.243 60.7993V60.0808C458.424 59.9422 457.895 59.4443 457.895 58.7384C457.895 57.9002 458.613 57.3519 459.672 57.3519C460.731 57.3519 461.443 57.9002 461.443 58.7384C461.443 59.4443 460.913 59.9485 460.094 60.0808V60.7678L460.088 60.7615ZM461.859 56.9737H457.46V56.2931H459.243V55.4675H460.088V56.2931H461.859V56.9737ZM459.672 59.4569C460.252 59.4569 460.649 59.1796 460.649 58.7258C460.649 58.272 460.258 57.9884 459.672 57.9884C459.086 57.9884 458.689 58.2657 458.689 58.7258C458.689 59.1859 459.092 59.4569 459.672 59.4569ZM464.247 59.23H463.201V62.8413H462.357V55.4359H463.201V58.5304H464.247V59.23Z" fill="var(--fill-0, white)" id="Vector_135"/>
<path d="M501.186 60.2321H498.243V62.8476H497.398V60.2321H494.499V59.5451H501.186V60.2321ZM500.574 58.8518C499.345 58.6565 498.337 58.0325 497.852 57.1817C497.379 58.0451 496.352 58.6565 495.123 58.8518L494.795 58.1712C496.301 57.9569 497.398 57.0494 497.398 56.0725V55.6817H498.293V56.0725C498.293 57.0305 499.408 57.9569 500.896 58.1712L500.568 58.8518H500.574Z" fill="var(--fill-0, white)" id="Vector_136"/>
<path d="M538.282 59.1292V59.8098H531.582V59.1292H534.5V58.3035H532.433V55.7385H537.425V58.3035H535.351V59.1292H538.282ZM532.332 60.4653H537.45V62.8413H536.605V61.1459H532.326V60.4653H532.332ZM533.259 57.6292H536.593V56.4065H533.259V57.6292Z" fill="var(--fill-0, white)" id="Vector_137"/>
<path d="M575.371 58.4989V59.1859H568.672V58.4989H573.506C573.695 57.6733 573.714 57.0494 573.714 56.4884H569.516V55.8015H574.539V56.375C574.539 56.9548 574.539 57.6103 574.35 58.4989H575.371ZM569.485 60.0808H574.539V62.753H569.485V60.0808ZM570.311 62.0787H573.714V60.7489H570.311V62.0787Z" fill="var(--fill-0, white)" id="Vector_138"/>
<g id="Group_54" opacity="0.6">
<path d="M612.461 61.2783V61.9778H605.762V61.2783H608.68V59.8854H606.587V56.0032H611.648V56.6901H607.444V57.5851H611.484V58.2468H607.444V59.2111H611.711V59.8854H609.524V61.2783H612.455H612.461Z" fill="var(--fill-0, white)" id="Vector_139"/>
</g>
<path d="M387.95 127.857H384.15V127.019H389.066V127.617C387.264 129.93 386.879 131.676 386.766 134.657H385.745C385.871 131.777 386.45 129.956 387.95 127.857Z" fill="var(--fill-0, white)" id="Vector_140"/>
<path d="M421.189 132.71C421.189 131.714 421.92 131.027 422.633 130.643V130.598C422.065 130.214 421.574 129.647 421.574 128.834C421.574 127.668 422.507 126.886 423.729 126.886C425.065 126.886 425.885 127.725 425.885 128.909C425.885 129.71 425.298 130.397 424.832 130.75V130.806C425.506 131.216 426.162 131.752 426.162 132.766C426.162 133.913 425.179 134.802 423.698 134.802C422.217 134.802 421.189 133.926 421.189 132.716V132.71ZM425.229 132.741C425.229 131.745 424.265 131.393 423.149 130.951C422.525 131.348 422.078 131.916 422.078 132.621C422.078 133.46 422.771 134.065 423.717 134.065C424.662 134.065 425.229 133.516 425.229 132.735V132.741ZM425.046 128.96C425.046 128.21 424.567 127.611 423.717 127.611C422.986 127.611 422.462 128.096 422.462 128.834C422.462 129.754 423.307 130.138 424.227 130.504C424.75 130.031 425.04 129.527 425.04 128.96H425.046Z" fill="var(--fill-0, white)" id="Vector_141"/>
<path d="M458.418 133.995L458.966 133.384C459.268 133.762 459.735 133.983 460.22 133.983C461.292 133.983 462.199 133.145 462.243 130.706C461.752 131.317 461.077 131.689 460.453 131.689C459.124 131.689 458.266 130.888 458.266 129.319C458.266 127.863 459.294 126.874 460.516 126.874C462.029 126.874 463.151 128.096 463.151 130.548C463.151 133.611 461.771 134.79 460.245 134.79C459.432 134.79 458.834 134.449 458.411 133.989L458.418 133.995ZM460.611 130.964C461.102 130.964 461.726 130.655 462.218 129.924C462.092 128.443 461.487 127.655 460.516 127.655C459.766 127.655 459.187 128.317 459.187 129.325C459.187 130.334 459.659 130.964 460.611 130.964Z" fill="var(--fill-0, white)" id="Vector_142"/>
<g id="Group_55">
<path d="M492.848 133.85H494.593V128.216H493.201V127.586C493.9 127.466 494.398 127.283 494.827 127.031H495.577V133.857H497.152V134.67H492.848V133.857V133.85Z" fill="var(--fill-0, white)" id="Vector_143"/>
<path d="M498.375 130.813C498.375 128.254 499.308 126.88 500.826 126.88C502.345 126.88 503.272 128.26 503.272 130.813C503.272 133.365 502.352 134.796 500.826 134.796C499.301 134.796 498.375 133.371 498.375 130.813ZM502.32 130.813C502.32 128.575 501.721 127.661 500.833 127.661C499.944 127.661 499.333 128.575 499.333 130.813C499.333 133.05 499.932 134.014 500.833 134.014C501.734 134.014 502.32 133.05 502.32 130.813Z" fill="var(--fill-0, white)" id="Vector_144"/>
</g>
<g id="Group_56">
<path d="M529.931 133.85H531.677V128.216H530.284V127.586C530.983 127.466 531.481 127.283 531.91 127.031H532.66V133.857H534.236V134.67H529.931V133.857V133.85Z" fill="var(--fill-0, white)" id="Vector_145"/>
<path d="M535.88 133.85H537.626V128.216H536.233V127.586C536.927 127.466 537.431 127.283 537.859 127.031H538.609V133.857H540.185V134.67H535.88V133.857V133.85Z" fill="var(--fill-0, white)" id="Vector_146"/>
</g>
<g id="Group_57">
<path d="M567.021 133.85H568.766V128.216H567.374V127.586C568.073 127.466 568.571 127.283 569 127.031H569.75V133.857H571.325V134.67H567.021V133.857V133.85Z" fill="var(--fill-0, white)" id="Vector_147"/>
<path d="M572.497 134.084C574.798 131.79 576.096 130.422 576.096 129.168C576.096 128.298 575.623 127.68 574.653 127.68C574.01 127.68 573.455 128.09 573.027 128.588L572.46 128.04C573.102 127.34 573.777 126.88 574.773 126.88C576.178 126.88 577.054 127.769 577.054 129.117C577.054 130.554 575.749 131.979 573.934 133.882C574.344 133.85 574.81 133.806 575.22 133.806H577.438V134.651H572.497V134.071V134.084Z" fill="var(--fill-0, white)" id="Vector_148"/>
</g>
<g id="Group_58">
<path d="M604.104 133.85H605.85V128.216H604.457V127.586C605.156 127.466 605.654 127.283 606.083 127.031H606.833V133.857H608.408V134.67H604.104V133.857V133.85Z" fill="var(--fill-0, white)" id="Vector_149"/>
<path d="M609.417 133.731L609.908 133.088C610.369 133.567 610.967 133.989 611.856 133.989C612.745 133.989 613.45 133.441 613.45 132.584C613.45 131.67 612.82 131.071 611.005 131.071V130.321C612.625 130.321 613.179 129.691 613.179 128.884C613.179 128.147 612.663 127.674 611.85 127.674C611.219 127.674 610.658 127.996 610.224 128.443L609.7 127.832C610.293 127.277 610.986 126.88 611.9 126.88C613.217 126.88 614.181 127.573 614.181 128.821C614.181 129.741 613.614 130.334 612.789 130.63V130.674C613.709 130.901 614.446 131.575 614.446 132.621C614.446 133.983 613.324 134.796 611.932 134.796C610.696 134.796 609.927 134.279 609.417 133.724V133.731Z" fill="var(--fill-0, white)" id="Vector_150"/>
</g>
<g id="Group_59">
<path d="M381.591 181.276H383.337V175.642H381.944V175.011C382.644 174.892 383.142 174.709 383.57 174.457H384.32V181.282H385.896V182.095H381.591V181.282V181.276Z" fill="var(--fill-0, white)" id="Vector_151"/>
<path d="M390.238 179.984H386.81V179.341L390.074 174.457H391.158V179.203H392.198V179.984H391.158V182.095H390.238V179.984ZM390.238 179.203V176.965C390.238 176.568 390.27 175.913 390.289 175.509H390.245C390.049 175.875 389.835 176.209 389.614 176.581L387.824 179.209H390.238V179.203Z" fill="var(--fill-0, white)" id="Vector_152"/>
</g>
<g id="Group_60">
<path d="M418.681 181.276H420.427V175.642H419.034V175.011C419.733 174.892 420.231 174.709 420.66 174.457H421.41V181.282H422.986V182.095H418.681V181.282V181.276Z" fill="var(--fill-0, white)" id="Vector_153"/>
<path d="M423.981 181.194L424.46 180.551C424.908 180.999 425.481 181.421 426.389 181.421C427.296 181.421 428.059 180.747 428.059 179.688C428.059 178.629 427.416 177.992 426.433 177.992C425.91 177.992 425.576 178.163 425.128 178.465L424.605 178.131L424.851 174.457H428.677V175.295H425.708L425.513 177.577C425.866 177.381 426.212 177.255 426.679 177.255C427.983 177.255 429.048 178.005 429.048 179.656C429.048 181.308 427.807 182.24 426.477 182.24C425.254 182.24 424.504 181.724 423.981 181.2V181.194Z" fill="var(--fill-0, white)" id="Vector_154"/>
</g>
<g id="Group_61">
<path d="M455.764 181.276H457.51V175.642H456.117V175.011C456.817 174.892 457.315 174.709 457.743 174.457H458.493V181.282H460.069V182.095H455.764V181.282V181.276Z" fill="var(--fill-0, white)" id="Vector_155"/>
<path d="M461.348 178.566C461.348 175.49 462.728 174.312 464.26 174.312C465.073 174.312 465.665 174.652 466.094 175.119L465.546 175.73C465.237 175.358 464.764 175.131 464.291 175.131C463.207 175.131 462.313 175.957 462.268 178.39C462.76 177.797 463.434 177.438 464.058 177.438C465.376 177.438 466.233 178.232 466.233 179.782C466.233 181.251 465.205 182.234 463.983 182.234C462.47 182.234 461.348 181.011 461.348 178.572V178.566ZM462.287 179.177C462.413 180.665 463.006 181.471 463.97 181.471C464.733 181.471 465.306 180.797 465.306 179.776C465.306 178.755 464.833 178.156 463.894 178.156C463.403 178.156 462.804 178.421 462.287 179.177Z" fill="var(--fill-0, white)" id="Vector_156"/>
</g>
<g id="Group_62">
<path d="M492.848 181.276H494.593V175.642H493.201V175.011C493.9 174.892 494.398 174.709 494.827 174.457H495.577V181.282H497.152V182.095H492.848V181.282V181.276Z" fill="var(--fill-0, white)" id="Vector_157"/>
<path d="M502.182 175.289H498.381V174.451H503.297V175.049C501.495 177.362 501.11 179.108 500.997 182.089H499.976C500.102 179.209 500.682 177.387 502.182 175.289Z" fill="var(--fill-0, white)" id="Vector_158"/>
</g>
<g id="Group_63">
<path d="M529.931 181.276H531.677V175.642H530.284V175.011C530.983 174.892 531.481 174.709 531.91 174.457H532.66V181.282H534.236V182.095H529.931V181.282V181.276Z" fill="var(--fill-0, white)" id="Vector_159"/>
<path d="M535.42 180.142C535.42 179.146 536.151 178.459 536.864 178.074V178.03C536.296 177.646 535.805 177.079 535.805 176.266C535.805 175.1 536.738 174.318 537.96 174.318C539.296 174.318 540.116 175.156 540.116 176.341C540.116 177.148 539.53 177.829 539.063 178.182V178.232C539.737 178.642 540.393 179.177 540.393 180.192C540.393 181.339 539.41 182.228 537.929 182.228C536.448 182.228 535.42 181.352 535.42 180.135V180.142ZM539.46 180.173C539.46 179.177 538.496 178.824 537.38 178.383C536.756 178.78 536.309 179.348 536.309 180.053C536.309 180.892 537.002 181.497 537.948 181.497C538.893 181.497 539.46 180.948 539.46 180.167V180.173ZM539.277 176.392C539.277 175.642 538.798 175.043 537.948 175.043C537.217 175.043 536.693 175.522 536.693 176.266C536.693 177.186 537.538 177.57 538.458 177.936C538.981 177.463 539.271 176.959 539.271 176.392H539.277Z" fill="var(--fill-0, white)" id="Vector_160"/>
</g>
<g id="Group_64">
<path d="M567.021 181.276H568.766V175.642H567.374V175.011C568.073 174.892 568.571 174.709 569 174.457H569.75V181.282H571.325V182.095H567.021V181.282V181.276Z" fill="var(--fill-0, white)" id="Vector_161"/>
<path d="M572.642 181.427L573.191 180.816C573.493 181.188 573.96 181.415 574.445 181.415C575.516 181.415 576.424 180.576 576.468 178.137C575.976 178.749 575.302 179.121 574.678 179.121C573.348 179.121 572.491 178.314 572.491 176.751C572.491 175.295 573.518 174.306 574.741 174.306C576.254 174.306 577.375 175.528 577.375 177.98C577.375 181.043 575.995 182.221 574.47 182.221C573.657 182.221 573.058 181.881 572.636 181.415L572.642 181.427ZM574.842 178.396C575.333 178.396 575.957 178.087 576.449 177.356C576.323 175.875 575.718 175.087 574.747 175.087C573.997 175.087 573.418 175.749 573.418 176.757C573.418 177.766 573.89 178.396 574.842 178.396Z" fill="var(--fill-0, white)" id="Vector_162"/>
</g>
<g id="Group_65">
<path d="M603.631 181.515C605.932 179.221 607.23 177.854 607.23 176.6C607.23 175.73 606.757 175.112 605.787 175.112C605.144 175.112 604.589 175.522 604.161 176.026L603.593 175.478C604.236 174.785 604.911 174.318 605.906 174.318C607.312 174.318 608.188 175.207 608.188 176.556C608.188 177.992 606.883 179.417 605.068 181.32C605.478 181.289 605.944 181.244 606.354 181.244H608.572V182.089H603.631V181.509V181.515Z" fill="var(--fill-0, white)" id="Vector_163"/>
<path d="M609.631 178.245C609.631 175.686 610.564 174.312 612.083 174.312C613.602 174.312 614.528 175.692 614.528 178.245C614.528 180.797 613.608 182.228 612.083 182.228C610.558 182.228 609.631 180.803 609.631 178.245ZM613.576 178.245C613.576 176.007 612.978 175.093 612.089 175.093C611.2 175.093 610.589 176.001 610.589 178.245C610.589 180.488 611.188 181.446 612.089 181.446C612.99 181.446 613.576 180.482 613.576 178.245Z" fill="var(--fill-0, white)" id="Vector_164"/>
</g>
<g id="Group_66">
<path d="M381.125 228.947C383.425 226.653 384.724 225.286 384.724 224.032C384.724 223.162 384.251 222.544 383.28 222.544C382.638 222.544 382.083 222.954 381.654 223.452L381.087 222.903C381.73 222.204 382.404 221.744 383.4 221.744C384.806 221.744 385.682 222.632 385.682 223.981C385.682 225.418 384.377 226.842 382.562 228.746C382.972 228.714 383.438 228.67 383.848 228.67H386.066V229.515H381.125V228.935V228.947Z" fill="var(--fill-0, white)" id="Vector_165"/>
<path d="M387.541 228.708H389.287V223.074H387.894V222.443C388.587 222.324 389.091 222.141 389.52 221.889H390.27V228.714H391.845V229.527H387.541V228.714V228.708Z" fill="var(--fill-0, white)" id="Vector_166"/>
</g>
<g id="Group_67">
<path d="M418.208 228.947C420.509 226.653 421.807 225.286 421.807 224.032C421.807 223.162 421.334 222.544 420.364 222.544C419.721 222.544 419.166 222.954 418.738 223.452L418.17 222.903C418.813 222.204 419.488 221.744 420.483 221.744C421.889 221.744 422.765 222.632 422.765 223.981C422.765 225.418 421.46 226.842 419.645 228.746C420.055 228.714 420.521 228.67 420.931 228.67H423.149V229.515H418.208V228.935V228.947Z" fill="var(--fill-0, white)" id="Vector_167"/>
<path d="M424.151 228.947C426.452 226.653 427.75 225.286 427.75 224.032C427.75 223.162 427.277 222.544 426.307 222.544C425.664 222.544 425.109 222.954 424.681 223.452L424.114 222.903C424.756 222.204 425.431 221.744 426.427 221.744C427.832 221.744 428.708 222.632 428.708 223.981C428.708 225.418 427.403 226.842 425.588 228.746C425.998 228.714 426.464 228.67 426.874 228.67H429.093V229.515H424.151V228.935V228.947Z" fill="var(--fill-0, white)" id="Vector_168"/>
</g>
<g id="Group_68">
<path d="M455.292 228.947C457.592 226.653 458.89 225.286 458.89 224.032C458.89 223.162 458.418 222.544 457.447 222.544C456.804 222.544 456.25 222.954 455.821 223.452L455.254 222.903C455.897 222.204 456.571 221.744 457.567 221.744C458.972 221.744 459.848 222.632 459.848 223.981C459.848 225.418 458.544 226.842 456.729 228.746C457.138 228.714 457.605 228.67 458.014 228.67H460.233V229.515H455.292V228.935V228.947Z" fill="var(--fill-0, white)" id="Vector_169"/>
<path d="M461.077 228.588L461.569 227.945C462.029 228.424 462.628 228.847 463.516 228.847C464.405 228.847 465.111 228.298 465.111 227.441C465.111 226.527 464.481 225.929 462.665 225.929V225.179C464.285 225.179 464.84 224.548 464.84 223.742C464.84 223.004 464.323 222.532 463.51 222.532C462.88 222.532 462.319 222.853 461.884 223.3L461.361 222.689C461.953 222.135 462.647 221.737 463.56 221.737C464.878 221.737 465.842 222.431 465.842 223.679C465.842 224.599 465.275 225.191 464.449 225.487V225.532C465.369 225.758 466.107 226.433 466.107 227.479C466.107 228.84 464.985 229.653 463.592 229.653C462.357 229.653 461.588 229.136 461.077 228.582V228.588Z" fill="var(--fill-0, white)" id="Vector_170"/>
</g>
<g id="Group_69">
<path d="M492.375 228.947C494.675 226.653 495.974 225.286 495.974 224.032C495.974 223.162 495.501 222.544 494.53 222.544C493.888 222.544 493.333 222.954 492.904 223.452L492.337 222.903C492.98 222.204 493.654 221.744 494.65 221.744C496.056 221.744 496.932 222.632 496.932 223.981C496.932 225.418 495.627 226.842 493.812 228.746C494.222 228.714 494.688 228.67 495.098 228.67H497.316V229.515H492.375V228.935V228.947Z" fill="var(--fill-0, white)" id="Vector_171"/>
<path d="M501.495 227.416H498.066V226.773L501.331 221.889H502.415V226.634H503.455V227.416H502.415V229.527H501.495V227.416ZM501.495 226.628V224.391C501.495 223.994 501.526 223.338 501.545 222.935H501.501C501.305 223.3 501.091 223.628 500.871 224.006L499.081 226.628H501.495Z" fill="var(--fill-0, white)" id="Vector_172"/>
</g>
<g id="Group_70">
<path d="M529.465 228.947C531.765 226.653 533.063 225.286 533.063 224.032C533.063 223.162 532.591 222.544 531.62 222.544C530.977 222.544 530.423 222.954 529.994 223.452L529.427 222.903C530.07 222.204 530.744 221.744 531.74 221.744C533.145 221.744 534.021 222.632 534.021 223.981C534.021 225.418 532.717 226.842 530.902 228.746C531.311 228.714 531.778 228.67 532.187 228.67H534.406V229.515H529.465V228.935V228.947Z" fill="var(--fill-0, white)" id="Vector_173"/>
<path d="M535.238 228.626L535.717 227.983C536.164 228.431 536.738 228.853 537.645 228.853C538.553 228.853 539.315 228.179 539.315 227.12C539.315 226.061 538.672 225.424 537.689 225.424C537.166 225.424 536.832 225.595 536.385 225.897L535.862 225.563L536.107 221.889H539.933V222.727H536.964L536.769 225.008C537.122 224.813 537.469 224.687 537.935 224.687C539.24 224.687 540.305 225.437 540.305 227.088C540.305 228.739 539.063 229.672 537.733 229.672C536.511 229.672 535.761 229.155 535.238 228.632V228.626Z" fill="var(--fill-0, white)" id="Vector_174"/>
</g>
<g id="Group_71">
<path d="M566.548 228.947C568.848 226.653 570.147 225.286 570.147 224.032C570.147 223.162 569.674 222.544 568.703 222.544C568.061 222.544 567.506 222.954 567.077 223.452L566.51 222.903C567.153 222.204 567.827 221.744 568.823 221.744C570.229 221.744 571.105 222.632 571.105 223.981C571.105 225.418 569.8 226.842 567.985 228.746C568.395 228.714 568.861 228.67 569.271 228.67H571.489V229.515H566.548V228.935V228.947Z" fill="var(--fill-0, white)" id="Vector_175"/>
<path d="M572.605 225.998C572.605 222.922 573.985 221.744 575.516 221.744C576.329 221.744 576.922 222.084 577.35 222.544L576.802 223.156C576.493 222.784 576.02 222.557 575.548 222.557C574.464 222.557 573.569 223.382 573.525 225.815C574.016 225.229 574.691 224.863 575.315 224.863C576.632 224.863 577.489 225.658 577.489 227.208C577.489 228.676 576.462 229.66 575.239 229.66C573.726 229.66 572.605 228.437 572.605 225.998ZM573.544 226.609C573.67 228.097 574.262 228.903 575.226 228.903C575.989 228.903 576.562 228.229 576.562 227.208C576.562 226.187 576.09 225.588 575.151 225.588C574.659 225.588 574.06 225.853 573.544 226.603V226.609Z" fill="var(--fill-0, white)" id="Vector_176"/>
</g>
<g id="Group_72">
<path d="M603.631 228.947C605.932 226.653 607.23 225.286 607.23 224.032C607.23 223.162 606.757 222.544 605.787 222.544C605.144 222.544 604.589 222.954 604.161 223.452L603.593 222.903C604.236 222.204 604.911 221.744 605.906 221.744C607.312 221.744 608.188 222.632 608.188 223.981C608.188 225.418 606.883 226.842 605.068 228.746C605.478 228.714 605.944 228.67 606.354 228.67H608.572V229.515H603.631V228.935V228.947Z" fill="var(--fill-0, white)" id="Vector_177"/>
<path d="M613.438 222.721H609.637V221.882H614.553V222.481C612.751 224.794 612.366 226.54 612.253 229.521H611.232C611.358 226.641 611.938 224.819 613.438 222.721Z" fill="var(--fill-0, white)" id="Vector_178"/>
</g>
<g id="Group_73">
<path d="M381.125 276.373C383.425 274.079 384.724 272.711 384.724 271.457C384.724 270.587 384.251 269.97 383.28 269.97C382.638 269.97 382.083 270.379 381.654 270.884L381.087 270.335C381.73 269.642 382.404 269.176 383.4 269.176C384.806 269.176 385.682 270.064 385.682 271.413C385.682 272.85 384.377 274.274 382.562 276.178C382.972 276.146 383.438 276.102 383.848 276.102H386.066V276.947H381.125V276.367V276.373Z" fill="var(--fill-0, white)" id="Vector_179"/>
<path d="M387.081 275.005C387.081 274.01 387.812 273.323 388.524 272.938V272.894C387.957 272.51 387.465 271.942 387.465 271.129C387.465 269.963 388.398 269.182 389.621 269.182C390.957 269.182 391.776 270.02 391.776 271.205C391.776 272.012 391.19 272.692 390.724 273.045V273.096C391.398 273.505 392.053 274.041 392.053 275.056C392.053 276.203 391.07 277.091 389.589 277.091C388.108 277.091 387.081 276.215 387.081 274.999V275.005ZM391.121 275.037C391.121 274.041 390.156 273.688 389.041 273.247C388.417 273.644 387.969 274.211 387.969 274.917C387.969 275.755 388.663 276.36 389.608 276.36C390.553 276.36 391.121 275.812 391.121 275.031V275.037ZM390.938 271.255C390.938 270.505 390.459 269.907 389.608 269.907C388.877 269.907 388.354 270.386 388.354 271.129C388.354 272.049 389.198 272.434 390.118 272.799C390.642 272.327 390.931 271.823 390.931 271.255H390.938Z" fill="var(--fill-0, white)" id="Vector_180"/>
</g>
<g id="Group_74" opacity="0.2">
<path d="M383.923 324.391L384.402 323.748C384.85 324.196 385.423 324.618 386.331 324.618C387.238 324.618 388.001 323.944 388.001 322.885C388.001 321.826 387.358 321.189 386.375 321.189C385.852 321.189 385.518 321.36 385.07 321.662L384.547 321.328L384.793 317.654H388.619V318.492H385.65L385.455 320.773C385.808 320.578 386.154 320.452 386.621 320.452C387.925 320.452 388.99 321.202 388.99 322.853C388.99 324.504 387.749 325.437 386.419 325.437C385.196 325.437 384.446 324.92 383.923 324.397V324.391Z" fill="var(--fill-0, white)" id="Vector_181"/>
</g>
<g id="Group_75">
<path d="M418.208 276.373C420.509 274.079 421.807 272.711 421.807 271.457C421.807 270.587 421.334 269.97 420.364 269.97C419.721 269.97 419.166 270.379 418.738 270.884L418.17 270.335C418.813 269.642 419.488 269.176 420.483 269.176C421.889 269.176 422.765 270.064 422.765 271.413C422.765 272.85 421.46 274.274 419.645 276.178C420.055 276.146 420.521 276.102 420.931 276.102H423.149V276.946H418.208V276.367V276.373Z" fill="var(--fill-0, white)" id="Vector_182"/>
<path d="M424.303 276.291L424.851 275.68C425.154 276.052 425.62 276.278 426.105 276.278C427.177 276.278 428.084 275.44 428.128 273.001C427.637 273.613 426.962 273.984 426.338 273.984C425.009 273.984 424.151 273.178 424.151 271.615C424.151 270.159 425.179 269.169 426.401 269.169C427.914 269.169 429.036 270.392 429.036 272.844C429.036 275.907 427.656 277.085 426.13 277.085C425.317 277.085 424.719 276.745 424.296 276.278L424.303 276.291ZM426.502 273.26C426.994 273.26 427.618 272.951 428.109 272.22C427.983 270.739 427.378 269.951 426.408 269.951C425.658 269.951 425.078 270.613 425.078 271.621C425.078 272.629 425.551 273.26 426.502 273.26Z" fill="var(--fill-0, white)" id="Vector_183"/>
</g>
<g id="Group_76">
<path d="M455.134 276.02L455.626 275.377C456.086 275.856 456.684 276.278 457.573 276.278C458.462 276.278 459.168 275.73 459.168 274.873C459.168 273.966 458.537 273.36 456.722 273.36V272.61C458.342 272.61 458.897 271.98 458.897 271.174C458.897 270.436 458.38 269.963 457.567 269.963C456.937 269.963 456.376 270.285 455.941 270.732L455.418 270.121C456.004 269.566 456.703 269.169 457.611 269.169C458.928 269.169 459.892 269.869 459.892 271.111C459.892 272.031 459.325 272.623 458.5 272.919V272.963C459.42 273.19 460.157 273.865 460.157 274.911C460.157 276.272 459.029 277.085 457.636 277.085C456.407 277.085 455.632 276.568 455.121 276.014L455.134 276.02Z" fill="var(--fill-0, white)" id="Vector_184"/>
<path d="M461.292 273.108C461.292 270.549 462.224 269.176 463.743 269.176C465.262 269.176 466.188 270.556 466.188 273.108C466.188 275.661 465.268 277.091 463.743 277.091C462.218 277.091 461.292 275.667 461.292 273.108ZM465.237 273.108C465.237 270.871 464.638 269.957 463.749 269.957C462.861 269.957 462.249 270.865 462.249 273.108C462.249 275.352 462.848 276.31 463.749 276.31C464.651 276.31 465.237 275.346 465.237 273.108Z" fill="var(--fill-0, white)" id="Vector_185"/>
</g>
<g id="Group_77" opacity="0.2">
<path d="M495.822 276.14H497.568V270.505H496.175V269.875C496.869 269.755 497.373 269.573 497.801 269.321H498.551V276.146H500.127V276.959H495.822V276.146V276.14Z" fill="var(--fill-0, white)" id="Vector_186"/>
</g>
<g id="Group_78" opacity="0.2">
<path d="M532.433 276.373C534.733 274.079 536.032 272.711 536.032 271.457C536.032 270.587 535.559 269.97 534.589 269.97C533.946 269.97 533.391 270.379 532.962 270.884L532.395 270.335C533.038 269.642 533.712 269.176 534.708 269.176C536.114 269.176 536.99 270.064 536.99 271.413C536.99 272.85 535.685 274.274 533.87 276.178C534.28 276.146 534.746 276.102 535.156 276.102H537.374V276.947H532.433V276.367V276.373Z" fill="var(--fill-0, white)" id="Vector_187"/>
</g>
<g id="Group_79" opacity="0.2">
<path d="M569.359 276.02L569.85 275.377C570.31 275.856 570.909 276.278 571.798 276.278C572.686 276.278 573.392 275.73 573.392 274.873C573.392 273.966 572.762 273.36 570.947 273.36V272.61C572.567 272.61 573.121 271.98 573.121 271.174C573.121 270.436 572.605 269.963 571.792 269.963C571.161 269.963 570.6 270.285 570.166 270.732L569.642 270.121C570.229 269.566 570.928 269.169 571.836 269.169C573.153 269.169 574.117 269.869 574.117 271.111C574.117 272.031 573.55 272.623 572.724 272.919V272.963C573.644 273.19 574.382 273.865 574.382 274.911C574.382 276.272 573.26 277.085 571.867 277.085C570.632 277.085 569.863 276.568 569.353 276.014L569.359 276.02Z" fill="var(--fill-0, white)" id="Vector_188"/>
</g>
<g id="Group_80" opacity="0.2">
<path d="M609.776 274.842H606.348V274.199L609.612 269.314H610.696V274.06H611.736V274.842H610.696V276.953H609.776V274.842ZM609.776 274.06V271.823C609.776 271.426 609.808 270.77 609.827 270.367H609.782C609.587 270.732 609.373 271.066 609.152 271.438L607.362 274.066H609.776V274.06Z" fill="var(--fill-0, white)" id="Vector_189"/>
</g>
<g id="Group_81" opacity="0.2">
<path d="M421.29 321.763C421.29 318.687 422.67 317.509 424.202 317.509C425.015 317.509 425.607 317.849 426.036 318.309L425.488 318.921C425.179 318.549 424.706 318.322 424.233 318.322C423.149 318.322 422.254 319.147 422.21 321.58C422.702 320.994 423.376 320.628 424 320.628C425.317 320.628 426.175 321.423 426.175 322.973C426.175 324.441 425.147 325.425 423.925 325.425C422.412 325.425 421.29 324.202 421.29 321.763ZM422.229 322.374C422.355 323.862 422.948 324.668 423.912 324.668C424.675 324.668 425.248 323.994 425.248 322.973C425.248 321.952 424.775 321.353 423.836 321.353C423.345 321.353 422.746 321.618 422.229 322.368V322.374Z" fill="var(--fill-0, white)" id="Vector_190"/>
</g>
<g id="Group_82" opacity="0.2">
<path d="M462.123 318.486H458.323V317.647H463.239V318.246C461.436 320.559 461.052 322.305 460.939 325.286H459.918C460.044 322.406 460.623 320.584 462.123 318.486Z" fill="var(--fill-0, white)" id="Vector_191"/>
</g>
<g id="Group_83" opacity="0.2">
<path d="M495.362 323.339C495.362 322.343 496.093 321.656 496.806 321.271V321.227C496.238 320.843 495.747 320.276 495.747 319.463C495.747 318.297 496.68 317.515 497.902 317.515C499.238 317.515 500.058 318.353 500.058 319.538C500.058 320.339 499.472 321.026 499.005 321.378V321.435C499.679 321.845 500.335 322.381 500.335 323.395C500.335 324.542 499.352 325.431 497.871 325.431C496.39 325.431 495.362 324.555 495.362 323.345V323.339ZM499.402 323.37C499.402 322.374 498.438 322.021 497.322 321.58C496.698 321.977 496.251 322.544 496.251 323.25C496.251 324.089 496.944 324.694 497.89 324.694C498.835 324.694 499.402 324.145 499.402 323.364V323.37ZM499.219 319.589C499.219 318.839 498.74 318.24 497.89 318.24C497.159 318.24 496.635 318.725 496.635 319.463C496.635 320.383 497.48 320.767 498.4 321.133C498.923 320.66 499.213 320.156 499.213 319.589H499.219Z" fill="var(--fill-0, white)" id="Vector_192"/>
</g>
<g id="Group_84" opacity="0.2">
<path d="M532.584 324.624L533.133 324.013C533.435 324.391 533.902 324.612 534.387 324.612C535.458 324.612 536.366 323.773 536.41 321.334C535.918 321.946 535.244 322.318 534.62 322.318C533.29 322.318 532.433 321.517 532.433 319.948C532.433 318.492 533.46 317.503 534.683 317.503C536.196 317.503 537.317 318.725 537.317 321.177C537.317 324.24 535.937 325.418 534.412 325.418C533.599 325.418 533 325.078 532.578 324.618L532.584 324.624ZM534.784 321.593C535.275 321.593 535.899 321.284 536.391 320.553C536.265 319.072 535.66 318.284 534.689 318.284C533.939 318.284 533.359 318.946 533.359 319.954C533.359 320.963 533.832 321.593 534.784 321.593Z" fill="var(--fill-0, white)" id="Vector_193"/>
</g>
<g id="Group_85" opacity="0.2">
<path d="M567.021 324.473H568.766V318.839H567.374V318.208C568.073 318.089 568.571 317.906 569 317.654H569.75V324.479H571.325V325.292H567.021V324.479V324.473Z" fill="var(--fill-0, white)" id="Vector_194"/>
<path d="M572.548 321.441C572.548 318.883 573.481 317.509 574.999 317.509C576.518 317.509 577.445 318.889 577.445 321.441C577.445 323.994 576.525 325.425 574.999 325.425C573.474 325.425 572.548 324 572.548 321.441ZM576.493 321.441C576.493 319.204 575.894 318.29 575.006 318.29C574.117 318.29 573.506 319.204 573.506 321.441C573.506 323.679 574.105 324.643 575.006 324.643C575.907 324.643 576.493 323.679 576.493 321.441Z" fill="var(--fill-0, white)" id="Vector_195"/>
</g>
<g id="Group_86" opacity="0.2">
<path d="M604.104 324.473H605.85V318.839H604.457V318.208C605.156 318.089 605.654 317.906 606.083 317.654H606.833V324.479H608.408V325.292H604.104V324.479V324.473Z" fill="var(--fill-0, white)" id="Vector_196"/>
<path d="M610.047 324.473H611.793V318.839H610.4V318.208C611.093 318.089 611.598 317.906 612.026 317.654H612.776V324.479H614.352V325.292H610.047V324.479V324.473Z" fill="var(--fill-0, white)" id="Vector_197"/>
</g>
</g>
</g>
</g>
<defs>
<filter color-interpolation-filters="sRGB" filterUnits="userSpaceOnUse" height="373.728" id="filter0_d_0_2597" width="665" x="0" y="0">
<feFlood flood-opacity="0" result="BackgroundImageFix"/>
<feColorMatrix in="SourceAlpha" result="hardAlpha" type="matrix" values="0 0 0 0 0 0 0 0 0 0 0 0 0 0 0 0 0 0 127 0"/>
<feOffset dx="4" dy="4"/>
<feGaussianBlur stdDeviation="2"/>
<feComposite in2="hardAlpha" operator="out"/>
<feColorMatrix type="matrix" values="0 0 0 0 0 0 0 0 0 0 0 0 0 0 0 0 0 0 0.25 0"/>
<feBlend in2="BackgroundImageFix" mode="normal" result="effect1_dropShadow_0_2597"/>
<feBlend in="SourceGraphic" in2="effect1_dropShadow_0_2597" mode="normal" result="shape"/>
</filter>
<clipPath id="clip0_0_2597">
<rect fill="white" height="365.728" width="316.04"/>
</clipPath>
<clipPath id="clip1_0_2597">
<rect fill="white" height="365.728" transform="translate(340.96)" width="316.04"/>
</clipPath>
</defs>
</svg>