<?xml version="1.0" encoding="utf-8"?>
<svg xmlns="http://www.w3.org/2000/svg" fill="none" height="100%" overflow="visible" preserveAspectRatio="none" style="display: block;" viewBox="0 0 870.305 487.844" width="100%">
<g filter="url(#filter0_d_0_2927)" id="Frame 2">
<g clip-path="url(#clip0_0_2927)" id="Frame">
<g id="Layer 2">
<path d="M403.043 0H11.6095C5.19777 0 0 5.19777 0 11.6095V468.235C0 474.647 5.19777 479.844 11.6095 479.844H403.043C409.455 479.844 414.652 474.647 414.652 468.235V11.6095C414.652 5.19777 409.455 0 403.043 0Z" fill="var(--fill-0, #828E7B)" id="Vector"/>
</g>
<g id="Layer 1">
<g id="Group" opacity="0.8">
<path d="M376.144 97.3084H278.827V98.1105H376.144V97.3084Z" fill="var(--fill-0, white)" id="Vector_2"/>
</g>
<g id="Group_2" opacity="0.8">
<path d="M376.144 159.193H38.5083V159.995H376.144V159.193Z" fill="var(--fill-0, white)" id="Vector_3"/>
</g>
<g id="Group_3" opacity="0.8">
<path d="M376.144 221.077H38.5083V221.879H376.144V221.077Z" fill="var(--fill-0, white)" id="Vector_4"/>
</g>
<g id="Group_4" opacity="0.8">
<path d="M376.144 282.962H38.5083V283.764H376.144V282.962Z" fill="var(--fill-0, white)" id="Vector_5"/>
</g>
<g id="Group_5" opacity="0.8">
<path d="M376.144 344.846H38.5083V345.648H376.144V344.846Z" fill="var(--fill-0, white)" id="Vector_6"/>
</g>
<g id="Group_6" opacity="0.8">
<path d="M84.2022 406.731H38.5083V407.533H84.2022V406.731Z" fill="var(--fill-0, white)" id="Vector_7"/>
</g>
</g>
<g id="Layer 5">
<path d="M366.387 160.367C373.237 160.367 378.79 165.92 378.79 172.77C378.79 179.621 373.237 185.174 366.387 185.174H243.346C236.495 185.174 230.942 179.621 230.942 172.77C230.942 165.92 236.495 160.367 243.346 160.367H366.387Z" fill="var(--fill-0, #E35FFF)" id="Vector (Stroke)" opacity="0.5"/>
<g id="Group_7">
<path d="M245.041 199.066V200H236.061V199.066H239.972V197.379H237.152V194.187H242.858V192.856H237.127V191.946H243.974V195.088H238.252V196.469H244.189V197.379H241.096V199.066H245.041Z" fill="var(--fill-0, #AA35A5)" id="Vector_8"/>
<path d="M251.333 192.178V198.727H246.678V192.178H251.333ZM247.794 193.079V197.825H250.234V193.079H247.794ZM254.31 191.235V201.182H253.169V191.235H254.31Z" fill="var(--fill-0, #AA35A5)" id="Vector_9"/>
<path d="M265.225 199.016V199.942H256.245V199.016H260.156V197.114C258.345 196.949 257.08 195.948 257.08 194.476C257.08 192.864 258.618 191.822 260.727 191.822C262.835 191.822 264.373 192.864 264.373 194.476C264.373 195.948 263.1 196.957 261.289 197.122V199.008H265.233L265.225 199.016ZM260.727 196.238C262.199 196.238 263.265 195.56 263.265 194.485C263.265 193.41 262.199 192.732 260.727 192.732C259.255 192.732 258.18 193.41 258.18 194.485C258.18 195.56 259.247 196.238 260.727 196.238Z" fill="var(--fill-0, #AA35A5)" id="Vector_10"/>
<path d="M269.856 198.098C270.699 198.065 271.542 197.999 272.336 197.891L272.436 198.727C270.36 199.09 268.086 199.099 266.391 199.099L266.234 198.164C266.978 198.164 267.838 198.164 268.723 198.139V196.585C267.491 196.362 266.622 195.469 266.622 194.245C266.622 192.839 267.755 191.863 269.277 191.863C270.798 191.863 271.923 192.839 271.923 194.245C271.923 195.46 271.079 196.353 269.847 196.568V198.098H269.856ZM269.285 195.651C270.186 195.651 270.831 195.113 270.831 194.245C270.831 193.377 270.186 192.831 269.285 192.831C268.384 192.831 267.722 193.377 267.722 194.245C267.722 195.113 268.384 195.651 269.285 195.651ZM275.495 196.188H274.048V201.149H272.915V191.251H274.048V195.245H275.495V196.188Z" fill="var(--fill-0, #AA35A5)" id="Vector_11"/>
<path d="M284.549 196.188V197.023H287.344V199.413H281.705V200.207H287.634V201.075H280.589V198.619H286.245V197.858H280.572V197.023H283.425V196.188H279.505V195.287H288.485V196.188H284.558H284.549ZM279.952 194.046C281.771 193.906 283.061 193.236 283.293 192.434H280.341V191.541H287.675V192.434H284.698C284.93 193.236 286.212 193.906 288.039 194.046L287.692 194.906C285.972 194.766 284.599 194.146 284.004 193.236C283.408 194.146 282.061 194.757 280.324 194.906L279.96 194.046H279.952Z" fill="var(--fill-0, #AA35A5)" id="Vector_12"/>
<path d="M291.305 197.891C292.876 197.883 294.249 197.8 295.82 197.552L295.944 198.478C294.241 198.776 292.76 198.826 291.016 198.826H290.172V194.898H293.629V193.054H290.148V192.128H294.77V195.808H291.313V197.891H291.305ZM297.78 191.227V201.182H296.639V191.227H297.78Z" fill="var(--fill-0, #AA35A5)" id="Vector_13"/>
<path d="M304.254 194.774C304.064 195.923 303.179 196.692 302.013 196.692C300.707 196.692 299.764 195.717 299.764 194.311C299.764 192.905 300.707 191.921 302.013 191.921C303.179 191.921 304.056 192.69 304.238 193.84H305.106V191.458H306.156V196.982H305.106V194.774H304.246H304.254ZM302.013 195.75C302.749 195.75 303.262 195.179 303.262 194.311C303.262 193.443 302.749 192.864 302.013 192.864C301.277 192.864 300.773 193.434 300.773 194.311C300.773 195.187 301.302 195.75 302.013 195.75ZM305.313 197.709C305.313 198.892 306.661 199.967 308.571 200.248L308.157 201.116C306.611 200.885 305.371 200.157 304.75 199.148C304.139 200.157 302.882 200.885 301.335 201.116L300.905 200.248C302.824 199.975 304.18 198.9 304.18 197.709V197.412H305.313V197.709ZM308.099 197.908H307.024V191.243H308.099V197.908Z" fill="var(--fill-0, #AA35A5)" id="Vector_14"/>
<path d="M309.819 201.794C310.58 201.488 311.018 200.926 311.018 200.289C310.977 200.298 310.944 200.298 310.894 200.298C310.448 200.298 310.051 200.016 310.051 199.487C310.051 198.991 310.448 198.677 310.927 198.677C311.539 198.677 311.903 199.19 311.903 200.041C311.903 201.191 311.233 202.084 310.1 202.514L309.811 201.803L309.819 201.794Z" fill="var(--fill-0, #AA35A5)" id="Vector_15"/>
<path d="M320.304 193.773H315.508V192.864H317.344V191.516H318.46V192.864H320.304V193.773ZM319.99 196.635C319.99 198.007 319.113 198.95 317.89 198.95C316.666 198.95 315.806 198.007 315.806 196.635C315.806 195.262 316.674 194.327 317.89 194.327C319.105 194.327 319.99 195.27 319.99 196.635ZM318.989 196.635C318.989 195.824 318.543 195.27 317.89 195.27C317.236 195.27 316.79 195.816 316.79 196.635C316.79 197.453 317.236 198.007 317.89 198.007C318.543 198.007 318.989 197.47 318.989 196.635ZM321.024 191.442H322.09V200.686H321.024V195.932H320.048V194.997H321.024V191.442ZM323.992 191.243V201.166H322.917V191.243H323.992Z" fill="var(--fill-0, #AA35A5)" id="Vector_16"/>
<path d="M330.268 197.726C330.731 197.685 331.194 197.635 331.633 197.585L331.699 198.421C329.648 198.76 327.349 198.793 325.629 198.793L325.505 197.858H326.721V193.162H325.753V192.252H331.227V193.162H330.26V197.726H330.268ZM327.821 197.842C328.259 197.833 328.722 197.809 329.168 197.784V193.153H327.821V197.842ZM334.849 196.056H333.303V201.174H332.17V191.251H333.303V195.13H334.849V196.064V196.056Z" fill="var(--fill-0, #AA35A5)" id="Vector_17"/>
<path d="M341.158 195.46C341.158 197.61 340.083 198.966 338.603 198.966C337.123 198.966 336.056 197.619 336.056 195.46C336.056 193.302 337.131 191.971 338.603 191.971C340.075 191.971 341.158 193.335 341.158 195.46ZM337.14 195.46C337.14 197.023 337.743 197.949 338.603 197.949C339.463 197.949 340.075 197.015 340.075 195.46C340.075 193.906 339.472 192.988 338.603 192.988C337.735 192.988 337.14 193.922 337.14 195.46ZM343.879 191.235V201.182H342.738V191.235H343.879Z" fill="var(--fill-0, #AA35A5)" id="Vector_18"/>
<path d="M354.794 198.95V199.884H345.814V198.95H354.794ZM353.917 197.023C352.305 196.692 350.907 195.659 350.262 194.303C349.617 195.667 348.22 196.692 346.608 197.023L346.128 196.089C348.079 195.725 349.675 194.203 349.675 192.632V191.888H350.874V192.632C350.874 194.212 352.462 195.741 354.422 196.089L353.926 197.023H353.917Z" fill="var(--fill-0, #AA35A5)" id="Vector_19"/>
<path d="M364.89 199.066V200H355.91V199.066H359.821V197.197H357.018V191.996H363.799V192.922H358.167V194.121H363.575V195.014H358.167V196.312H363.89V197.213H360.962V199.082H364.89V199.066Z" fill="var(--fill-0, #AA35A5)" id="Vector_20"/>
<path d="M374.986 198.95V199.884H366.006V198.95H374.986ZM374.11 197.023C372.498 196.692 371.1 195.659 370.455 194.303C369.81 195.667 368.413 196.692 366.8 197.023L366.321 196.089C368.272 195.725 369.868 194.203 369.868 192.632V191.888H371.067V192.632C371.067 194.212 372.655 195.741 374.614 196.089L374.118 197.023H374.11Z" fill="var(--fill-0, #AA35A5)" id="Vector_21"/>
</g>
</g>
<g id="Layer 4">
<g id="Group_8">
<path d="M193.087 38.3181L194.179 36.8297C195.014 37.6649 196.064 38.4008 197.594 38.4008C199.239 38.4008 200.488 37.2928 200.488 35.4819C200.488 33.671 199.38 32.6291 197.709 32.6291C196.775 32.6291 196.221 32.9102 195.369 33.4643L194.261 32.7531L194.7 25.8155H202.1V27.7422H196.684L196.345 31.488C196.982 31.1738 197.552 30.9918 198.346 30.9918C200.785 30.9918 202.787 32.3645 202.787 35.4157C202.787 38.4669 200.43 40.2778 197.867 40.2778C195.568 40.2778 194.121 39.3434 193.087 38.3346V38.3181Z" fill="var(--fill-0, white)" id="Vector_22"/>
<path d="M209.451 31.5707C207.905 31.6286 206.417 31.6286 205.069 31.6286L204.829 30.1567C208.277 30.1567 212.602 30.1402 216.389 29.7432L216.529 31.0332C214.884 31.273 213.181 31.4136 211.51 31.488V34.1258H209.451V31.5707ZM206.119 26.6176C206.119 24.9721 207.905 23.9385 210.584 23.9385C213.263 23.9385 215.025 24.9721 215.025 26.6176C215.025 28.2631 213.238 29.2967 210.584 29.2967C207.93 29.2967 206.119 28.2631 206.119 26.6176ZM220.217 39.9223V41.3693H207.5V37.301H217.679V36.1103H207.467V34.7046H219.705V38.6158H209.526V39.9223H220.217ZM208.037 26.6176C208.037 27.4528 209.03 27.9241 210.576 27.9241C212.122 27.9241 213.098 27.4445 213.098 26.6176C213.098 25.7907 212.106 25.3111 210.576 25.3111C209.046 25.3111 208.037 25.7907 208.037 26.6176ZM217.662 32.0255V23.616H219.705V34.0679H217.662V33.2906H214.289V32.0172H217.662V32.0255Z" fill="var(--fill-0, white)" id="Vector_23"/>
</g>
<g id="Group_9" opacity="0.2">
<path d="M52.6977 113.689C55.7159 110.679 57.4193 108.885 57.4193 107.239C57.4193 106.098 56.7991 105.288 55.5257 105.288C54.6823 105.288 53.9546 105.825 53.3923 106.487L52.6481 105.768C53.4915 104.858 54.3763 104.246 55.6828 104.246C57.5268 104.246 58.6761 105.412 58.6761 107.182C58.6761 109.067 56.9645 110.936 54.583 113.433C55.1205 113.391 55.7324 113.334 56.2699 113.334H59.1805V114.442H52.6977V113.681V113.689Z" fill="var(--fill-0, white)" id="Vector_24"/>
<path d="M60.6359 109.828C60.6359 105.792 62.4467 104.246 64.4561 104.246C65.5228 104.246 66.3001 104.693 66.8623 105.304L66.143 106.107C65.7378 105.619 65.1176 105.321 64.4974 105.321C63.0752 105.321 61.901 106.404 61.8431 109.596C62.4881 108.819 63.3729 108.347 64.1915 108.347C65.9197 108.347 67.0443 109.389 67.0443 111.423C67.0443 113.35 65.6964 114.64 64.0923 114.64C62.1077 114.64 60.6359 113.036 60.6359 109.836V109.828ZM61.8762 110.63C62.0416 112.581 62.8189 113.64 64.084 113.64C65.0845 113.64 65.837 112.755 65.837 111.415C65.837 110.076 65.2168 109.29 63.9848 109.29C63.3398 109.29 62.5542 109.637 61.8762 110.63Z" fill="var(--fill-0, white)" id="Vector_25"/>
</g>
<g id="Group_10" opacity="0.2">
<path d="M101.352 113.689C104.37 110.679 106.073 108.885 106.073 107.239C106.073 106.098 105.453 105.288 104.18 105.288C103.336 105.288 102.609 105.825 102.047 106.487L101.302 105.768C102.146 104.858 103.031 104.246 104.337 104.246C106.181 104.246 107.33 105.412 107.33 107.182C107.33 109.067 105.619 110.936 103.237 113.433C103.775 113.391 104.387 113.334 104.924 113.334H107.835V114.442H101.352V113.681V113.689Z" fill="var(--fill-0, white)" id="Vector_26"/>
<path d="M114.21 105.519H109.224V104.42H115.674V105.205C113.309 108.24 112.804 110.53 112.656 114.442H111.324C111.49 110.663 112.25 108.273 114.218 105.519H114.21Z" fill="var(--fill-0, white)" id="Vector_27"/>
</g>
<g id="Group_11" opacity="0.2">
<path d="M150.006 113.689C153.024 110.679 154.728 108.885 154.728 107.239C154.728 106.098 154.108 105.288 152.834 105.288C151.991 105.288 151.263 105.825 150.701 106.487L149.957 105.768C150.8 104.858 151.685 104.246 152.991 104.246C154.835 104.246 155.985 105.412 155.985 107.182C155.985 109.067 154.273 110.936 151.891 113.433C152.429 113.391 153.041 113.334 153.578 113.334H156.489V114.442H150.006V113.681V113.689Z" fill="var(--fill-0, white)" id="Vector_28"/>
<path d="M157.82 111.887C157.82 110.58 158.779 109.679 159.714 109.174V109.116C158.97 108.612 158.325 107.868 158.325 106.801C158.325 105.271 159.548 104.246 161.153 104.246C162.906 104.246 163.981 105.346 163.981 106.9C163.981 107.959 163.212 108.852 162.6 109.315V109.381C163.484 109.919 164.344 110.621 164.344 111.953C164.344 113.458 163.054 114.624 161.111 114.624C159.168 114.624 157.82 113.474 157.82 111.878V111.887ZM163.121 111.936C163.121 110.63 161.856 110.167 160.392 109.588C159.573 110.109 158.986 110.853 158.986 111.779C158.986 112.879 159.896 113.673 161.136 113.673C162.376 113.673 163.121 112.953 163.121 111.928V111.936ZM162.881 106.975C162.881 105.991 162.252 105.205 161.136 105.205C160.177 105.205 159.491 105.834 159.491 106.809C159.491 108.017 160.599 108.521 161.806 109.001C162.492 108.381 162.873 107.719 162.873 106.975H162.881Z" fill="var(--fill-0, white)" id="Vector_29"/>
</g>
<g id="Group_12" opacity="0.2">
<path d="M198.66 113.689C201.679 110.679 203.382 108.885 203.382 107.239C203.382 106.098 202.762 105.288 201.488 105.288C200.645 105.288 199.917 105.825 199.355 106.487L198.611 105.768C199.454 104.858 200.339 104.246 201.645 104.246C203.489 104.246 204.639 105.412 204.639 107.182C204.639 109.067 202.927 110.936 200.546 113.433C201.083 113.392 201.695 113.334 202.233 113.334H205.143V114.442H198.66V113.681V113.689Z" fill="var(--fill-0, white)" id="Vector_30"/>
<path d="M206.665 113.573L207.384 112.771C207.781 113.259 208.393 113.557 209.03 113.557C210.435 113.557 211.626 112.457 211.684 109.257C211.039 110.059 210.154 110.547 209.336 110.547C207.591 110.547 206.466 109.489 206.466 107.438C206.466 105.528 207.814 104.23 209.418 104.23C211.403 104.23 212.875 105.834 212.875 109.05C212.875 113.069 211.064 114.615 209.063 114.615C207.996 114.615 207.21 114.169 206.656 113.557L206.665 113.573ZM209.542 109.596C210.187 109.596 211.006 109.191 211.651 108.232C211.485 106.288 210.692 105.255 209.418 105.255C208.434 105.255 207.673 106.123 207.673 107.446C207.673 108.769 208.294 109.596 209.542 109.596Z" fill="var(--fill-0, white)" id="Vector_31"/>
</g>
<g id="Group_13" opacity="0.2">
<path d="M247.108 113.226L247.753 112.383C248.356 113.011 249.142 113.565 250.308 113.565C251.474 113.565 252.4 112.846 252.4 111.721C252.4 110.53 251.573 109.737 249.192 109.737V108.753C251.317 108.753 252.044 107.926 252.044 106.867C252.044 105.9 251.366 105.28 250.3 105.28C249.473 105.28 248.737 105.701 248.166 106.288L247.48 105.486C248.249 104.759 249.167 104.238 250.358 104.238C252.086 104.238 253.351 105.156 253.351 106.785C253.351 107.992 252.607 108.769 251.523 109.158V109.216C252.731 109.513 253.698 110.398 253.698 111.771C253.698 113.557 252.226 114.624 250.399 114.624C248.786 114.624 247.769 113.945 247.1 113.218L247.108 113.226Z" fill="var(--fill-0, white)" id="Vector_32"/>
<path d="M255.195 109.406C255.195 106.049 256.419 104.246 258.411 104.246C260.404 104.246 261.62 106.057 261.62 109.406C261.62 112.755 260.413 114.632 258.411 114.632C256.41 114.632 255.195 112.763 255.195 109.406ZM260.363 109.406C260.363 106.47 259.577 105.271 258.411 105.271C257.246 105.271 256.443 106.462 256.443 109.406C256.443 112.35 257.229 113.606 258.411 113.606C259.594 113.606 260.363 112.341 260.363 109.406Z" fill="var(--fill-0, white)" id="Vector_33"/>
</g>
<path d="M300.492 113.383H302.782V105.991H300.955V105.164C301.865 105.007 302.526 104.767 303.088 104.436H304.072V113.391H306.14V114.458H300.492V113.391V113.383Z" fill="var(--fill-0, white)" id="Vector_34"/>
<path d="M348.534 113.689C351.552 110.679 353.256 108.885 353.256 107.239C353.256 106.098 352.636 105.288 351.362 105.288C350.519 105.288 349.791 105.825 349.229 106.487L348.485 105.768C349.328 104.858 350.213 104.246 351.519 104.246C353.363 104.246 354.513 105.412 354.513 107.182C354.513 109.067 352.801 110.936 350.42 113.433C350.957 113.391 351.569 113.334 352.106 113.334H355.017V114.442H348.534V113.681V113.689Z" fill="var(--fill-0, white)" id="Vector_35"/>
<g id="Group_14" opacity="0.6">
<path d="M58.2048 77.43C56.7412 77.43 55.6663 76.5287 55.6663 75.247C55.6663 73.9653 56.7412 73.0558 58.2048 73.0558C59.6684 73.0558 60.7599 73.9736 60.7599 75.247C60.7599 76.5204 59.6767 77.43 58.2048 77.43ZM58.2048 76.5287C59.0565 76.5287 59.6849 76.0243 59.6849 75.247C59.6849 74.4697 59.0482 73.9653 58.2048 73.9653C57.3614 73.9653 56.7412 74.4697 56.7412 75.247C56.7412 76.0243 57.3614 76.5287 58.2048 76.5287ZM63.7698 81.457V82.3252H57.1381V79.7784H62.3806V78.968H57.1133V78.0998H63.4804V80.597H58.2213V81.457H63.7698ZM63.4804 77.6615H62.3723V72.725H63.4804V77.6615Z" fill="var(--fill-0, white)" id="Vector_36"/>
</g>
<path d="M106.619 77.0496C105.784 77.0827 104.974 77.0827 104.246 77.0827L104.114 76.2889C105.983 76.2889 108.331 76.2806 110.382 76.0656L110.456 76.7602C109.563 76.8925 108.637 76.9669 107.736 77.0083V78.4388H106.619V77.0496ZM104.817 74.3622C104.817 73.4692 105.784 72.9152 107.239 72.9152C108.695 72.9152 109.646 73.4775 109.646 74.3622C109.646 75.247 108.678 75.8093 107.239 75.8093C105.801 75.8093 104.817 75.247 104.817 74.3622ZM112.457 81.581V82.3665H105.569V80.167H111.084V79.522H105.544V78.7613H112.176V80.8781H106.661V81.5893H112.457V81.581ZM105.858 74.3622C105.858 74.817 106.396 75.0734 107.231 75.0734C108.066 75.0734 108.595 74.817 108.595 74.3622C108.595 73.9075 108.058 73.6511 107.231 73.6511C106.404 73.6511 105.858 73.9075 105.858 74.3622ZM111.068 77.2977V72.7415H112.176V78.4057H111.068V77.984H109.24V77.2977H111.068Z" fill="var(--fill-0, white)" id="Vector_37"/>
<path d="M156.299 79.7205C157.126 79.6792 157.953 79.6213 158.73 79.5055L158.813 80.3241C156.737 80.688 154.488 80.7128 152.826 80.7128L152.677 79.8032C153.421 79.8032 154.289 79.8032 155.191 79.7701V78.8275C154.116 78.6455 153.413 77.9923 153.413 77.0662C153.413 75.9664 154.356 75.247 155.745 75.247C157.134 75.247 158.068 75.9664 158.068 77.0662C158.068 77.9923 157.365 78.6538 156.291 78.8275V79.7288L156.299 79.7205ZM158.622 74.7509H152.851V73.8578H155.191V72.7746H156.299V73.8578H158.622V74.7509ZM155.753 78.0088C156.514 78.0088 157.035 77.645 157.035 77.0496C157.035 76.4543 156.522 76.0822 155.753 76.0822C154.984 76.0822 154.463 76.446 154.463 77.0496C154.463 77.6533 154.992 78.0088 155.753 78.0088ZM161.756 77.7112H160.384V82.4492H159.276V72.7333H160.384V76.7933H161.756V77.7112Z" fill="var(--fill-0, white)" id="Vector_38"/>
<path d="M210.22 79.0259H206.359V82.4575H205.251V79.0259H201.447V78.1246H210.22V79.0259ZM209.418 77.215C207.806 76.9587 206.483 76.1401 205.846 75.0238C205.226 76.1566 203.878 76.9587 202.266 77.215L201.836 76.322C203.812 76.0408 205.251 74.8501 205.251 73.5684V73.0558H206.425V73.5684C206.425 74.8253 207.888 76.0408 209.84 76.322L209.41 77.215H209.418Z" fill="var(--fill-0, white)" id="Vector_39"/>
<path d="M258.891 77.5788V78.4719H250.101V77.5788H253.93V76.4956H251.218V73.1302H257.767V76.4956H255.046V77.5788H258.891ZM251.085 79.3319H257.8V82.4492H256.692V80.2249H251.077V79.3319H251.085ZM252.301 75.6109H256.675V74.0067H252.301V75.6109Z" fill="var(--fill-0, white)" id="Vector_40"/>
<path d="M307.554 76.752V77.6533H298.764V76.752H305.106C305.354 75.6687 305.371 74.8501 305.371 74.1142H299.863V73.2129H306.454V73.9653C306.454 74.7261 306.454 75.586 306.206 76.752H307.545H307.554ZM299.83 78.8275H306.462V82.3335H299.83V78.8275ZM300.914 81.4487H305.379V79.704H300.914V81.4487Z" fill="var(--fill-0, white)" id="Vector_41"/>
<g id="Group_15" opacity="0.6">
<path d="M356.216 80.3986V81.3164H347.426V80.3986H351.255V78.5711H348.509V73.4775H355.149V74.3788H349.634V75.553H354.934V76.4212H349.634V77.6863H355.232V78.5711H352.363V80.3986H356.208H356.216Z" fill="var(--fill-0, white)" id="Vector_42"/>
</g>
<path d="M56.3856 175.458L57.0306 174.614C57.6343 175.243 58.4198 175.797 59.5857 175.797C60.7516 175.797 61.6777 175.077 61.6777 173.953C61.6777 172.754 60.8509 171.968 58.4694 171.968V170.984C60.5945 170.984 61.3222 170.157 61.3222 169.099C61.3222 168.132 60.6441 167.511 59.5774 167.511C58.7506 167.511 58.0146 167.933 57.4441 168.52L56.7577 167.718C57.5268 166.99 58.4446 166.47 59.6353 166.47C61.3635 166.47 62.6287 167.379 62.6287 169.016C62.6287 170.224 61.8845 171.001 60.8012 171.39V171.447C62.0085 171.745 62.976 172.63 62.976 174.003C62.976 175.789 61.5041 176.855 59.6767 176.855C58.0642 176.855 57.0472 176.177 56.3774 175.45L56.3856 175.458Z" fill="var(--fill-0, white)" id="Vector_43"/>
<path d="M109.414 173.912H104.916V173.068L109.199 166.66H110.621V172.886H111.986V173.912H110.621V176.682H109.414V173.912ZM109.414 172.886V169.951C109.414 169.43 109.455 168.57 109.48 168.041H109.422C109.166 168.52 108.885 168.95 108.595 169.446L106.247 172.886H109.406H109.414Z" fill="var(--fill-0, white)" id="Vector_44"/>
<path d="M153.686 175.499L154.314 174.656C154.901 175.243 155.646 175.797 156.845 175.797C158.044 175.797 159.036 174.912 159.036 173.523C159.036 172.134 158.192 171.299 156.902 171.299C156.216 171.299 155.778 171.522 155.191 171.919L154.504 171.481L154.827 166.66H159.846V167.76H155.952L155.695 170.753C156.158 170.497 156.605 170.331 157.225 170.331C158.937 170.331 160.334 171.315 160.334 173.482C160.334 175.648 158.705 176.872 156.96 176.872C155.356 176.872 154.372 176.194 153.686 175.507V175.499Z" fill="var(--fill-0, white)" id="Vector_45"/>
<path d="M202.704 172.051C202.704 168.016 204.515 166.47 206.524 166.47C207.591 166.47 208.368 166.916 208.93 167.52L208.211 168.322C207.806 167.834 207.186 167.536 206.565 167.536C205.143 167.536 203.969 168.619 203.911 171.811C204.556 171.042 205.441 170.563 206.26 170.563C207.988 170.563 209.112 171.605 209.112 173.639C209.112 175.565 207.764 176.855 206.16 176.855C204.176 176.855 202.704 175.251 202.704 172.051ZM203.944 172.853C204.11 174.805 204.887 175.863 206.152 175.863C207.153 175.863 207.905 174.978 207.905 173.639C207.905 172.299 207.285 171.514 206.053 171.514C205.408 171.514 204.622 171.861 203.944 172.845V172.853Z" fill="var(--fill-0, white)" id="Vector_46"/>
<path d="M256.278 167.751H251.292V166.651H257.742V167.437C255.377 170.472 254.872 172.762 254.724 176.673H253.392C253.558 172.894 254.318 170.505 256.286 167.751H256.278Z" fill="var(--fill-0, white)" id="Vector_47"/>
<path d="M299.888 174.118C299.888 172.812 300.847 171.91 301.782 171.406V171.348C301.038 170.844 300.393 170.1 300.393 169.033C300.393 167.503 301.617 166.478 303.221 166.478C304.974 166.478 306.049 167.578 306.049 169.132C306.049 170.182 305.28 171.084 304.668 171.547V171.621C305.553 172.159 306.412 172.861 306.412 174.193C306.412 175.698 305.123 176.864 303.179 176.864C301.236 176.864 299.888 175.714 299.888 174.127V174.118ZM305.189 174.16C305.189 172.853 303.924 172.39 302.46 171.811C301.641 172.332 301.054 173.076 301.054 174.003C301.054 175.102 301.964 175.896 303.204 175.896C304.444 175.896 305.189 175.177 305.189 174.151V174.16ZM304.949 169.198C304.949 168.214 304.312 167.429 303.204 167.429C302.245 167.429 301.559 168.065 301.559 169.033C301.559 170.24 302.667 170.745 303.874 171.224C304.56 170.604 304.941 169.942 304.941 169.198H304.949Z" fill="var(--fill-0, white)" id="Vector_48"/>
<path d="M348.733 175.805L349.452 175.003C349.849 175.499 350.461 175.789 351.098 175.789C352.503 175.789 353.694 174.689 353.752 171.489C353.107 172.291 352.222 172.779 351.404 172.779C349.659 172.779 348.534 171.729 348.534 169.67C348.534 167.759 349.882 166.461 351.486 166.461C353.471 166.461 354.943 168.065 354.943 171.282C354.943 175.301 353.132 176.847 351.131 176.847C350.064 176.847 349.278 176.401 348.724 175.797L348.733 175.805ZM351.61 171.828C352.255 171.828 353.074 171.423 353.719 170.463C353.553 168.52 352.76 167.487 351.486 167.487C350.502 167.487 349.741 168.355 349.741 169.678C349.741 171.001 350.362 171.828 351.61 171.828Z" fill="var(--fill-0, white)" id="Vector_49"/>
<g id="Group_16">
<path d="M53.3096 237.838H55.6001V230.446H53.7727V229.619C54.6823 229.462 55.3438 229.222 55.9061 228.891H56.8901V237.847H58.9573V238.913H53.3096V237.847V237.838Z" fill="var(--fill-0, white)" id="Vector_50"/>
<path d="M60.5697 233.861C60.5697 230.504 61.7935 228.701 63.7863 228.701C65.7791 228.701 66.9946 230.512 66.9946 233.861C66.9946 237.21 65.7874 239.087 63.7863 239.087C61.7852 239.087 60.5697 237.218 60.5697 233.861ZM65.7378 233.861C65.7378 230.926 64.9522 229.727 63.7863 229.727C62.6204 229.727 61.8183 230.917 61.8183 233.861C61.8183 236.805 62.6039 238.062 63.7863 238.062C64.9688 238.062 65.7378 236.797 65.7378 233.861Z" fill="var(--fill-0, white)" id="Vector_51"/>
</g>
<g id="Group_17">
<path d="M101.972 237.838H104.263V230.446H102.435V229.619C103.345 229.462 104.006 229.222 104.569 228.891H105.553V237.847H107.62V238.913H101.972V237.847V237.838Z" fill="var(--fill-0, white)" id="Vector_52"/>
<path d="M109.77 237.838H112.06V230.446H110.233V229.619C111.142 229.462 111.804 229.222 112.366 228.891H113.35V237.847H115.417V238.913H109.77V237.847V237.838Z" fill="var(--fill-0, white)" id="Vector_53"/>
</g>
<g id="Group_18">
<path d="M150.626 237.838H152.917V230.446H151.089V229.619C151.999 229.462 152.66 229.222 153.223 228.891H154.207V237.847H156.274V238.913H150.626V237.847V237.838Z" fill="var(--fill-0, white)" id="Vector_54"/>
<path d="M157.812 238.153C160.83 235.143 162.534 233.348 162.534 231.703C162.534 230.562 161.913 229.751 160.64 229.751C159.797 229.751 159.069 230.289 158.507 230.95L157.762 230.231C158.606 229.321 159.491 228.71 160.797 228.71C162.641 228.71 163.79 229.876 163.79 231.645C163.79 233.53 162.079 235.399 159.697 237.896C160.235 237.855 160.847 237.797 161.384 237.797H164.295V238.905H157.812V238.144V238.153Z" fill="var(--fill-0, white)" id="Vector_55"/>
</g>
<g id="Group_19">
<path d="M199.281 237.838H201.571V230.446H199.744V229.619C200.653 229.462 201.315 229.222 201.877 228.891H202.861V237.847H204.928V238.913H199.281V237.847V237.838Z" fill="var(--fill-0, white)" id="Vector_56"/>
<path d="M206.251 237.69L206.896 236.846C207.5 237.475 208.285 238.029 209.451 238.029C210.617 238.029 211.543 237.309 211.543 236.185C211.543 234.994 210.716 234.2 208.335 234.2V233.216C210.46 233.216 211.188 232.389 211.188 231.331C211.188 230.363 210.51 229.743 209.443 229.743C208.616 229.743 207.88 230.165 207.31 230.752L206.623 229.95C207.401 229.222 208.31 228.701 209.501 228.701C211.229 228.701 212.494 229.619 212.494 231.248C212.494 232.455 211.75 233.233 210.667 233.621V233.679C211.874 233.977 212.842 234.862 212.842 236.234C212.842 238.02 211.37 239.087 209.542 239.087C207.922 239.087 206.913 238.409 206.243 237.681L206.251 237.69Z" fill="var(--fill-0, white)" id="Vector_57"/>
</g>
<g id="Group_20">
<path d="M247.935 237.838H250.225V230.446H248.398V229.619C249.307 229.462 249.969 229.222 250.531 228.891H251.515V237.847H253.582V238.913H247.935V237.847V237.838Z" fill="var(--fill-0, white)" id="Vector_58"/>
<path d="M259.28 236.143H254.781V235.3L259.065 228.891H260.487V235.118H261.851V236.143H260.487V238.913H259.28V236.143ZM259.28 235.118V232.183C259.28 231.662 259.321 230.802 259.346 230.272H259.288C259.032 230.752 258.751 231.19 258.461 231.678L256.113 235.126H259.271L259.28 235.118Z" fill="var(--fill-0, white)" id="Vector_59"/>
</g>
<g id="Group_21">
<path d="M296.597 237.838H298.888V230.446H297.06V229.619C297.97 229.462 298.631 229.222 299.194 228.891H300.178V237.847H302.245V238.913H296.597V237.847V237.838Z" fill="var(--fill-0, white)" id="Vector_60"/>
<path d="M303.551 237.731L304.18 236.888C304.767 237.475 305.519 238.029 306.71 238.029C307.901 238.029 308.901 237.144 308.901 235.755C308.901 234.365 308.058 233.53 306.768 233.53C306.082 233.53 305.643 233.754 305.056 234.151L304.37 233.712L304.693 228.891H309.712V229.991H305.817L305.561 232.985C306.024 232.728 306.47 232.563 307.091 232.563C308.802 232.563 310.2 233.547 310.2 235.713C310.2 237.88 308.571 239.104 306.826 239.104C305.222 239.104 304.238 238.426 303.551 237.739V237.731Z" fill="var(--fill-0, white)" id="Vector_61"/>
</g>
<g id="Group_22">
<path d="M345.251 237.838H347.542V230.446H345.715V229.619C346.632 229.462 347.286 229.222 347.848 228.891H348.832V237.847H350.899V238.913H345.251V237.847V237.838Z" fill="var(--fill-0, white)" id="Vector_62"/>
<path d="M352.578 234.283C352.578 230.248 354.389 228.701 356.398 228.701C357.465 228.701 358.242 229.148 358.804 229.76L358.085 230.562C357.68 230.074 357.059 229.776 356.439 229.776C355.017 229.776 353.843 230.859 353.785 234.051C354.43 233.274 355.315 232.803 356.133 232.803C357.862 232.803 358.986 233.845 358.986 235.879C358.986 237.805 357.638 239.095 356.034 239.095C354.05 239.095 352.578 237.491 352.578 234.291V234.283ZM353.81 235.085C353.975 237.036 354.752 238.095 356.018 238.095C357.018 238.095 357.771 237.21 357.771 235.87C357.771 234.531 357.15 233.745 355.918 233.745C355.273 233.745 354.488 234.093 353.81 235.085Z" fill="var(--fill-0, white)" id="Vector_63"/>
</g>
<g id="Group_23">
<path d="M53.3096 300.07H55.6001V292.678H53.7727V291.851C54.6823 291.694 55.3438 291.454 55.9061 291.123H56.8901V300.079H58.9573V301.145H53.3096V300.079V300.07Z" fill="var(--fill-0, white)" id="Vector_64"/>
<path d="M65.5559 292.215H60.5697V291.115H67.0195V291.901C64.6546 294.935 64.1501 297.226 64.0013 301.137H62.67C62.8354 297.358 63.5961 294.968 65.5641 292.215H65.5559Z" fill="var(--fill-0, white)" id="Vector_65"/>
</g>
<g id="Group_24">
<path d="M101.972 300.07H104.263V292.678H102.435V291.851C103.345 291.694 104.006 291.454 104.569 291.123H105.553V300.079H107.62V301.145H101.972V300.079V300.07Z" fill="var(--fill-0, white)" id="Vector_66"/>
<path d="M109.166 298.582C109.166 297.275 110.125 296.374 111.06 295.87V295.812C110.315 295.307 109.67 294.563 109.67 293.496C109.67 291.967 110.894 290.941 112.498 290.941C114.251 290.941 115.326 292.041 115.326 293.596C115.326 294.646 114.557 295.547 113.945 296.01V296.085C114.83 296.622 115.69 297.325 115.69 298.656C115.69 300.161 114.4 301.327 112.457 301.327C110.514 301.327 109.166 300.178 109.166 298.59V298.582ZM114.466 298.623C114.466 297.317 113.201 296.854 111.738 296.275C110.919 296.796 110.332 297.54 110.332 298.466C110.332 299.566 111.242 300.36 112.482 300.36C113.722 300.36 114.466 299.64 114.466 298.615V298.623ZM114.227 293.662C114.227 292.678 113.598 291.892 112.482 291.892C111.523 291.892 110.836 292.529 110.836 293.496C110.836 294.704 111.944 295.208 113.152 295.688C113.838 295.068 114.218 294.406 114.218 293.662H114.227Z" fill="var(--fill-0, white)" id="Vector_67"/>
</g>
<g id="Group_25">
<path d="M150.626 300.07H152.917V292.678H151.089V291.851C151.999 291.694 152.66 291.454 153.223 291.123H154.207V300.079H156.274V301.145H150.626V300.079V300.07Z" fill="var(--fill-0, white)" id="Vector_68"/>
<path d="M158.002 300.269L158.722 299.467C159.118 299.963 159.73 300.252 160.367 300.252C161.773 300.252 162.964 299.152 163.021 295.952C162.376 296.754 161.492 297.242 160.673 297.242C158.928 297.242 157.804 296.192 157.804 294.133C157.804 292.223 159.152 290.925 160.756 290.925C162.74 290.925 164.212 292.529 164.212 295.746C164.212 299.764 162.401 301.311 160.4 301.311C159.333 301.311 158.548 300.864 157.994 300.26L158.002 300.269ZM160.888 296.291C161.533 296.291 162.352 295.886 162.997 294.927C162.831 292.984 162.037 291.95 160.764 291.95C159.78 291.95 159.019 292.818 159.019 294.141C159.019 295.464 159.639 296.291 160.888 296.291Z" fill="var(--fill-0, white)" id="Vector_69"/>
</g>
<g id="Group_26">
<path d="M198.66 300.384C201.679 297.375 203.382 295.58 203.382 293.935C203.382 292.794 202.762 291.983 201.488 291.983C200.645 291.983 199.917 292.521 199.355 293.174L198.611 292.455C199.454 291.537 200.339 290.933 201.645 290.933C203.489 290.933 204.639 292.099 204.639 293.869C204.639 295.754 202.927 297.623 200.546 300.12C201.083 300.078 201.695 300.021 202.233 300.021H205.143V301.129H198.66V300.368V300.384Z" fill="var(--fill-0, white)" id="Vector_70"/>
<path d="M206.532 296.093C206.532 292.736 207.756 290.933 209.749 290.933C211.742 290.933 212.957 292.744 212.957 296.093C212.957 299.442 211.75 301.319 209.749 301.319C207.748 301.319 206.532 299.45 206.532 296.093ZM211.709 296.093C211.709 293.157 210.923 291.958 209.757 291.958C208.591 291.958 207.789 293.157 207.789 296.093C207.789 299.028 208.575 300.293 209.757 300.293C210.94 300.293 211.709 299.028 211.709 296.093Z" fill="var(--fill-0, white)" id="Vector_71"/>
</g>
<g id="Group_27">
<path d="M247.323 300.384C250.341 297.375 252.044 295.58 252.044 293.935C252.044 292.794 251.424 291.983 250.151 291.983C249.307 291.983 248.58 292.521 248.017 293.174L247.273 292.455C248.117 291.537 249.001 290.933 250.308 290.933C252.152 290.933 253.301 292.099 253.301 293.869C253.301 295.754 251.59 297.623 249.208 300.12C249.746 300.078 250.358 300.021 250.895 300.021H253.806V301.129H247.323V300.368V300.384Z" fill="var(--fill-0, white)" id="Vector_72"/>
<path d="M255.741 300.07H258.031V292.678H256.204V291.851C257.113 291.694 257.775 291.454 258.337 291.123H259.321V300.079H261.388V301.145H255.741V300.079V300.07Z" fill="var(--fill-0, white)" id="Vector_73"/>
</g>
<g id="Group_28">
<path d="M295.977 300.384C298.995 297.375 300.699 295.58 300.699 293.935C300.699 292.794 300.078 291.983 298.805 291.983C297.962 291.983 297.234 292.521 296.672 293.174L295.927 292.455C296.771 291.537 297.656 290.933 298.962 290.933C300.806 290.933 301.956 292.099 301.956 293.869C301.956 295.754 300.244 297.623 297.862 300.12C298.4 300.078 299.012 300.021 299.549 300.021H302.46V301.129H295.977V300.368V300.384Z" fill="var(--fill-0, white)" id="Vector_74"/>
<path d="M303.775 300.384C306.793 297.375 308.496 295.58 308.496 293.935C308.496 292.794 307.876 291.983 306.603 291.983C305.759 291.983 305.032 292.521 304.469 293.174L303.725 292.455C304.568 291.537 305.453 290.933 306.76 290.933C308.604 290.933 309.753 292.099 309.753 293.869C309.753 295.754 308.041 297.623 305.66 300.12C306.197 300.078 306.809 300.021 307.347 300.021H310.257V301.129H303.775V300.368V300.384Z" fill="var(--fill-0, white)" id="Vector_75"/>
</g>
<g id="Group_29">
<path d="M344.631 300.384C347.649 297.375 349.353 295.58 349.353 293.935C349.353 292.794 348.733 291.983 347.459 291.983C346.616 291.983 345.888 292.521 345.326 293.174L344.582 292.455C345.425 291.537 346.31 290.933 347.616 290.933C349.46 290.933 350.61 292.099 350.61 293.869C350.61 295.754 348.898 297.623 346.517 300.12C347.054 300.079 347.666 300.021 348.204 300.021H351.114V301.129H344.631V300.368V300.384Z" fill="var(--fill-0, white)" id="Vector_76"/>
<path d="M352.222 299.913L352.867 299.07C353.471 299.698 354.256 300.252 355.422 300.252C356.588 300.252 357.514 299.533 357.514 298.408C357.514 297.209 356.687 296.424 354.306 296.424V295.44C356.431 295.44 357.159 294.613 357.159 293.554C357.159 292.587 356.481 291.967 355.414 291.967C354.587 291.967 353.851 292.388 353.281 292.976L352.594 292.173C353.372 291.446 354.281 290.925 355.48 290.925C357.208 290.925 358.473 291.834 358.473 293.472C358.473 294.679 357.729 295.456 356.646 295.845V295.903C357.853 296.2 358.821 297.085 358.821 298.458C358.821 300.244 357.349 301.311 355.521 301.311C353.901 301.311 352.892 300.633 352.222 299.905V299.913Z" fill="var(--fill-0, white)" id="Vector_77"/>
</g>
<g id="Group_30">
<path d="M52.6977 362.608C55.7159 359.598 57.4193 357.804 57.4193 356.158C57.4193 355.017 56.7991 354.207 55.5257 354.207C54.6823 354.207 53.9546 354.744 53.3923 355.406L52.6481 354.686C53.4915 353.777 54.3763 353.165 55.6828 353.165C57.5268 353.165 58.6761 354.331 58.6761 356.1C58.6761 357.986 56.9645 359.854 54.583 362.352C55.1205 362.31 55.7324 362.252 56.2699 362.252H59.1805V363.36H52.6977V362.6V362.608Z" fill="var(--fill-0, white)" id="Vector_78"/>
<path d="M64.6546 360.599H60.1563V359.755L64.4396 353.347H65.8618V359.573H67.2262V360.599H65.8618V363.369H64.6546V360.599ZM64.6546 359.573V356.638C64.6546 356.117 64.6959 355.257 64.7207 354.728H64.6628C64.4065 355.207 64.1253 355.646 63.8359 356.133L61.4876 359.582H64.6463L64.6546 359.573Z" fill="var(--fill-0, white)" id="Vector_79"/>
</g>
<g id="Group_31">
<path d="M52.4827 425.567L53.1277 424.724C53.7313 425.352 54.5169 425.906 55.6828 425.906C56.8487 425.906 57.7748 425.187 57.7748 424.062C57.7748 422.863 56.9479 422.078 54.5665 422.078V421.094C56.6916 421.094 57.4193 420.267 57.4193 419.209C57.4193 418.241 56.7412 417.621 55.6745 417.621C54.8476 417.621 54.1117 418.043 53.5411 418.63L52.8548 417.828C53.6238 417.1 54.5417 416.579 55.7324 416.579C57.4606 416.579 58.7257 417.489 58.7257 419.126C58.7257 420.333 57.9815 421.11 56.8983 421.499V421.557C58.1056 421.855 59.073 422.739 59.073 424.112C59.073 425.898 57.6012 426.965 55.7737 426.965C54.1613 426.965 53.1442 426.287 52.4745 425.559L52.4827 425.567Z" fill="var(--fill-0, white)" id="Vector_80"/>
<path d="M61.1155 425.716H63.4059V418.324H61.5785V417.497C62.4881 417.34 63.1496 417.1 63.7119 416.769H64.6959V425.724H66.7631V426.791H61.1155V425.724V425.716Z" fill="var(--fill-0, white)" id="Vector_81"/>
</g>
<g id="Group_32">
<path d="M101.352 362.608C104.37 359.598 106.073 357.804 106.073 356.158C106.073 355.017 105.453 354.207 104.18 354.207C103.336 354.207 102.609 354.744 102.047 355.406L101.302 354.686C102.146 353.777 103.031 353.165 104.337 353.165C106.181 353.165 107.33 354.331 107.33 356.1C107.33 357.986 105.619 359.854 103.237 362.352C103.775 362.31 104.387 362.252 104.924 362.252H107.835V363.36H101.352V362.6V362.608Z" fill="var(--fill-0, white)" id="Vector_82"/>
<path d="M108.926 362.186L109.555 361.343C110.142 361.93 110.894 362.484 112.085 362.484C113.276 362.484 114.276 361.599 114.276 360.21C114.276 358.821 113.433 357.986 112.143 357.986C111.457 357.986 111.018 358.209 110.431 358.606L109.745 358.168L110.067 353.347H115.087V354.447H111.192L110.936 357.44C111.399 357.184 111.845 357.018 112.465 357.018C114.177 357.018 115.574 358.002 115.574 360.169C115.574 362.335 113.945 363.559 112.201 363.559C110.597 363.559 109.613 362.881 108.926 362.194V362.186Z" fill="var(--fill-0, white)" id="Vector_83"/>
</g>
<g id="Group_33">
<path d="M150.006 362.608C153.024 359.598 154.728 357.804 154.728 356.158C154.728 355.017 154.108 354.207 152.834 354.207C151.991 354.207 151.263 354.744 150.701 355.406L149.957 354.686C150.8 353.777 151.685 353.165 152.991 353.165C154.835 353.165 155.985 354.331 155.985 356.1C155.985 357.986 154.273 359.854 151.891 362.352C152.429 362.31 153.041 362.252 153.578 362.252H156.489V363.36H150.006V362.6V362.608Z" fill="var(--fill-0, white)" id="Vector_84"/>
<path d="M157.953 358.746C157.953 354.711 159.763 353.165 161.773 353.165C162.839 353.165 163.617 353.611 164.179 354.223L163.46 355.025C163.054 354.537 162.434 354.24 161.814 354.24C160.392 354.24 159.218 355.323 159.16 358.515C159.805 357.738 160.69 357.266 161.508 357.266C163.236 357.266 164.361 358.308 164.361 360.342C164.361 362.269 163.013 363.559 161.409 363.559C159.424 363.559 157.953 361.955 157.953 358.755V358.746ZM159.185 359.548C159.35 361.5 160.127 362.558 161.392 362.558C162.393 362.558 163.145 361.674 163.145 360.334C163.145 358.994 162.525 358.209 161.293 358.209C160.648 358.209 159.863 358.556 159.185 359.548Z" fill="var(--fill-0, white)" id="Vector_85"/>
</g>
<g id="Group_34">
<path d="M198.66 362.608C201.679 359.598 203.382 357.804 203.382 356.158C203.382 355.017 202.762 354.207 201.488 354.207C200.645 354.207 199.917 354.744 199.355 355.406L198.611 354.686C199.454 353.777 200.339 353.165 201.645 353.165C203.489 353.165 204.639 354.331 204.639 356.1C204.639 357.986 202.927 359.854 200.546 362.352C201.083 362.31 201.695 362.252 202.233 362.252H205.143V363.36H198.66V362.6V362.608Z" fill="var(--fill-0, white)" id="Vector_86"/>
<path d="M211.527 354.447H206.541V353.347H212.99V354.132C210.625 357.167 210.121 359.457 209.972 363.369H208.641C208.806 359.59 209.567 357.2 211.535 354.447H211.527Z" fill="var(--fill-0, white)" id="Vector_87"/>
</g>
<g id="Group_35">
<path d="M247.323 362.608C250.341 359.598 252.044 357.804 252.044 356.158C252.044 355.017 251.424 354.207 250.151 354.207C249.307 354.207 248.58 354.744 248.017 355.406L247.273 354.686C248.117 353.777 249.001 353.165 250.308 353.165C252.152 353.165 253.301 354.331 253.301 356.1C253.301 357.986 251.59 359.854 249.208 362.352C249.746 362.31 250.358 362.252 250.895 362.252H253.806V363.36H247.323V362.6V362.608Z" fill="var(--fill-0, white)" id="Vector_88"/>
<path d="M255.137 360.814C255.137 359.507 256.096 358.606 257.031 358.101V358.043C256.286 357.539 255.641 356.795 255.641 355.728C255.641 354.198 256.865 353.173 258.469 353.173C260.222 353.173 261.297 354.273 261.297 355.827C261.297 356.886 260.528 357.779 259.916 358.242V358.308C260.801 358.846 261.661 359.548 261.661 360.88C261.661 362.385 260.371 363.551 258.428 363.551C256.485 363.551 255.137 362.401 255.137 360.805V360.814ZM260.437 360.855C260.437 359.548 259.172 359.085 257.709 358.507C256.89 359.027 256.303 359.772 256.303 360.698C256.303 361.798 257.212 362.591 258.453 362.591C259.693 362.591 260.437 361.872 260.437 360.847V360.855ZM260.198 355.894C260.198 354.91 259.569 354.124 258.453 354.124C257.494 354.124 256.807 354.752 256.807 355.728C256.807 356.935 257.915 357.44 259.123 357.919C259.809 357.299 260.189 356.638 260.189 355.894H260.198Z" fill="var(--fill-0, white)" id="Vector_89"/>
</g>
<g id="Group_36">
<path d="M295.977 362.608C298.995 359.598 300.699 357.804 300.699 356.158C300.699 355.017 300.078 354.207 298.805 354.207C297.962 354.207 297.234 354.744 296.672 355.406L295.927 354.686C296.771 353.777 297.656 353.165 298.962 353.165C300.806 353.165 301.956 354.331 301.956 356.1C301.956 357.986 300.244 359.854 297.862 362.352C298.4 362.31 299.012 362.252 299.549 362.252H302.46V363.36H295.977V362.6V362.608Z" fill="var(--fill-0, white)" id="Vector_90"/>
<path d="M303.973 362.5L304.693 361.698C305.089 362.186 305.701 362.484 306.338 362.484C307.744 362.484 308.934 361.384 308.992 358.184C308.347 358.986 307.463 359.474 306.644 359.474C304.899 359.474 303.775 358.416 303.775 356.365C303.775 354.455 305.123 353.157 306.727 353.157C308.711 353.157 310.183 354.761 310.183 357.977C310.183 361.996 308.372 363.542 306.371 363.542C305.304 363.542 304.519 363.096 303.965 362.484L303.973 362.5ZM306.859 358.523C307.504 358.523 308.323 358.118 308.968 357.159C308.802 355.216 308.008 354.182 306.735 354.182C305.751 354.182 304.99 355.05 304.99 356.373C304.99 357.696 305.61 358.523 306.859 358.523Z" fill="var(--fill-0, white)" id="Vector_91"/>
</g>
<g id="Group_37">
<path d="M344.425 362.145L345.07 361.301C345.673 361.93 346.459 362.484 347.625 362.484C348.791 362.484 349.717 361.765 349.717 360.64C349.717 359.449 348.89 358.655 346.508 358.655V357.671C348.633 357.671 349.361 356.845 349.361 355.786C349.361 354.819 348.683 354.198 347.616 354.198C346.79 354.198 346.054 354.62 345.483 355.207L344.797 354.405C345.566 353.678 346.484 353.157 347.674 353.157C349.402 353.157 350.668 354.074 350.668 355.703C350.668 356.911 349.923 357.688 348.84 358.077V358.134C350.047 358.432 351.015 359.317 351.015 360.69C351.015 362.476 349.535 363.542 347.707 363.542C346.095 363.542 345.078 362.864 344.408 362.137L344.425 362.145Z" fill="var(--fill-0, white)" id="Vector_92"/>
<path d="M352.503 358.325C352.503 354.967 353.727 353.165 355.72 353.165C357.713 353.165 358.928 354.976 358.928 358.325C358.928 361.674 357.721 363.551 355.72 363.551C353.719 363.551 352.503 361.682 352.503 358.325ZM357.68 358.325C357.68 355.389 356.894 354.19 355.728 354.19C354.562 354.19 353.76 355.381 353.76 358.325C353.76 361.268 354.546 362.525 355.728 362.525C356.911 362.525 357.68 361.26 357.68 358.325Z" fill="var(--fill-0, white)" id="Vector_93"/>
</g>
<g id="Group_38" opacity="0.2">
<path d="M105.867 425.716H108.157V418.324H106.33V417.497C107.239 417.34 107.901 417.1 108.463 416.769H109.447V425.724H111.514V426.791H105.867V425.724V425.716Z" fill="var(--fill-0, white)" id="Vector_94"/>
</g>
<g id="Group_39" opacity="0.2">
<path d="M153.909 426.03C156.927 423.021 158.631 421.226 158.631 419.581C158.631 418.44 158.01 417.629 156.737 417.629C155.894 417.629 155.166 418.167 154.604 418.82L153.859 418.101C154.703 417.183 155.588 416.579 156.894 416.579C158.738 416.579 159.887 417.745 159.887 419.515C159.887 421.4 158.176 423.269 155.794 425.766C156.332 425.724 156.944 425.667 157.481 425.667H160.392V426.775H153.909V426.014V426.03Z" fill="var(--fill-0, white)" id="Vector_95"/>
</g>
<g id="Group_40" opacity="0.2">
<path d="M202.357 425.567L203.002 424.724C203.605 425.352 204.391 425.906 205.557 425.906C206.723 425.906 207.649 425.187 207.649 424.062C207.649 422.863 206.822 422.078 204.44 422.078V421.094C206.565 421.094 207.293 420.267 207.293 419.209C207.293 418.241 206.615 417.621 205.548 417.621C204.721 417.621 203.986 418.043 203.415 418.63L202.729 417.828C203.498 417.1 204.416 416.579 205.606 416.579C207.334 416.579 208.6 417.489 208.6 419.126C208.6 420.333 207.855 421.11 206.772 421.499V421.557C207.979 421.855 208.947 422.739 208.947 424.112C208.947 425.898 207.475 426.965 205.648 426.965C204.035 426.965 203.018 426.287 202.348 425.559L202.357 425.567Z" fill="var(--fill-0, white)" id="Vector_96"/>
</g>
<g id="Group_41" opacity="0.2">
<path d="M255.385 424.021H250.887V423.178L255.17 416.769H256.592V422.996H257.957V424.021H256.592V426.791H255.385V424.021ZM255.385 422.996V420.06C255.385 419.539 255.426 418.679 255.451 418.15H255.393C255.137 418.63 254.856 419.06 254.566 419.556L252.218 422.996H255.377H255.385Z" fill="var(--fill-0, white)" id="Vector_97"/>
</g>
<g id="Group_42" opacity="0.2">
<path d="M299.648 425.609L300.277 424.765C300.864 425.352 301.608 425.906 302.807 425.906C304.006 425.906 304.998 425.022 304.998 423.632C304.998 422.243 304.155 421.408 302.865 421.408C302.179 421.408 301.741 421.631 301.153 422.028L300.467 421.59L300.79 416.769H305.809V417.869H301.914L301.658 420.862C302.121 420.606 302.567 420.441 303.188 420.441C304.899 420.441 306.297 421.425 306.297 423.591C306.297 425.758 304.668 426.981 302.923 426.981C301.319 426.981 300.335 426.303 299.648 425.617V425.609Z" fill="var(--fill-0, white)" id="Vector_98"/>
</g>
<g id="Group_43" opacity="0.2">
<path d="M348.675 422.161C348.675 418.125 350.486 416.579 352.495 416.579C353.562 416.579 354.339 417.026 354.901 417.629L354.182 418.431C353.777 417.943 353.157 417.646 352.536 417.646C351.114 417.646 349.94 418.729 349.882 421.921C350.527 421.152 351.412 420.672 352.23 420.672C353.959 420.672 355.083 421.714 355.083 423.748C355.083 425.675 353.735 426.965 352.131 426.965C350.147 426.965 348.675 425.361 348.675 422.161ZM349.907 422.963C350.072 424.914 350.85 425.973 352.115 425.973C353.115 425.973 353.868 425.088 353.868 423.748C353.868 422.409 353.248 421.623 352.015 421.623C351.37 421.623 350.585 421.97 349.907 422.954V422.963Z" fill="var(--fill-0, white)" id="Vector_99"/>
</g>
</g>
</g>
<g clip-path="url(#clip1_0_2927)" id="Frame_2">
<g id="Layer 2_2">
<path d="M850.695 0H459.262C452.85 0 447.652 5.19777 447.652 11.6095V468.235C447.652 474.647 452.85 479.844 459.262 479.844H850.695C857.107 479.844 862.305 474.647 862.305 468.235V11.6095C862.305 5.19777 857.107 0 850.695 0Z" fill="var(--fill-0, #828E7B)" id="Vector_100"/>
</g>
<g id="Layer 1_2">
<g id="Group_44" opacity="0.8">
<path d="M823.796 97.3084H531.871V98.1105H823.796V97.3084Z" fill="var(--fill-0, white)" id="Vector_101"/>
</g>
<g id="Group_45" opacity="0.8">
<path d="M823.796 159.193H486.161V159.995H823.796V159.193Z" fill="var(--fill-0, white)" id="Vector_102"/>
</g>
<g id="Group_46" opacity="0.8">
<path d="M823.796 221.077H486.161V221.879H823.796V221.077Z" fill="var(--fill-0, white)" id="Vector_103"/>
</g>
<g id="Group_47" opacity="0.8">
<path d="M823.796 282.962H486.161V283.764H823.796V282.962Z" fill="var(--fill-0, white)" id="Vector_104"/>
</g>
<g id="Group_48" opacity="0.8">
<path d="M630.089 344.846H486.161V345.648H630.089V344.846Z" fill="var(--fill-0, white)" id="Vector_105"/>
</g>
</g>
<g id="Layer 5_2">
<path d="M814.908 98.2924C821.758 98.2925 827.311 103.846 827.311 110.696C827.311 117.546 821.758 123.099 814.908 123.099H691.874C685.024 123.099 679.471 117.546 679.471 110.696C679.471 103.846 685.024 98.2924 691.874 98.2924H814.908Z" fill="var(--fill-0, #5FFF8C)" id="Vector (Stroke)_2" opacity="0.5"/>
<path d="M814.907 160.367C821.758 160.367 827.311 165.92 827.311 172.77C827.311 179.621 821.758 185.174 814.907 185.174H691.874C685.024 185.174 679.471 179.621 679.471 172.77C679.471 165.92 685.024 160.367 691.874 160.367H814.907Z" fill="var(--fill-0, #FFE05C)" id="Vector (Stroke)_3" opacity="0.5"/>
<g id="Group_49">
<path d="M714.432 135.718V136.652H705.452V135.718H709.363V134.031H706.543V130.839H712.249V129.508H706.519V128.598H713.365V131.74H707.643V133.121H713.58V134.031H710.488V135.718H714.432Z" fill="var(--fill-0, #5FFF8C)" id="Vector_106"/>
<path d="M720.725 128.838V135.387H716.069V128.838H720.725ZM717.185 129.731V134.477H719.625V129.731H717.185ZM723.701 127.887V137.834H722.56V127.887H723.701Z" fill="var(--fill-0, #5FFF8C)" id="Vector_107"/>
<path d="M734.625 135.676V136.602H725.645V135.676H729.556V133.774C727.745 133.609 726.48 132.608 726.48 131.137C726.48 129.524 728.018 128.482 730.126 128.482C732.235 128.482 733.773 129.524 733.773 131.137C733.773 132.608 732.5 133.617 730.689 133.783V135.668H734.633L734.625 135.676ZM730.118 132.898C731.59 132.898 732.657 132.22 732.657 131.145C732.657 130.07 731.59 129.392 730.118 129.392C728.646 129.392 727.571 130.07 727.571 131.145C727.571 132.22 728.638 132.898 730.118 132.898Z" fill="var(--fill-0, #5FFF8C)" id="Vector_108"/>
<path d="M739.247 134.75C740.09 134.717 740.934 134.651 741.728 134.543L741.827 135.378C739.751 135.742 737.477 135.751 735.774 135.751L735.617 134.816C736.361 134.816 737.221 134.816 738.106 134.791V133.237C736.874 133.014 736.006 132.121 736.006 130.897C736.006 129.491 737.138 128.515 738.66 128.515C740.181 128.515 741.306 129.491 741.306 130.897C741.306 132.112 740.462 133.005 739.23 133.22V134.75H739.247ZM738.676 132.302C739.578 132.302 740.223 131.765 740.223 130.897C740.223 130.028 739.578 129.483 738.676 129.483C737.775 129.483 737.122 130.028 737.122 130.897C737.122 131.765 737.783 132.302 738.676 132.302ZM744.895 132.84H743.448V137.801H742.315V127.903H743.448V131.897H744.895V132.84Z" fill="var(--fill-0, #5FFF8C)" id="Vector_109"/>
<path d="M753.941 132.84V133.675H756.736V136.065H751.096V136.859H757.025V137.727H749.98V135.271H755.636V134.51H749.963V133.675H752.816V132.84H748.897V131.939H757.877V132.84H753.949H753.941ZM749.343 130.698C751.162 130.558 752.452 129.888 752.684 129.086H749.732V128.193H757.066V129.086H754.09C754.321 129.888 755.603 130.558 757.43 130.698L757.083 131.558C755.363 131.418 753.99 130.798 753.395 129.888C752.8 130.798 751.452 131.409 749.715 131.558L749.352 130.698H749.343Z" fill="var(--fill-0, #5FFF8C)" id="Vector_110"/>
<path d="M760.696 134.543C762.268 134.535 763.64 134.452 765.211 134.204L765.335 135.13C763.632 135.428 762.152 135.478 760.407 135.478H759.564V131.55H763.02V129.706H759.539V128.78H764.161V132.46H760.705V134.543H760.696ZM767.171 127.879V137.834H766.03V127.879H767.171Z" fill="var(--fill-0, #5FFF8C)" id="Vector_111"/>
<path d="M773.646 131.426C773.455 132.575 772.571 133.344 771.405 133.344C770.098 133.344 769.156 132.369 769.156 130.963C769.156 129.557 770.098 128.573 771.405 128.573C772.571 128.573 773.447 129.342 773.637 130.492H774.505V128.11H775.556V133.634H774.505V131.426H773.646ZM771.405 132.402C772.141 132.402 772.653 131.831 772.653 130.963C772.653 130.095 772.141 129.516 771.405 129.516C770.669 129.516 770.164 130.086 770.164 130.963C770.164 131.839 770.694 132.402 771.405 132.402ZM774.704 134.37C774.704 135.552 776.052 136.627 777.962 136.908L777.548 137.776C776.002 137.545 774.762 136.817 774.142 135.808C773.53 136.817 772.273 137.545 770.727 137.776L770.297 136.908C772.215 136.635 773.571 135.56 773.571 134.37V134.072H774.704V134.37ZM777.491 134.568H776.416V127.903H777.491V134.568Z" fill="var(--fill-0, #5FFF8C)" id="Vector_112"/>
<path d="M787.438 132.129C787.438 134.27 786.371 135.618 784.891 135.618C783.411 135.618 782.344 134.27 782.344 132.129C782.344 129.987 783.411 128.631 784.891 128.631C786.371 128.631 787.438 129.995 787.438 132.129ZM786.355 132.129C786.355 130.583 785.751 129.648 784.891 129.648C784.031 129.648 783.428 130.583 783.428 132.129C783.428 133.675 784.023 134.609 784.891 134.609C785.759 134.609 786.355 133.675 786.355 132.129ZM791.482 132.708H789.935V137.826H788.802V127.903H789.935V131.781H791.482V132.716V132.708Z" fill="var(--fill-0, #5FFF8C)" id="Vector_113"/>
<path d="M798.568 132.41C796.989 132.741 795.517 132.856 793.772 132.856H792.945V128.466H794.078V131.914C795.649 131.906 796.989 131.79 798.436 131.5L798.568 132.41ZM794.02 133.94H800.52V137.694H794.02V133.94ZM795.145 136.784H799.411V134.841H795.145V136.784ZM800.52 127.903V133.493H799.378V127.903H800.52Z" fill="var(--fill-0, #5FFF8C)" id="Vector_114"/>
</g>
<g id="Group_50">
<path d="M721.7 199.066V200H712.72V199.066H716.631V197.379H713.812V194.187H719.517V192.856H713.787V191.946H720.634V195.088H714.912V196.469H720.849V197.379H717.756V199.066H721.7Z" fill="var(--fill-0, #FFE05C)" id="Vector_115"/>
<path d="M728.001 192.178V198.727H723.346V192.178H728.001ZM724.454 193.079V197.825H726.893V193.079H724.454ZM730.97 191.235V201.182H729.829V191.235H730.97Z" fill="var(--fill-0, #FFE05C)" id="Vector_116"/>
<path d="M741.893 199.016V199.942H732.913V199.016H736.824V197.114C735.013 196.949 733.748 195.948 733.748 194.476C733.748 192.864 735.286 191.822 737.395 191.822C739.503 191.822 741.041 192.864 741.041 194.476C741.041 195.948 739.768 196.957 737.957 197.122V199.008H741.901L741.893 199.016ZM737.386 196.238C738.858 196.238 739.925 195.56 739.925 194.485C739.925 193.41 738.858 192.732 737.386 192.732C735.915 192.732 734.84 193.41 734.84 194.485C734.84 195.56 735.906 196.238 737.386 196.238Z" fill="var(--fill-0, #FFE05C)" id="Vector_117"/>
<path d="M746.515 198.098C747.359 198.065 748.202 197.999 748.996 197.891L749.095 198.727C747.02 199.09 744.746 199.099 743.042 199.099L742.885 198.164C743.629 198.164 744.489 198.164 745.374 198.139V196.585C744.142 196.362 743.274 195.469 743.274 194.245C743.274 192.839 744.407 191.863 745.928 191.863C747.45 191.863 748.574 192.839 748.574 194.245C748.574 195.46 747.731 196.353 746.499 196.568V198.098H746.515ZM745.945 195.651C746.846 195.651 747.491 195.113 747.491 194.245C747.491 193.377 746.846 192.831 745.945 192.831C745.043 192.831 744.39 193.377 744.39 194.245C744.39 195.113 745.052 195.651 745.945 195.651ZM752.163 196.188H750.716V201.149H749.583V191.251H750.716V195.245H752.163V196.188Z" fill="var(--fill-0, #FFE05C)" id="Vector_118"/>
<path d="M761.209 196.188V197.023H764.004V199.413H758.365V200.207H764.293V201.075H757.248V198.619H762.904V197.858H757.232V197.023H760.085V196.188H756.165V195.287H765.145V196.188H761.217H761.209ZM756.612 194.046C758.431 193.906 759.721 193.236 759.952 192.434H757V191.541H764.335V192.434H761.358C761.589 193.236 762.871 193.906 764.699 194.046L764.351 194.906C762.631 194.766 761.259 194.146 760.663 193.236C760.068 194.146 758.72 194.757 756.984 194.906L756.62 194.046H756.612Z" fill="var(--fill-0, #FFE05C)" id="Vector_119"/>
<path d="M767.965 197.891C769.536 197.883 770.909 197.8 772.48 197.552L772.604 198.478C770.9 198.776 769.42 198.826 767.675 198.826H766.832V194.898H770.288V193.054H766.807V192.128H771.43V195.808H767.973V197.891H767.965ZM774.448 191.227V201.182H773.307V191.227H774.448Z" fill="var(--fill-0, #FFE05C)" id="Vector_120"/>
<path d="M780.914 194.774C780.724 195.923 779.839 196.692 778.673 196.692C777.367 196.692 776.424 195.717 776.424 194.311C776.424 192.905 777.367 191.921 778.673 191.921C779.839 191.921 780.715 192.69 780.906 193.84H781.774V191.458H782.824V196.982H781.774V194.774H780.914ZM778.673 195.75C779.409 195.75 779.922 195.179 779.922 194.311C779.922 193.443 779.409 192.864 778.673 192.864C777.937 192.864 777.433 193.434 777.433 194.311C777.433 195.187 777.962 195.75 778.673 195.75ZM781.972 197.709C781.972 198.892 783.32 199.967 785.23 200.248L784.817 201.116C783.271 200.885 782.03 200.157 781.41 199.148C780.798 200.157 779.541 200.885 777.995 201.116L777.565 200.248C779.483 199.975 780.839 198.9 780.839 197.709V197.412H781.972V197.709ZM784.759 197.908H783.684V191.243H784.759V197.908Z" fill="var(--fill-0, #FFE05C)" id="Vector_121"/>
<path d="M788.67 199.347L789.282 198.536C789.753 199.016 790.357 199.429 791.192 199.429C792.102 199.429 792.73 198.933 792.73 198.148C792.73 197.279 792.16 196.717 790.34 196.717V195.783C791.928 195.783 792.457 195.204 792.457 194.443C792.457 193.74 791.986 193.31 791.217 193.31C790.589 193.31 790.068 193.616 789.605 194.079L788.943 193.286C789.58 192.707 790.324 192.293 791.258 192.293C792.705 192.293 793.731 193.038 793.731 194.336C793.731 195.245 793.193 195.849 792.333 196.171V196.229C793.268 196.461 794.004 197.139 794.004 198.206C794.004 199.62 792.788 200.455 791.3 200.455C790.026 200.455 789.199 199.95 788.662 199.347H788.67Z" fill="var(--fill-0, #FFE05C)" id="Vector_122"/>
</g>
</g>
<g id="Layer 4_2">
<g id="Group_51">
<path d="M641.236 33.3733C641.236 27.7835 643.857 25.5178 646.751 25.5178C648.38 25.5178 649.571 26.2124 650.398 27.0807L649.149 28.4698C648.612 27.8331 647.718 27.4031 646.85 27.4031C645.006 27.4031 643.46 28.7923 643.361 32.9598C644.212 31.9097 645.486 31.2565 646.536 31.2565C648.975 31.2565 650.646 32.7035 650.646 35.639C650.646 38.5744 648.661 40.2613 646.28 40.2613C643.501 40.2613 641.244 38.0618 641.244 33.3816L641.236 33.3733ZM643.419 34.6467C643.658 37.2845 644.709 38.5166 646.255 38.5166C647.528 38.5166 648.537 37.4499 648.537 35.639C648.537 33.8281 647.661 32.9185 646.114 32.9185C645.304 32.9185 644.287 33.3733 643.419 34.6467Z" fill="var(--fill-0, white)" id="Vector_123"/>
<path d="M657.104 31.5707C655.557 31.6286 654.069 31.6286 652.721 31.6286L652.481 30.1567C655.93 30.1567 660.254 30.1402 664.041 29.7432L664.182 31.0332C662.536 31.273 660.833 31.4136 659.163 31.488V34.1258H657.104V31.5707ZM653.771 26.6176C653.771 24.9721 655.557 23.9385 658.237 23.9385C660.916 23.9385 662.677 24.9721 662.677 26.6176C662.677 28.2631 660.891 29.2967 658.237 29.2967C655.582 29.2967 653.771 28.2631 653.771 26.6176ZM667.87 39.9223V41.3693H655.152V37.301H665.323V36.1103H655.111V34.7046H667.349V38.6158H657.17V39.9223H667.862H667.87ZM655.69 26.6176C655.69 27.4528 656.682 27.9241 658.228 27.9241C659.775 27.9241 660.75 27.4445 660.75 26.6176C660.75 25.7907 659.758 25.3111 658.228 25.3111C656.699 25.3111 655.69 25.7907 655.69 26.6176ZM665.315 32.0255V23.616H667.357V34.0679H665.315V33.2906H661.941V32.0172H665.315V32.0255Z" fill="var(--fill-0, white)" id="Vector_124"/>
</g>
<g id="Group_52" opacity="0.2">
<path d="M500.135 113.226L500.78 112.383C501.384 113.011 502.169 113.565 503.335 113.565C504.501 113.565 505.427 112.846 505.427 111.721C505.427 110.53 504.6 109.737 502.219 109.737V108.753C504.344 108.753 505.072 107.926 505.072 106.867C505.072 105.9 504.394 105.28 503.327 105.28C502.5 105.28 501.764 105.701 501.194 106.288L500.507 105.486C501.276 104.759 502.194 104.238 503.385 104.238C505.113 104.238 506.378 105.156 506.378 106.785C506.378 107.992 505.634 108.769 504.551 109.158V109.216C505.758 109.513 506.725 110.398 506.725 111.771C506.725 113.557 505.245 114.624 503.418 114.624C501.805 114.624 500.788 113.945 500.119 113.218L500.135 113.226Z" fill="var(--fill-0, white)" id="Vector_125"/>
<path d="M508.768 113.383H511.058V105.991H509.231V105.164C510.14 105.007 510.802 104.767 511.364 104.436H512.348V113.391H514.415V114.458H508.768V113.391V113.383Z" fill="var(--fill-0, white)" id="Vector_126"/>
</g>
<path d="M553.519 113.383H555.81V105.991H553.982V105.164C554.892 105.007 555.553 104.767 556.116 104.436H557.1V113.391H559.167V114.458H553.519V113.391V113.383Z" fill="var(--fill-0, white)" id="Vector_127"/>
<path d="M601.561 113.689C604.58 110.679 606.283 108.885 606.283 107.239C606.283 106.098 605.663 105.288 604.389 105.288C603.546 105.288 602.818 105.825 602.256 106.487L601.512 105.768C602.355 104.858 603.24 104.246 604.547 104.246C606.39 104.246 607.54 105.412 607.54 107.182C607.54 109.067 605.828 110.936 603.447 113.433C603.984 113.391 604.596 113.334 605.134 113.334H608.044V114.442H601.561V113.681V113.689Z" fill="var(--fill-0, white)" id="Vector_128"/>
<path d="M650.009 113.226L650.654 112.383C651.258 113.011 652.043 113.565 653.209 113.565C654.375 113.565 655.301 112.846 655.301 111.721C655.301 110.53 654.474 109.737 652.093 109.737V108.753C654.218 108.753 654.946 107.926 654.946 106.867C654.946 105.9 654.267 105.28 653.201 105.28C652.374 105.28 651.638 105.701 651.067 106.288L650.381 105.486C651.15 104.759 652.068 104.238 653.259 104.238C654.987 104.238 656.252 105.156 656.252 106.785C656.252 107.992 655.508 108.769 654.425 109.158V109.216C655.632 109.513 656.599 110.398 656.599 111.771C656.599 113.557 655.127 114.624 653.3 114.624C651.679 114.624 650.671 113.945 650.001 113.218L650.009 113.226Z" fill="var(--fill-0, white)" id="Vector_129"/>
<path d="M703.029 111.68H698.531V110.836L702.814 104.428H704.236V110.654H705.601V111.68H704.236V114.45H703.029V111.68ZM703.029 110.654V107.719C703.029 107.198 703.071 106.338 703.095 105.809H703.037C702.781 106.288 702.5 106.727 702.211 107.215L699.862 110.663H703.029V110.654Z" fill="var(--fill-0, white)" id="Vector_130"/>
<path d="M747.301 113.267L747.929 112.424C748.516 113.011 749.269 113.565 750.46 113.565C751.65 113.565 752.651 112.68 752.651 111.291C752.651 109.902 751.807 109.067 750.517 109.067C749.831 109.067 749.393 109.29 748.806 109.687L748.119 109.249L748.442 104.428H753.461V105.528H749.567L749.31 108.521C749.773 108.265 750.228 108.099 750.84 108.099C752.552 108.099 753.949 109.083 753.949 111.25C753.949 113.416 752.32 114.64 750.575 114.64C748.971 114.64 747.987 113.962 747.301 113.276V113.267Z" fill="var(--fill-0, white)" id="Vector_131"/>
<path d="M796.327 109.828C796.327 105.792 798.138 104.246 800.147 104.246C801.214 104.246 801.991 104.693 802.554 105.304L801.834 106.107C801.429 105.619 800.809 105.321 800.189 105.321C798.766 105.321 797.592 106.404 797.534 109.596C798.179 108.819 799.064 108.347 799.883 108.347C801.611 108.347 802.736 109.389 802.736 111.423C802.736 113.35 801.388 114.64 799.784 114.64C797.799 114.64 796.327 113.036 796.327 109.836V109.828ZM797.559 110.63C797.725 112.581 798.502 113.64 799.767 113.64C800.768 113.64 801.52 112.755 801.52 111.415C801.52 110.076 800.9 109.29 799.668 109.29C799.023 109.29 798.237 109.637 797.559 110.63Z" fill="var(--fill-0, white)" id="Vector_132"/>
<g id="Group_53" opacity="0.6">
<path d="M505.849 77.43C504.385 77.43 503.31 76.5287 503.31 75.247C503.31 73.9653 504.385 73.0558 505.849 73.0558C507.313 73.0558 508.404 73.9736 508.404 75.247C508.404 76.5204 507.321 77.43 505.849 77.43ZM505.849 76.5287C506.701 76.5287 507.329 76.0243 507.329 75.247C507.329 74.4697 506.692 73.9653 505.849 73.9653C505.005 73.9653 504.385 74.4697 504.385 75.247C504.385 76.0243 505.005 76.5287 505.849 76.5287ZM511.422 81.457V82.3252H504.79V79.7784H510.033V78.968H504.766V78.0998H511.133V80.597H505.874V81.457H511.422ZM511.133 77.6615H510.025V72.725H511.133V77.6615Z" fill="var(--fill-0, white)" id="Vector_133"/>
</g>
<path d="M554.272 77.0496C553.436 77.0827 552.626 77.0827 551.898 77.0827L551.766 76.2889C553.635 76.2889 555.983 76.2806 558.034 76.0656L558.108 76.7602C557.215 76.8925 556.289 76.9669 555.388 77.0083V78.4388H554.272V77.0496ZM552.469 74.3622C552.469 73.4692 553.436 72.9152 554.883 72.9152C556.331 72.9152 557.29 73.4775 557.29 74.3622C557.29 75.247 556.322 75.8093 554.883 75.8093C553.445 75.8093 552.469 75.247 552.469 74.3622ZM560.109 81.581V82.3665H553.221V80.167H558.737V79.522H553.197V78.7613H559.828V80.8781H554.313V81.5893H560.109V81.581ZM553.511 74.3622C553.511 74.817 554.048 75.0734 554.883 75.0734C555.719 75.0734 556.248 74.817 556.248 74.3622C556.248 73.9075 555.71 73.6511 554.883 73.6511C554.057 73.6511 553.511 73.9075 553.511 74.3622ZM558.72 77.2977V72.7415H559.828V78.4057H558.72V77.984H556.893V77.2977H558.72Z" fill="var(--fill-0, white)" id="Vector_134"/>
<path d="M603.951 79.7205C604.778 79.6792 605.605 79.6213 606.382 79.5055L606.465 80.3241C604.389 80.688 602.14 80.7128 600.478 80.7128L600.329 79.8032C601.074 79.8032 601.942 79.8032 602.843 79.7701V78.8275C601.768 78.6455 601.074 77.9923 601.074 77.0662C601.074 75.9664 602.016 75.247 603.405 75.247C604.795 75.247 605.729 75.9664 605.729 77.0662C605.729 77.9923 605.034 78.6538 603.959 78.8275V79.7288L603.951 79.7205ZM606.275 74.7509H600.503V73.8578H602.843V72.7746H603.951V73.8578H606.275V74.7509ZM603.405 78.0088C604.166 78.0088 604.687 77.645 604.687 77.0496C604.687 76.4543 604.174 76.0822 603.405 76.0822C602.636 76.0822 602.115 76.446 602.115 77.0496C602.115 77.6533 602.645 78.0088 603.405 78.0088ZM609.409 77.7112H608.036V82.4492H606.928V72.7333H608.036V76.7933H609.409V77.7112Z" fill="var(--fill-0, white)" id="Vector_135"/>
<path d="M657.873 79.0259H654.011V82.4575H652.903V79.0259H649.099V78.1246H657.873V79.0259ZM657.071 77.215C655.458 76.9587 654.135 76.1401 653.498 75.0238C652.878 76.1566 651.53 76.9587 649.918 77.215L649.488 76.322C651.464 76.0408 652.903 74.8501 652.903 73.5684V73.0558H654.077V73.5684C654.077 74.8253 655.541 76.0408 657.492 76.322L657.062 77.215H657.071Z" fill="var(--fill-0, white)" id="Vector_136"/>
<path d="M706.543 77.5788V78.4719H697.754V77.5788H701.582V76.4956H698.87V73.1302H705.419V76.4956H702.698V77.5788H706.543ZM698.738 79.3319H705.452V82.4492H704.344V80.2249H698.729V79.3319H698.738ZM699.953 75.6109H704.327V74.0067H699.953V75.6109Z" fill="var(--fill-0, white)" id="Vector_137"/>
<path d="M755.206 76.752V77.6533H746.416V76.752H752.758C753.006 75.6687 753.031 74.8501 753.031 74.1142H747.524V73.2129H754.114V73.9653C754.114 74.7261 754.114 75.586 753.866 76.752H755.206ZM747.483 78.8275H754.114V82.3335H747.483V78.8275ZM748.566 81.4487H753.031V79.704H748.566V81.4487Z" fill="var(--fill-0, white)" id="Vector_138"/>
<g id="Group_54" opacity="0.6">
<path d="M803.868 80.3986V81.3164H795.079V80.3986H798.907V78.5711H796.162V73.4775H802.802V74.3788H797.286V75.553H802.587V76.4212H797.286V77.6863H802.884V78.5711H800.015V80.3986H803.86H803.868Z" fill="var(--fill-0, white)" id="Vector_139"/>
</g>
<path d="M509.305 167.751H504.319V166.651H510.769V167.437C508.404 170.472 507.9 172.762 507.751 176.673H506.411C506.577 172.894 507.337 170.505 509.305 167.751Z" fill="var(--fill-0, white)" id="Vector_140"/>
<path d="M552.916 174.118C552.916 172.812 553.875 171.91 554.809 171.406V171.348C554.065 170.844 553.42 170.1 553.42 169.033C553.42 167.503 554.644 166.478 556.248 166.478C558.001 166.478 559.076 167.578 559.076 169.132C559.076 170.182 558.307 171.084 557.695 171.547V171.621C558.58 172.159 559.44 172.861 559.44 174.193C559.44 175.698 558.15 176.864 556.207 176.864C554.263 176.864 552.916 175.714 552.916 174.127V174.118ZM558.216 174.16C558.216 172.853 556.951 172.39 555.487 171.811C554.669 172.332 554.081 173.076 554.081 174.003C554.081 175.102 554.991 175.896 556.231 175.896C557.472 175.896 558.216 175.177 558.216 174.151V174.16ZM557.976 169.198C557.976 168.214 557.348 167.429 556.231 167.429C555.272 167.429 554.586 168.065 554.586 169.033C554.586 170.24 555.694 170.745 556.901 171.224C557.587 170.604 557.968 169.942 557.968 169.198H557.976Z" fill="var(--fill-0, white)" id="Vector_141"/>
<path d="M601.76 175.805L602.479 175.003C602.876 175.499 603.488 175.789 604.125 175.789C605.531 175.789 606.721 174.689 606.779 171.489C606.134 172.291 605.249 172.779 604.431 172.779C602.686 172.779 601.561 171.729 601.561 169.67C601.561 167.759 602.909 166.461 604.513 166.461C606.498 166.461 607.97 168.065 607.97 171.282C607.97 175.301 606.159 176.847 604.158 176.847C603.091 176.847 602.306 176.401 601.752 175.797L601.76 175.805ZM604.637 171.828C605.282 171.828 606.101 171.423 606.746 170.463C606.581 168.52 605.787 167.487 604.513 167.487C603.529 167.487 602.769 168.355 602.769 169.678C602.769 171.001 603.389 171.828 604.637 171.828Z" fill="var(--fill-0, white)" id="Vector_142"/>
<g id="Group_55">
<path d="M646.933 175.615H649.223V168.223H647.396V167.396C648.314 167.239 648.967 166.999 649.529 166.668H650.513V175.623H652.581V176.69H646.933V175.623V175.615Z" fill="var(--fill-0, white)" id="Vector_143"/>
<path d="M654.185 171.629C654.185 168.272 655.409 166.47 657.401 166.47C659.394 166.47 660.61 168.28 660.61 171.629C660.61 174.978 659.402 176.855 657.401 176.855C655.4 176.855 654.185 174.987 654.185 171.629ZM659.361 171.629C659.361 168.694 658.576 167.495 657.41 167.495C656.244 167.495 655.442 168.694 655.442 171.629C655.442 174.565 656.227 175.83 657.41 175.83C658.592 175.83 659.361 174.565 659.361 171.629Z" fill="var(--fill-0, white)" id="Vector_144"/>
</g>
<g id="Group_56">
<path d="M695.587 175.615H697.878V168.223H696.05V167.396C696.968 167.239 697.621 166.999 698.184 166.668H699.168V175.623H701.235V176.69H695.587V175.623V175.615Z" fill="var(--fill-0, white)" id="Vector_145"/>
<path d="M703.393 175.615H705.683V168.223H703.856V167.396C704.766 167.239 705.427 166.999 705.989 166.668H706.973V175.623H709.041V176.69H703.393V175.623V175.615Z" fill="var(--fill-0, white)" id="Vector_146"/>
</g>
<g id="Group_57">
<path d="M744.25 175.615H746.54V168.223H744.713V167.396C745.631 167.239 746.284 166.999 746.846 166.668H747.83V175.623H749.897V176.69H744.25V175.623V175.615Z" fill="var(--fill-0, white)" id="Vector_147"/>
<path d="M751.435 175.921C754.453 172.911 756.157 171.117 756.157 169.471C756.157 168.33 755.537 167.52 754.263 167.52C753.42 167.52 752.692 168.057 752.13 168.71L751.386 167.991C752.229 167.073 753.114 166.47 754.42 166.47C756.264 166.47 757.414 167.635 757.414 169.405C757.414 171.29 755.702 173.159 753.321 175.656C753.858 175.615 754.47 175.557 755.007 175.557H757.918V176.665H751.435V175.904V175.921Z" fill="var(--fill-0, white)" id="Vector_148"/>
</g>
<g id="Group_58">
<path d="M792.904 175.615H795.194V168.223H793.367V167.396C794.285 167.239 794.938 166.999 795.5 166.668H796.484V175.623H798.551V176.69H792.904V175.623V175.615Z" fill="var(--fill-0, white)" id="Vector_149"/>
<path d="M799.875 175.458L800.519 174.614C801.123 175.243 801.909 175.797 803.075 175.797C804.24 175.797 805.167 175.077 805.167 173.953C805.167 172.754 804.34 171.968 801.958 171.968V170.984C804.083 170.984 804.811 170.157 804.811 169.099C804.811 168.132 804.133 167.511 803.066 167.511C802.239 167.511 801.503 167.933 800.933 168.52L800.247 167.718C801.024 166.99 801.933 166.47 803.132 166.47C804.861 166.47 806.126 167.379 806.126 169.016C806.126 170.224 805.382 171.001 804.298 171.39V171.447C805.506 171.745 806.473 172.63 806.473 174.003C806.473 175.789 805.001 176.855 803.174 176.855C801.553 176.855 800.544 176.177 799.875 175.45V175.458Z" fill="var(--fill-0, white)" id="Vector_150"/>
</g>
<g id="Group_59">
<path d="M500.962 237.838H503.252V230.446H501.425V229.619C502.343 229.462 502.996 229.222 503.558 228.891H504.542V237.847H506.61V238.913H500.962V237.847V237.838Z" fill="var(--fill-0, white)" id="Vector_151"/>
<path d="M512.307 236.143H507.809V235.3L512.092 228.891H513.514V235.118H514.879V236.143H513.514V238.913H512.307V236.143ZM512.307 235.118V232.183C512.307 231.662 512.348 230.802 512.373 230.272H512.315C512.059 230.752 511.778 231.19 511.488 231.678L509.14 235.126H512.307V235.118Z" fill="var(--fill-0, white)" id="Vector_152"/>
</g>
<g id="Group_60">
<path d="M549.624 237.838H551.915V230.446H550.088V229.619C551.005 229.462 551.659 229.222 552.221 228.891H553.205V237.847H555.272V238.913H549.624V237.847V237.838Z" fill="var(--fill-0, white)" id="Vector_153"/>
<path d="M556.579 237.731L557.207 236.888C557.794 237.475 558.547 238.029 559.737 238.029C560.928 238.029 561.929 237.144 561.929 235.755C561.929 234.365 561.085 233.53 559.795 233.53C559.109 233.53 558.671 233.754 558.084 234.151L557.397 233.712L557.72 228.891H562.739V229.991H558.844L558.588 232.985C559.051 232.728 559.506 232.563 560.118 232.563C561.829 232.563 563.227 233.547 563.227 235.713C563.227 237.88 561.598 239.104 559.853 239.104C558.249 239.104 557.265 238.426 556.579 237.739V237.731Z" fill="var(--fill-0, white)" id="Vector_154"/>
</g>
<g id="Group_61">
<path d="M598.279 237.838H600.569V230.446H598.742V229.619C599.66 229.462 600.313 229.222 600.875 228.891H601.859V237.847H603.926V238.913H598.279V237.847V237.838Z" fill="var(--fill-0, white)" id="Vector_155"/>
<path d="M605.605 234.283C605.605 230.248 607.416 228.701 609.425 228.701C610.492 228.701 611.269 229.148 611.831 229.76L611.112 230.562C610.707 230.074 610.087 229.776 609.466 229.776C608.044 229.776 606.87 230.859 606.812 234.051C607.457 233.274 608.342 232.803 609.161 232.803C610.889 232.803 612.013 233.845 612.013 235.879C612.013 237.805 610.665 239.095 609.061 239.095C607.077 239.095 605.605 237.491 605.605 234.291V234.283ZM606.837 235.085C607.002 237.036 607.78 238.095 609.045 238.095C610.045 238.095 610.798 237.21 610.798 235.87C610.798 234.531 610.178 233.745 608.946 233.745C608.301 233.745 607.515 234.093 606.837 235.085Z" fill="var(--fill-0, white)" id="Vector_156"/>
</g>
<g id="Group_62">
<path d="M646.933 237.838H649.223V230.446H647.396V229.619C648.314 229.462 648.967 229.222 649.529 228.892H650.513V237.847H652.581V238.913H646.933V237.847V237.838Z" fill="var(--fill-0, white)" id="Vector_157"/>
<path d="M659.179 229.983H654.193V228.883H660.643V229.669C658.278 232.703 657.773 234.994 657.625 238.905H656.285C656.45 235.126 657.211 232.737 659.179 229.983Z" fill="var(--fill-0, white)" id="Vector_158"/>
</g>
<g id="Group_63">
<path d="M695.587 237.838H697.878V230.446H696.05V229.619C696.968 229.462 697.621 229.222 698.184 228.891H699.168V237.847H701.235V238.913H695.587V237.847V237.838Z" fill="var(--fill-0, white)" id="Vector_159"/>
<path d="M702.789 236.35C702.789 235.044 703.749 234.142 704.683 233.638V233.58C703.939 233.076 703.294 232.331 703.294 231.265C703.294 229.735 704.518 228.71 706.122 228.71C707.875 228.71 708.95 229.809 708.95 231.364C708.95 232.422 708.181 233.315 707.569 233.778V233.845C708.454 234.382 709.314 235.085 709.314 236.416C709.314 237.921 708.024 239.087 706.08 239.087C704.137 239.087 702.789 237.938 702.789 236.342V236.35ZM708.09 236.391C708.09 235.085 706.825 234.622 705.361 234.043C704.542 234.564 703.955 235.308 703.955 236.234C703.955 237.334 704.865 238.128 706.105 238.128C707.346 238.128 708.09 237.408 708.09 236.383V236.391ZM707.85 231.43C707.85 230.446 707.222 229.66 706.105 229.66C705.146 229.66 704.46 230.289 704.46 231.265C704.46 232.472 705.568 232.976 706.775 233.456C707.461 232.836 707.842 232.174 707.842 231.43H707.85Z" fill="var(--fill-0, white)" id="Vector_160"/>
</g>
<g id="Group_64">
<path d="M744.25 237.838H746.54V230.446H744.713V229.619C745.631 229.462 746.284 229.222 746.846 228.891H747.83V237.847H749.897V238.913H744.25V237.847V237.838Z" fill="var(--fill-0, white)" id="Vector_161"/>
<path d="M751.625 238.037L752.345 237.235C752.742 237.723 753.354 238.02 753.99 238.02C755.396 238.02 756.587 236.921 756.645 233.721C756 234.523 755.115 235.01 754.296 235.01C752.552 235.01 751.427 233.952 751.427 231.901C751.427 229.991 752.775 228.693 754.379 228.693C756.364 228.693 757.835 230.297 757.835 233.514C757.835 237.533 756.025 239.079 754.023 239.079C752.957 239.079 752.171 238.632 751.617 238.02L751.625 238.037ZM754.511 234.06C755.156 234.06 755.975 233.654 756.62 232.695C756.454 230.752 755.661 229.718 754.387 229.718C753.403 229.718 752.643 230.587 752.643 231.91C752.643 233.233 753.263 234.06 754.511 234.06Z" fill="var(--fill-0, white)" id="Vector_162"/>
</g>
<g id="Group_65">
<path d="M792.284 238.153C795.302 235.143 797.005 233.348 797.005 231.703C797.005 230.562 796.385 229.751 795.112 229.751C794.268 229.751 793.541 230.289 792.978 230.95L792.234 230.231C793.077 229.321 793.962 228.71 795.269 228.71C797.113 228.71 798.262 229.876 798.262 231.645C798.262 233.53 796.55 235.399 794.169 237.896C794.706 237.855 795.318 237.797 795.856 237.797H798.766V238.905H792.284V238.144V238.153Z" fill="var(--fill-0, white)" id="Vector_163"/>
<path d="M800.156 233.861C800.156 230.504 801.379 228.701 803.372 228.701C805.365 228.701 806.581 230.512 806.581 233.861C806.581 237.21 805.373 239.087 803.372 239.087C801.371 239.087 800.156 237.218 800.156 233.861ZM805.332 233.861C805.332 230.926 804.546 229.727 803.381 229.727C802.215 229.727 801.413 230.917 801.413 233.861C801.413 236.805 802.198 238.062 803.381 238.062C804.563 238.062 805.332 236.797 805.332 233.861Z" fill="var(--fill-0, white)" id="Vector_164"/>
</g>
<g id="Group_66">
<path d="M500.35 300.384C503.368 297.375 505.072 295.58 505.072 293.935C505.072 292.794 504.451 291.983 503.178 291.983C502.335 291.983 501.607 292.521 501.045 293.174L500.3 292.455C501.144 291.537 502.029 290.933 503.335 290.933C505.179 290.933 506.329 292.099 506.329 293.869C506.329 295.754 504.617 297.623 502.235 300.12C502.773 300.078 503.385 300.021 503.922 300.021H506.833V301.129H500.35V300.368V300.384Z" fill="var(--fill-0, white)" id="Vector_165"/>
<path d="M508.768 300.07H511.058V292.678H509.231V291.851C510.14 291.694 510.802 291.454 511.364 291.123H512.348V300.079H514.415V301.145H508.768V300.079V300.07Z" fill="var(--fill-0, white)" id="Vector_166"/>
</g>
<g id="Group_67">
<path d="M549.004 300.384C552.022 297.375 553.726 295.58 553.726 293.935C553.726 292.794 553.106 291.983 551.832 291.983C550.989 291.983 550.261 292.521 549.699 293.174L548.955 292.455C549.798 291.537 550.683 290.933 551.989 290.933C553.833 290.933 554.983 292.099 554.983 293.869C554.983 295.754 553.271 297.623 550.89 300.12C551.427 300.078 552.039 300.021 552.576 300.021H555.487V301.129H549.004V300.368V300.384Z" fill="var(--fill-0, white)" id="Vector_167"/>
<path d="M556.802 300.384C559.82 297.375 561.523 295.58 561.523 293.935C561.523 292.794 560.903 291.983 559.63 291.983C558.786 291.983 558.059 292.521 557.496 293.174L556.752 292.455C557.596 291.537 558.48 290.933 559.787 290.933C561.631 290.933 562.78 292.099 562.78 293.869C562.78 295.754 561.069 297.623 558.687 300.12C559.225 300.078 559.837 300.021 560.374 300.021H563.285V301.129H556.802V300.368V300.384Z" fill="var(--fill-0, white)" id="Vector_168"/>
</g>
<g id="Group_68">
<path d="M597.659 300.384C600.677 297.375 602.38 295.58 602.38 293.935C602.38 292.794 601.76 291.983 600.487 291.983C599.643 291.983 598.915 292.521 598.353 293.174L597.609 292.455C598.452 291.537 599.337 290.933 600.644 290.933C602.488 290.933 603.637 292.099 603.637 293.869C603.637 295.754 601.925 297.623 599.544 300.12C600.081 300.079 600.693 300.021 601.231 300.021H604.141V301.129H597.659V300.368V300.384Z" fill="var(--fill-0, white)" id="Vector_169"/>
<path d="M605.249 299.913L605.894 299.07C606.498 299.698 607.284 300.252 608.449 300.252C609.615 300.252 610.541 299.533 610.541 298.408C610.541 297.209 609.715 296.424 607.333 296.424V295.44C609.458 295.44 610.186 294.613 610.186 293.554C610.186 292.587 609.508 291.967 608.441 291.967C607.614 291.967 606.878 292.388 606.308 292.976L605.621 292.173C606.399 291.446 607.308 290.925 608.507 290.925C610.236 290.925 611.501 291.834 611.501 293.472C611.501 294.679 610.756 295.456 609.673 295.845V295.903C610.881 296.2 611.848 297.085 611.848 298.458C611.848 300.244 610.376 301.311 608.549 301.311C606.928 301.311 605.919 300.633 605.249 299.905V299.913Z" fill="var(--fill-0, white)" id="Vector_170"/>
</g>
<g id="Group_69">
<path d="M646.313 300.384C649.331 297.375 651.034 295.58 651.034 293.935C651.034 292.794 650.414 291.983 649.141 291.983C648.297 291.983 647.57 292.521 647.007 293.174L646.263 292.455C647.107 291.537 647.991 290.933 649.298 290.933C651.142 290.933 652.291 292.099 652.291 293.869C652.291 295.754 650.58 297.623 648.198 300.12C648.736 300.078 649.347 300.021 649.885 300.021H652.796V301.129H646.313V300.368V300.384Z" fill="var(--fill-0, white)" id="Vector_171"/>
<path d="M658.278 298.375H653.78V297.532L658.063 291.123H659.485V297.35H660.85V298.375H659.485V301.145H658.278V298.375ZM658.278 297.341V294.406C658.278 293.885 658.319 293.025 658.344 292.496H658.286C658.03 292.976 657.749 293.405 657.459 293.902L655.111 297.341H658.278Z" fill="var(--fill-0, white)" id="Vector_172"/>
</g>
<g id="Group_70">
<path d="M694.975 300.384C697.993 297.375 699.697 295.58 699.697 293.935C699.697 292.794 699.077 291.983 697.803 291.983C696.96 291.983 696.232 292.521 695.67 293.174L694.926 292.455C695.769 291.537 696.654 290.933 697.96 290.933C699.804 290.933 700.954 292.099 700.954 293.869C700.954 295.754 699.242 297.623 696.861 300.12C697.398 300.078 698.01 300.021 698.547 300.021H701.458V301.129H694.975V300.368V300.384Z" fill="var(--fill-0, white)" id="Vector_173"/>
<path d="M702.55 299.963L703.178 299.119C703.765 299.706 704.518 300.26 705.708 300.26C706.899 300.26 707.9 299.376 707.9 297.986C707.9 296.597 707.056 295.762 705.766 295.762C705.08 295.762 704.642 295.985 704.054 296.382L703.368 295.944L703.691 291.123H708.71V292.223H704.815L704.559 295.216C705.022 294.96 705.477 294.795 706.089 294.795C707.8 294.795 709.198 295.779 709.198 297.945C709.198 300.112 707.569 301.335 705.824 301.335C704.22 301.335 703.236 300.657 702.55 299.971V299.963Z" fill="var(--fill-0, white)" id="Vector_174"/>
</g>
<g id="Group_71">
<path d="M743.629 300.384C746.648 297.375 748.351 295.58 748.351 293.935C748.351 292.794 747.731 291.983 746.457 291.983C745.614 291.983 744.886 292.521 744.324 293.174L743.58 292.455C744.423 291.537 745.308 290.933 746.615 290.933C748.458 290.933 749.608 292.099 749.608 293.869C749.608 295.754 747.896 297.623 745.515 300.12C746.052 300.078 746.664 300.021 747.202 300.021H750.112V301.129H743.629V300.368V300.384Z" fill="var(--fill-0, white)" id="Vector_175"/>
<path d="M751.576 296.515C751.576 292.479 753.387 290.933 755.396 290.933C756.463 290.933 757.24 291.38 757.802 291.983L757.083 292.785C756.678 292.297 756.058 292 755.437 292C754.015 292 752.841 293.083 752.783 296.275C753.428 295.506 754.313 295.026 755.132 295.026C756.86 295.026 757.984 296.068 757.984 298.102C757.984 300.029 756.636 301.319 755.032 301.319C753.048 301.319 751.576 299.715 751.576 296.515ZM752.808 297.317C752.973 299.268 753.751 300.327 755.016 300.327C756.016 300.327 756.769 299.442 756.769 298.102C756.769 296.763 756.149 295.977 754.917 295.977C754.272 295.977 753.486 296.324 752.808 297.308V297.317Z" fill="var(--fill-0, white)" id="Vector_176"/>
</g>
<g id="Group_72">
<path d="M792.284 300.384C795.302 297.375 797.005 295.58 797.005 293.935C797.005 292.794 796.385 291.983 795.112 291.983C794.268 291.983 793.541 292.521 792.978 293.174L792.234 292.455C793.077 291.537 793.962 290.933 795.269 290.933C797.113 290.933 798.262 292.099 798.262 293.869C798.262 295.754 796.55 297.623 794.169 300.12C794.706 300.078 795.318 300.021 795.856 300.021H798.766V301.129H792.284V300.368V300.384Z" fill="var(--fill-0, white)" id="Vector_177"/>
<path d="M805.15 292.215H800.164V291.115H806.614V291.901C804.249 294.935 803.744 297.226 803.596 301.137H802.256C802.421 297.358 803.182 294.968 805.15 292.215Z" fill="var(--fill-0, white)" id="Vector_178"/>
</g>
<g id="Group_73">
<path d="M500.35 362.608C503.368 359.598 505.072 357.804 505.072 356.158C505.072 355.017 504.451 354.207 503.178 354.207C502.335 354.207 501.607 354.744 501.045 355.406L500.3 354.686C501.144 353.777 502.029 353.165 503.335 353.165C505.179 353.165 506.329 354.331 506.329 356.1C506.329 357.986 504.617 359.854 502.235 362.352C502.773 362.31 503.385 362.252 503.922 362.252H506.833V363.36H500.35V362.6V362.608Z" fill="var(--fill-0, white)" id="Vector_179"/>
<path d="M508.164 360.814C508.164 359.507 509.123 358.606 510.058 358.101V358.043C509.314 357.539 508.669 356.795 508.669 355.728C508.669 354.198 509.892 353.173 511.497 353.173C513.25 353.173 514.325 354.273 514.325 355.827C514.325 356.886 513.556 357.779 512.944 358.242V358.308C513.828 358.846 514.688 359.548 514.688 360.88C514.688 362.385 513.398 363.551 511.455 363.551C509.512 363.551 508.164 362.401 508.164 360.805V360.814ZM513.465 360.855C513.465 359.548 512.199 359.085 510.736 358.507C509.917 359.027 509.33 359.772 509.33 360.698C509.33 361.798 510.24 362.591 511.48 362.591C512.72 362.591 513.465 361.872 513.465 360.847V360.855ZM513.225 355.894C513.225 354.91 512.596 354.124 511.48 354.124C510.521 354.124 509.835 354.752 509.835 355.728C509.835 356.935 510.943 357.44 512.15 357.919C512.836 357.299 513.217 356.638 513.217 355.894H513.225Z" fill="var(--fill-0, white)" id="Vector_180"/>
</g>
<g id="Group_74" opacity="0.2">
<path d="M504.021 425.609L504.65 424.765C505.237 425.352 505.989 425.906 507.18 425.906C508.371 425.906 509.371 425.022 509.371 423.632C509.371 422.243 508.528 421.408 507.238 421.408C506.552 421.408 506.114 421.631 505.526 422.028L504.84 421.59L505.163 416.769H510.182V417.869H506.287L506.031 420.862C506.494 420.606 506.949 420.441 507.561 420.441C509.272 420.441 510.67 421.425 510.67 423.591C510.67 425.758 509.041 426.981 507.296 426.981C505.692 426.981 504.708 426.303 504.021 425.617V425.609Z" fill="var(--fill-0, white)" id="Vector_181"/>
</g>
<g id="Group_75">
<path d="M549.004 362.608C552.022 359.598 553.726 357.804 553.726 356.158C553.726 355.017 553.106 354.207 551.832 354.207C550.989 354.207 550.261 354.744 549.699 355.406L548.955 354.686C549.798 353.777 550.683 353.165 551.989 353.165C553.833 353.165 554.983 354.331 554.983 356.1C554.983 357.986 553.271 359.854 550.89 362.352C551.427 362.31 552.039 362.252 552.576 362.252H555.487V363.36H549.004V362.6V362.608Z" fill="var(--fill-0, white)" id="Vector_182"/>
<path d="M557 362.5L557.72 361.698C558.117 362.186 558.729 362.484 559.365 362.484C560.771 362.484 561.962 361.384 562.02 358.184C561.375 358.986 560.49 359.474 559.671 359.474C557.926 359.474 556.802 358.416 556.802 356.365C556.802 354.455 558.15 353.157 559.754 353.157C561.738 353.157 563.21 354.761 563.21 357.977C563.21 361.996 561.399 363.542 559.398 363.542C558.332 363.542 557.546 363.096 556.992 362.484L557 362.5ZM559.886 358.523C560.531 358.523 561.35 358.118 561.995 357.159C561.829 355.216 561.036 354.182 559.762 354.182C558.778 354.182 558.017 355.05 558.017 356.373C558.017 357.696 558.638 358.523 559.886 358.523Z" fill="var(--fill-0, white)" id="Vector_183"/>
</g>
<g id="Group_76">
<path d="M597.452 362.145L598.097 361.301C598.7 361.93 599.486 362.484 600.652 362.484C601.818 362.484 602.744 361.765 602.744 360.64C602.744 359.449 601.917 358.655 599.536 358.655V357.671C601.661 357.671 602.388 356.845 602.388 355.786C602.388 354.819 601.71 354.198 600.644 354.198C599.817 354.198 599.081 354.62 598.51 355.207L597.824 354.405C598.593 353.678 599.511 353.157 600.702 353.157C602.43 353.157 603.695 354.074 603.695 355.703C603.695 356.911 602.951 357.688 601.867 358.077V358.134C603.075 358.432 604.042 359.317 604.042 360.69C604.042 362.476 602.562 363.542 600.735 363.542C599.122 363.542 598.105 362.864 597.435 362.137L597.452 362.145Z" fill="var(--fill-0, white)" id="Vector_184"/>
<path d="M605.531 358.325C605.531 354.967 606.754 353.165 608.747 353.165C610.74 353.165 611.956 354.976 611.956 358.325C611.956 361.674 610.748 363.551 608.747 363.551C606.746 363.551 605.531 361.682 605.531 358.325ZM610.707 358.325C610.707 355.389 609.921 354.19 608.755 354.19C607.59 354.19 606.787 355.381 606.787 358.325C606.787 361.268 607.573 362.525 608.755 362.525C609.938 362.525 610.707 361.26 610.707 358.325Z" fill="var(--fill-0, white)" id="Vector_185"/>
</g>
<g id="Group_77" opacity="0.2">
<path d="M650.836 362.302H653.126V354.91H651.299V354.083C652.208 353.926 652.87 353.686 653.432 353.355H654.416V362.31H656.483V363.377H650.836V362.31V362.302Z" fill="var(--fill-0, white)" id="Vector_186"/>
</g>
<g id="Group_78" opacity="0.2">
<path d="M698.87 362.608C701.888 359.598 703.591 357.804 703.591 356.158C703.591 355.017 702.971 354.207 701.698 354.207C700.854 354.207 700.127 354.744 699.565 355.406L698.82 354.686C699.664 353.777 700.549 353.165 701.855 353.165C703.699 353.165 704.848 354.331 704.848 356.1C704.848 357.986 703.137 359.854 700.755 362.352C701.293 362.31 701.905 362.252 702.442 362.252H705.353V363.36H698.87V362.6V362.608Z" fill="var(--fill-0, white)" id="Vector_187"/>
</g>
<g id="Group_79" opacity="0.2">
<path d="M747.317 362.145L747.962 361.301C748.566 361.93 749.352 362.484 750.517 362.484C751.683 362.484 752.609 361.765 752.609 360.64C752.609 359.449 751.783 358.655 749.401 358.655V357.671C751.526 357.671 752.254 356.845 752.254 355.786C752.254 354.819 751.576 354.198 750.509 354.198C749.682 354.198 748.946 354.62 748.376 355.207L747.69 354.405C748.459 353.678 749.376 353.157 750.567 353.157C752.295 353.157 753.56 354.074 753.56 355.703C753.56 356.911 752.816 357.688 751.733 358.077V358.134C752.94 358.432 753.908 359.317 753.908 360.69C753.908 362.476 752.436 363.542 750.608 363.542C748.988 363.542 747.979 362.864 747.309 362.137L747.317 362.145Z" fill="var(--fill-0, white)" id="Vector_188"/>
</g>
<g id="Group_80" opacity="0.2">
<path d="M800.346 360.599H795.848V359.755L800.131 353.347H801.553V359.573H802.917V360.599H801.553V363.369H800.346V360.599ZM800.346 359.573V356.638C800.346 356.117 800.387 355.257 800.412 354.728H800.354C800.098 355.207 799.817 355.646 799.527 356.133L797.179 359.582H800.346V359.573Z" fill="var(--fill-0, white)" id="Vector_189"/>
</g>
<g id="Group_81" opacity="0.2">
<path d="M553.048 422.161C553.048 418.125 554.859 416.579 556.868 416.579C557.935 416.579 558.712 417.026 559.274 417.629L558.555 418.431C558.15 417.943 557.53 417.646 556.909 417.646C555.487 417.646 554.313 418.729 554.255 421.921C554.9 421.152 555.785 420.672 556.603 420.672C558.332 420.672 559.456 421.714 559.456 423.748C559.456 425.675 558.108 426.965 556.504 426.965C554.52 426.965 553.048 425.361 553.048 422.161ZM554.28 422.963C554.445 424.914 555.223 425.973 556.488 425.973C557.488 425.973 558.241 425.088 558.241 423.748C558.241 422.409 557.62 421.623 556.388 421.623C555.743 421.623 554.958 421.97 554.28 422.954V422.963Z" fill="var(--fill-0, white)" id="Vector_190"/>
</g>
<g id="Group_82" opacity="0.2">
<path d="M606.622 417.861H601.636V416.761H608.086V417.547C605.721 420.581 605.216 422.872 605.067 426.783H603.728C603.893 423.004 604.654 420.614 606.622 417.861Z" fill="var(--fill-0, white)" id="Vector_191"/>
</g>
<g id="Group_83" opacity="0.2">
<path d="M650.232 424.228C650.232 422.921 651.191 422.02 652.126 421.516V421.458C651.382 420.953 650.737 420.209 650.737 419.142C650.737 417.613 651.96 416.587 653.565 416.587C655.318 416.587 656.393 417.687 656.393 419.242C656.393 420.292 655.624 421.193 655.012 421.656V421.731C655.896 422.268 656.756 422.971 656.756 424.302C656.756 425.807 655.466 426.973 653.523 426.973C651.58 426.973 650.232 425.824 650.232 424.236V424.228ZM655.533 424.269C655.533 422.963 654.267 422.5 652.804 421.921C651.985 422.442 651.398 423.186 651.398 424.112C651.398 425.212 652.308 426.006 653.548 426.006C654.788 426.006 655.533 425.286 655.533 424.261V424.269ZM655.293 419.308C655.293 418.324 654.664 417.538 653.548 417.538C652.589 417.538 651.903 418.175 651.903 419.142C651.903 420.35 653.011 420.854 654.218 421.334C654.904 420.714 655.285 420.052 655.285 419.308H655.293Z" fill="var(--fill-0, white)" id="Vector_192"/>
</g>
<g id="Group_84" opacity="0.2">
<path d="M699.068 425.915L699.788 425.113C700.185 425.609 700.797 425.898 701.433 425.898C702.839 425.898 704.03 424.798 704.088 421.598C703.443 422.4 702.558 422.888 701.739 422.888C699.994 422.888 698.87 421.838 698.87 419.779C698.87 417.869 700.218 416.571 701.822 416.571C703.806 416.571 705.278 418.175 705.278 421.392C705.278 425.41 703.467 426.957 701.466 426.957C700.4 426.957 699.614 426.51 699.06 425.906L699.068 425.915ZM701.954 421.937C702.599 421.937 703.418 421.532 704.063 420.573C703.897 418.63 703.104 417.596 701.83 417.596C700.846 417.596 700.085 418.464 700.085 419.787C700.085 421.11 700.706 421.937 701.954 421.937Z" fill="var(--fill-0, white)" id="Vector_193"/>
</g>
<g id="Group_85" opacity="0.2">
<path d="M744.25 425.716H746.54V418.324H744.713V417.497C745.631 417.34 746.284 417.1 746.846 416.769H747.83V425.724H749.897V426.791H744.25V425.724V425.716Z" fill="var(--fill-0, white)" id="Vector_194"/>
<path d="M751.501 421.739C751.501 418.382 752.725 416.579 754.718 416.579C756.711 416.579 757.926 418.39 757.926 421.739C757.926 425.088 756.719 426.965 754.718 426.965C752.717 426.965 751.501 425.096 751.501 421.739ZM756.678 421.739C756.678 418.803 755.892 417.604 754.726 417.604C753.56 417.604 752.758 418.803 752.758 421.739C752.758 424.674 753.544 425.939 754.726 425.939C755.909 425.939 756.678 424.674 756.678 421.739Z" fill="var(--fill-0, white)" id="Vector_195"/>
</g>
<g id="Group_86" opacity="0.2">
<path d="M792.904 425.716H795.194V418.324H793.367V417.497C794.285 417.34 794.938 417.1 795.5 416.769H796.484V425.724H798.551V426.791H792.904V425.724V425.716Z" fill="var(--fill-0, white)" id="Vector_196"/>
<path d="M800.701 425.716H802.992V418.324H801.164V417.497C802.074 417.34 802.736 417.1 803.298 416.769H804.282V425.724H806.349V426.791H800.701V425.724V425.716Z" fill="var(--fill-0, white)" id="Vector_197"/>
</g>
</g>
</g>
</g>
<defs>
<filter color-interpolation-filters="sRGB" filterUnits="userSpaceOnUse" height="487.844" id="filter0_d_0_2927" width="870.305" x="0" y="0">
<feFlood flood-opacity="0" result="BackgroundImageFix"/>
<feColorMatrix in="SourceAlpha" result="hardAlpha" type="matrix" values="0 0 0 0 0 0 0 0 0 0 0 0 0 0 0 0 0 0 127 0"/>
<feOffset dx="4" dy="4"/>
<feGaussianBlur stdDeviation="2"/>
<feComposite in2="hardAlpha" operator="out"/>
<feColorMatrix type="matrix" values="0 0 0 0 0 0 0 0 0 0 0 0 0 0 0 0 0 0 0.25 0"/>
<feBlend in2="BackgroundImageFix" mode="normal" result="effect1_dropShadow_0_2927"/>
<feBlend in="SourceGraphic" in2="effect1_dropShadow_0_2927" mode="normal" result="shape"/>
</filter>
<clipPath id="clip0_0_2927">
<rect fill="white" height="479.844" width="414.652"/>
</clipPath>
<clipPath id="clip1_0_2927">
<rect fill="white" height="479.844" transform="translate(447.652)" width="414.652"/>
</clipPath>
</defs>
</svg>