<?xml version="1.0" encoding="utf-8"?>
<svg xmlns="http://www.w3.org/2000/svg" fill="none" height="100%" overflow="visible" preserveAspectRatio="none" style="display: block;" viewBox="0 0 6.96541 6.29258" width="100%">
<path d="M6.959 5.57489V6.29258H0V5.57489H3.03095V4.10107C1.62762 3.97291 0.647207 3.19755 0.647207 2.05694C0.647207 0.807393 1.83906 0 3.47308 0C5.1071 0 6.29898 0.807393 6.29898 2.05694C6.29898 3.19755 5.31217 3.97931 3.90884 4.10747V5.56849H6.96541L6.959 5.57489ZM3.46669 3.42183C4.6073 3.42183 5.43393 2.89638 5.43393 2.06335C5.43393 1.23032 4.6073 0.704866 3.46669 0.704866C2.32608 0.704866 1.49304 1.23032 1.49304 2.06335C1.49304 2.89638 2.31967 3.42183 3.46669 3.42183Z" fill="var(--fill-0, #5FFF8C)" id="Vector"/>
</svg>