<?xml version="1.0" encoding="utf-8"?>
<svg xmlns="http://www.w3.org/2000/svg" fill="none" height="100%" overflow="visible" preserveAspectRatio="none" style="display: block;" viewBox="0 0 4.96615 8.04833" width="100%">
<path d="M0 4.32535C0 1.19828 1.40334 0 2.96046 0C3.78708 0 4.38943 0.346021 4.82517 0.813799L4.26767 1.43537C3.95369 1.0573 3.4731 0.826608 2.9925 0.826608C1.89034 0.826608 0.980412 1.66605 0.935556 4.13951C1.43537 3.54358 2.12102 3.17191 2.7554 3.17191C4.09466 3.17191 4.96615 3.97933 4.96615 5.55568C4.96615 7.04872 3.92165 8.04833 2.67851 8.04833C1.14061 8.04833 0 6.80521 0 4.32535ZM0.954779 4.94692C1.08294 6.45919 1.68528 7.27941 2.66569 7.27941C3.44105 7.27941 4.02418 6.59376 4.02418 5.55568C4.02418 4.51759 3.54358 3.90884 2.5888 3.90884C2.08898 3.90884 1.48023 4.17796 0.954779 4.9405V4.94692Z" fill="var(--fill-0, white)" id="Vector"/>
</svg>