<?xml version="1.0" encoding="utf-8"?>
<svg xmlns="http://www.w3.org/2000/svg" fill="none" height="100%" overflow="visible" preserveAspectRatio="none" style="display: block;" viewBox="0 0 155 34.4851" width="100%">
<g id="Group 3">
<g clip-path="url(#clip0_0_1367)" id="Layer_4">
<path d="M6.05231 22.3774C9.38956 22.3774 12.1046 25.0924 12.1046 28.4297C12.1046 31.7669 9.38956 34.482 6.05231 34.482C2.71505 34.482 0 31.7323 0 28.4328C0 25.1333 2.75276 22.3805 6.05231 22.3805V22.3774ZM0.292245 17.0949H4.21713V12.5824H7.15215V17.0949H11.7747V19.8823H0.292245V17.0949ZM0.807603 1.68764H11.1902V13.8677H8.32742V4.47497H0.807603V1.68764ZM6.05231 31.5878C7.81206 31.5878 9.2073 30.1926 9.2073 28.4328C9.2073 26.673 7.81206 25.2778 6.05231 25.2778C4.29255 25.2778 2.89731 26.673 2.89731 28.4328C2.89731 30.1926 4.29255 31.5878 6.05231 31.5878Z" fill="var(--fill-0, white)" id="Vector"/>
<path d="M27.735 10.7504C26.7075 12.5856 24.7277 13.8331 22.4903 13.8331C19.1876 13.8331 16.5103 11.1558 16.5103 7.85307C16.5103 4.55039 19.1876 1.87304 22.4903 1.87304C24.7277 1.87304 26.7106 3.12059 27.735 4.99033V3.74279H32.2475V0.000159733H35.1103V23.1504H32.2475V11.8879H27.735V10.7504ZM22.4872 11.0049C24.2469 11.0049 25.6422 9.60969 25.6422 7.84993C25.6422 6.09018 24.2469 4.69494 22.4872 4.69494C20.7274 4.69494 19.3322 6.09018 19.3322 7.84993C19.3322 9.60969 20.7274 11.0049 22.4872 11.0049ZM27.955 22.1574H30.8177V31.2547H38.303V34.042H27.9581V22.1542L27.955 22.1574ZM28.3227 9.06291H32.2475V6.53012H28.3227C28.3949 6.97005 28.4703 7.40999 28.4703 7.84993C28.4703 8.28987 28.3981 8.6921 28.3227 9.05977V9.06291Z" fill="var(--fill-0, white)" id="Vector_2"/>
<path d="M62.4022 4.47497H57.5598L62.8799 11.9602L60.5702 13.6854L56.8276 8.14532L52.975 13.7231L50.7753 11.9634L56.0577 4.47811H51.2529V1.68764H62.4054V4.47497H62.4022ZM61.89 6.31015H66.2926V0.000159733H69.1553V23.1504H66.2926V9.09747H61.89V6.31015ZM62 22.1574H64.8627V31.2547H72.348V34.042H62.0031V22.1542L62 22.1574Z" fill="var(--fill-0, white)" id="Vector_3"/>
<path d="M85.3325 3.92505V6.71237H80.71L86.2124 12.177L84.2672 14.1222L79.9747 9.82966L75.7544 14.0499L73.8092 12.1048L79.2016 6.71237H74.5791V3.92505H85.3293H85.3325ZM76.4174 0.147854H83.535V2.71521H76.4174V0.147854ZM88.0853 0.000159733H90.8003V23.1504H88.0853V10.1282H84.9303V7.30315H88.0853V0.000159733ZM92.67 0.000159733H95.3851V23.1504H92.67V0.000159733Z" fill="var(--fill-0, white)" id="Vector_4"/>
<path d="M114.937 1.8699C118.24 1.8699 120.917 4.54725 120.917 7.84993C120.917 11.1526 118.24 13.83 114.937 13.83C111.635 13.83 108.957 11.1526 108.957 7.84993C108.957 4.54725 111.635 1.8699 114.937 1.8699ZM114.937 11.0049C116.697 11.0049 118.092 9.60969 118.092 7.84993C118.092 6.09017 116.697 4.69494 114.937 4.69494C113.178 4.69494 111.782 6.09017 111.782 7.84993C111.782 9.60969 113.178 11.0049 114.937 11.0049ZM120.55 22.1228H124.182V0.000159733H127.045V22.1228H130.53V29.5704H123.412V31.5501H130.602V34.3374H120.625V26.8522H127.743V24.907H120.553V22.1197L120.55 22.1228Z" fill="var(--fill-0, white)" id="Vector_5"/>
<path d="M143.7 4.47497H138.857L144.177 11.9602L141.865 13.6854L138.122 8.14532L134.269 13.7231L132.07 11.9634L137.352 4.47811H132.547V1.68764H143.7V4.47497ZM147.59 22.5628V9.09747H143.188V6.31014H147.59V0.000159733H150.453V22.6005C153.058 23.2604 155.003 25.6078 155.003 28.4328C155.003 31.7355 152.288 34.4851 148.951 34.4851C145.614 34.4851 142.899 31.7323 142.899 28.4328C142.899 25.5701 144.916 23.185 147.593 22.5628H147.59ZM148.948 31.5878C150.707 31.5878 152.103 30.1926 152.103 28.4328C152.103 26.673 150.707 25.2778 148.948 25.2778C147.188 25.2778 145.793 26.673 145.793 28.4328C145.793 30.1926 147.188 31.5878 148.948 31.5878Z" fill="var(--fill-0, white)" id="Vector_6"/>
</g>
</g>
<defs>
<clipPath id="clip0_0_1367">
<rect fill="white" height="34.4849" width="155"/>
</clipPath>
</defs>
</svg>