<?xml version="1.0" encoding="utf-8"?>
<svg xmlns="http://www.w3.org/2000/svg" fill="none" height="100%" overflow="visible" preserveAspectRatio="none" style="display: block;" viewBox="0 0 4.96614 8.05476" width="100%">
<path d="M0 4.32535C0 1.19828 1.40333 0 2.96046 0C3.78708 0 4.38943 0.346027 4.82517 0.820213L4.26766 1.44178C3.95367 1.06372 3.47308 0.833042 2.99249 0.833042C1.89033 0.833042 0.980407 1.67247 0.935551 4.14593C1.43537 3.54358 2.12101 3.17834 2.7554 3.17834C4.09466 3.17834 4.96614 3.98574 4.96614 5.56209C4.96614 7.05514 3.92164 8.05476 2.67851 8.05476C1.14061 8.05476 0 6.81163 0 4.33176V4.32535ZM0.954774 4.94692C1.08293 6.45919 1.68527 7.27941 2.66568 7.27941C3.44104 7.27941 4.02418 6.59376 4.02418 5.55568C4.02418 4.51759 3.54357 3.90884 2.58879 3.90884C2.08897 3.90884 1.48022 4.17797 0.954774 4.94692Z" fill="var(--fill-0, white)" id="Vector"/>
</svg>