<?xml version="1.0" encoding="utf-8"?>
<svg xmlns="http://www.w3.org/2000/svg" fill="none" height="100%" overflow="visible" preserveAspectRatio="none" style="display: block;" viewBox="0 0 4.96614 8.04835" width="100%">
<path d="M0.153784 7.24096L0.71128 6.61939C1.01886 7.00386 1.49304 7.22814 1.98645 7.22814C3.0758 7.22814 3.99854 6.37589 4.0434 3.89602C3.54358 4.51759 2.85793 4.89565 2.22355 4.89565C0.871478 4.89565 0 4.08185 0 2.48628C0 1.00605 1.04449 0 2.28762 0C3.82553 0 4.96614 1.24314 4.96614 3.73582C4.96614 6.85007 3.56281 8.04835 2.01209 8.04835C1.18547 8.04835 0.57671 7.70233 0.14738 7.23455L0.153784 7.24096ZM2.38375 4.15875C2.88357 4.15875 3.51794 3.84475 4.01776 3.10143C3.8896 1.59557 3.27444 0.794586 2.28762 0.794586C1.52508 0.794586 0.935551 1.46741 0.935551 2.49268C0.935551 3.51795 1.41615 4.15875 2.38375 4.15875Z" fill="var(--fill-0, white)" id="Vector"/>
</svg>