<?xml version="1.0" encoding="utf-8"?>
<svg xmlns="http://www.w3.org/2000/svg" fill="none" height="100%" overflow="visible" preserveAspectRatio="none" style="display: block;" viewBox="0 0 4.13951 6.32462" width="100%">
<path d="M0.00641418 5.46596L0.480594 4.83798C0.845846 5.20964 1.31362 5.53003 1.96082 5.53003C2.66569 5.53003 3.15271 5.14556 3.15271 4.53681C3.15271 3.86398 2.71055 3.42823 1.30081 3.42823V2.70414C2.53113 2.70414 2.94123 2.25558 2.94123 1.66605C2.94123 1.12138 2.57598 0.788172 1.98005 0.788172C1.49304 0.788172 1.08936 1.02527 0.730513 1.38411L0.217867 0.768949C0.711277 0.320394 1.288 0 2.0121 0C3.13348 0 3.92806 0.576714 3.92806 1.58276C3.92806 2.28763 3.51154 2.75541 2.84512 3.00532V3.05017C3.56921 3.22959 4.13951 3.75504 4.13951 4.58166C4.13951 5.67742 3.19756 6.32462 2.04413 6.32462C1.05731 6.32462 0.416515 5.93374 0 5.46596H0.00641418Z" fill="var(--fill-0, #FFE05C)" id="Vector"/>
</svg>