<?xml version="1.0" encoding="utf-8"?>
<svg xmlns="http://www.w3.org/2000/svg" fill="none" height="100%" overflow="visible" preserveAspectRatio="none" style="display: block;" viewBox="0 0 7.29222 11.4253" width="100%">
<path d="M0 6.08753C0 1.75577 2.03131 0 4.27408 0C5.53644 0 6.45919 0.538265 7.09998 1.2111L6.13238 2.28763C5.71586 1.79422 5.02381 1.46101 4.35098 1.46101C2.92201 1.46101 1.72373 2.53754 1.64683 5.76713C2.30685 4.95333 3.29368 4.4471 4.10748 4.4471C5.99782 4.4471 7.29222 5.56848 7.29222 7.8433C7.29222 10.1181 5.75432 11.4253 3.90884 11.4253C1.75578 11.4253 0.0064044 9.72082 0.0064044 6.09393L0 6.08753ZM1.69169 7.07435C1.87752 9.11848 2.69132 10.0733 3.8896 10.0733C4.87642 10.0733 5.6582 9.24663 5.6582 7.8433C5.6582 6.43996 4.97895 5.73509 3.78067 5.73509C3.15269 5.73509 2.36452 6.08753 1.69169 7.07435Z" fill="var(--fill-0, white)" id="Vector"/>
</svg>