<?xml version="1.0" encoding="utf-8"?>
<svg xmlns="http://www.w3.org/2000/svg" fill="none" height="100%" overflow="visible" preserveAspectRatio="none" style="display: block;" viewBox="0 0 5.15197 7.91378" width="100%">
<path d="M0 6.85007L0.486999 6.19646C0.941961 6.65142 1.51867 7.08076 2.44782 7.08076C3.37697 7.08076 4.14593 6.39511 4.14593 5.31858C4.14593 4.24205 3.49232 3.59485 2.49268 3.59485C1.96082 3.59485 1.6212 3.76786 1.16624 4.07544L0.634388 3.73582L0.884297 0H4.7739V0.852255H1.75577L1.55712 3.17192C1.91596 2.97327 2.262 2.84512 2.74259 2.84512C4.06903 2.84512 5.15197 3.60766 5.15197 5.28654C5.15197 6.96541 3.88961 7.91378 2.53754 7.91378C1.2944 7.91378 0.531858 7.38833 0 6.85648V6.85007Z" fill="var(--fill-0, white)" id="Vector"/>
</svg>