<?xml version="1.0" encoding="utf-8"?>
<svg xmlns="http://www.w3.org/2000/svg" fill="none" height="100%" overflow="visible" preserveAspectRatio="none" style="display: block;" viewBox="0 0 5.11352 8.04837" width="100%">
<path d="M0.0064044 6.96543L0.506231 6.31181C0.97401 6.79881 1.58276 7.22814 2.48628 7.22814C3.38979 7.22814 4.10748 6.67066 4.10748 5.79918C4.10748 4.87644 3.46669 4.26128 1.6212 4.26128V3.49874C3.26804 3.49874 3.83194 2.85795 3.83194 2.03773C3.83194 1.28801 3.30649 0.807405 2.47986 0.807405C1.83907 0.807405 1.26877 1.13421 0.826628 1.58917L0.294769 0.967603C0.897114 0.403705 1.60198 0 2.52472 0C3.86398 0 4.8444 0.71129 4.8444 1.97365C4.8444 2.90921 4.26768 3.51155 3.42824 3.81272V3.85758C4.3638 4.08827 5.11352 4.77391 5.11352 5.83763C5.11352 7.22174 3.97292 8.04837 2.55677 8.04837C1.30081 8.04837 0.519042 7.52291 0 6.95902L0.0064044 6.96543Z" fill="var(--fill-0, white)" id="Vector"/>
</svg>