<?xml version="1.0" encoding="utf-8"?>
<svg xmlns="http://www.w3.org/2000/svg" fill="none" height="100%" overflow="visible" preserveAspectRatio="none" style="display: block;" viewBox="0 0 7.17688 7.67029" width="100%">
<path d="M2.80667 5.30577C3.46028 5.28014 4.11389 5.22887 4.72905 5.14557L4.80594 5.79277C3.19755 6.07472 1.43538 6.08112 0.121752 6.08112L0 5.35702C0.576713 5.35702 1.24314 5.35703 1.92879 5.3378V4.13312C0.974011 3.9601 0.301173 3.26805 0.301173 2.31968C0.301173 1.23033 1.17905 0.47419 2.35811 0.47419C3.53717 0.47419 4.40865 1.23033 4.40865 2.31968C4.40865 3.26164 3.75504 3.95369 2.80026 4.1203V5.30577H2.80667ZM2.36453 3.40902C3.06299 3.40902 3.5628 2.99251 3.5628 2.31968C3.5628 1.64684 3.06299 1.22392 2.36453 1.22392C1.66606 1.22392 1.15342 1.64684 1.15342 2.31968C1.15342 2.99251 1.66606 3.40902 2.36453 3.40902ZM7.17688 3.82553H6.0555V7.67029H5.17759V0H6.0555V3.09503H7.17688V3.82553Z" fill="var(--fill-0, #AA35A5)" id="Vector"/>
</svg>