<?xml version="1.0" encoding="utf-8"?>
<svg xmlns="http://www.w3.org/2000/svg" fill="none" height="100%" overflow="visible" preserveAspectRatio="none" style="display: block;" viewBox="0 0 4.96614 8.05476" width="100%">
<path d="M0 4.32535C0 1.19829 1.40333 0 2.96046 0C3.78708 0 4.38943 0.346027 4.82517 0.820213L4.26767 1.44179C3.95369 1.06372 3.47309 0.833032 2.9925 0.833032C1.89034 0.833032 0.980412 1.67246 0.935556 4.14592C1.43537 3.54358 2.12102 3.17833 2.7554 3.17833C4.09466 3.17833 4.96614 3.98573 4.96614 5.56208C4.96614 7.05512 3.92165 8.05476 2.67851 8.05476C1.14061 8.05476 0 6.81162 0 4.33176V4.32535ZM0.961189 4.94691C1.08935 6.45918 1.69169 7.2794 2.6721 7.2794C3.44746 7.2794 4.03058 6.59376 4.03058 5.55567C4.03058 4.51759 3.54999 3.90883 2.59521 3.90883C2.09539 3.90883 1.48664 4.17796 0.961189 4.94691Z" fill="var(--fill-0, white)" id="Vector"/>
</svg>