<?xml version="1.0" encoding="utf-8"?>
<svg xmlns="http://www.w3.org/2000/svg" fill="none" height="100%" overflow="visible" preserveAspectRatio="none" style="display: block;" viewBox="0 0 7.5165 11.2075" width="100%">
<path d="M0 9.68878L0.845851 8.53536C1.49305 9.18256 2.30686 9.75286 3.49233 9.75286C4.7675 9.75286 5.7351 8.8942 5.7351 7.49086C5.7351 6.08753 4.87644 5.28013 3.58204 5.28013C2.85794 5.28013 2.42861 5.498 1.76859 5.92733L0.909924 5.37625L1.24955 0H6.98464V1.49305H2.78745L2.52472 4.39584C3.01813 4.15234 3.46028 4.01136 4.07544 4.01136C5.96578 4.01136 7.5165 5.07508 7.5165 7.4396C7.5165 9.80412 5.69024 11.2075 3.70378 11.2075C1.92238 11.2075 0.80099 10.4834 0 9.7016V9.68878Z" fill="var(--fill-0, white)" id="Vector"/>
</svg>