<?xml version="1.0" encoding="utf-8"?>
<svg xmlns="http://www.w3.org/2000/svg" fill="none" height="100%" overflow="visible" preserveAspectRatio="none" style="display: block;" viewBox="0 0 4.96614 8.04835" width="100%">
<path d="M0 4.32535C0 1.19828 1.40333 0 2.96046 0C3.78708 0 4.38943 0.346021 4.82517 0.813799L4.26768 1.43537C3.95369 1.0573 3.47309 0.826618 2.9925 0.826618C1.89034 0.826618 0.980417 1.66605 0.935561 4.13951C1.43538 3.54358 2.12102 3.17192 2.75541 3.17192C4.09467 3.17192 4.96614 3.97932 4.96614 5.55567C4.96614 7.04871 3.92165 8.04835 2.67852 8.04835C1.14062 8.04835 0 6.80521 0 4.32535ZM0.961189 4.94691C1.08935 6.45918 1.69169 7.27939 2.6721 7.27939C3.44746 7.27939 4.03058 6.59375 4.03058 5.55567C4.03058 4.51759 3.54999 3.90883 2.59521 3.90883C2.09539 3.90883 1.48664 4.17796 0.961189 4.9405V4.94691Z" fill="var(--fill-0, white)" id="Vector"/>
</svg>