<?xml version="1.0" encoding="utf-8"?>
<svg xmlns="http://www.w3.org/2000/svg" fill="none" height="100%" overflow="visible" preserveAspectRatio="none" style="display: block;" viewBox="0 0 276 61.4055" width="100%">
<g id="Group 3">
<g clip-path="url(#clip0_0_2437)" id="Layer_4">
<path d="M10.777 39.8458C16.7195 39.8458 21.554 44.6804 21.554 50.6228C21.554 56.5653 16.7195 61.3999 10.777 61.3999C4.83455 61.3999 0 56.5038 0 50.6284C0 44.7531 4.90169 39.8514 10.777 39.8514V39.8458ZM0.520385 30.4397H7.50921V22.4045H12.7354V30.4397H20.9665V35.403H0.520385V30.4397ZM1.43805 3.0048H19.9257V24.6931H14.8282V7.96805H1.43805V3.0048ZM10.777 56.2464C13.9105 56.2464 16.3949 53.7619 16.3949 50.6284C16.3949 47.4949 13.9105 45.0105 10.777 45.0105C7.64351 45.0105 5.15909 47.4949 5.15909 50.6284C5.15909 53.7619 7.64351 56.2464 10.777 56.2464Z" fill="var(--fill-0, white)" id="Vector"/>
<path d="M49.3862 19.1423C47.5565 22.4101 44.0313 24.6316 40.0473 24.6316C34.1664 24.6316 29.399 19.8642 29.399 13.9833C29.399 8.10234 34.1664 3.33494 40.0473 3.33494C44.0313 3.33494 47.5621 5.55637 49.3862 8.88572V6.66429H57.4214V0H62.519V41.2223H57.4214V21.1679H49.3862V19.1423ZM40.0417 19.5956C43.1752 19.5956 45.6596 17.1112 45.6596 13.9777C45.6596 10.8442 43.1752 8.35974 40.0417 8.35974C36.9082 8.35974 34.4238 10.8442 34.4238 13.9777C34.4238 17.1112 36.9082 19.5956 40.0417 19.5956ZM49.7779 39.4542H54.8755V55.6532H68.204V60.6165H49.7835V39.4486L49.7779 39.4542ZM50.4326 16.1375H57.4214V11.6275H50.4326C50.5613 12.4109 50.6956 13.1943 50.6956 13.9777C50.6956 14.761 50.5669 15.4773 50.4326 16.1319V16.1375Z" fill="var(--fill-0, white)" id="Vector_2"/>
<path d="M111.116 7.96805H102.494L111.967 21.2966L107.854 24.3686L101.19 14.5036L94.3296 24.4357L90.4127 21.3022L99.8188 7.97364H91.2633V3.0048H111.122V7.96805H111.116ZM110.204 11.2358H118.044V0H123.141V41.2223H118.044V16.1991H110.204V11.2358ZM110.4 39.4542H115.498V55.6532H128.826V60.6165H110.406V39.4486L110.4 39.4542Z" fill="var(--fill-0, white)" id="Vector_3"/>
<path d="M151.947 6.98883V11.9521H143.716L153.514 21.6827L150.05 25.1464L142.406 17.5028L134.892 25.0177L131.428 21.554L141.03 11.9521H132.799V6.98883H151.941H151.947ZM136.072 0.26299H148.746V4.83455H136.072V0.26299ZM156.849 0H161.683V41.2223H156.849V18.0344H151.231V13.004H156.849V0ZM165.012 0H169.847V41.2223H165.012V0Z" fill="var(--fill-0, white)" id="Vector_4"/>
<path d="M204.662 3.32935C210.543 3.32935 215.311 8.09675 215.311 13.9777C215.311 19.8586 210.543 24.626 204.662 24.626C198.782 24.626 194.014 19.8586 194.014 13.9777C194.014 8.09675 198.782 3.32935 204.662 3.32935ZM204.662 19.5956C207.796 19.5956 210.28 17.1112 210.28 13.9777C210.28 10.8442 207.796 8.35974 204.662 8.35974C201.529 8.35974 199.045 10.8442 199.045 13.9777C199.045 17.1112 201.529 19.5956 204.662 19.5956ZM214.656 39.3926H221.125V0H226.222V39.3926H232.428V52.654H219.754V56.1792H232.556V61.1425H214.79V47.8139H227.464V44.3502H214.662V39.387L214.656 39.3926Z" fill="var(--fill-0, white)" id="Vector_5"/>
<path d="M255.878 7.96805H247.256L256.729 21.2966L252.611 24.3686L245.946 14.5036L239.086 24.4357L235.169 21.3022L244.575 7.97364H236.02V3.0048H255.878V7.96805ZM262.806 40.176V16.1991H254.966V11.2358H262.806V0H267.903V40.2431C272.542 41.4182 276.006 45.5981 276.006 50.6284C276.006 56.5094 271.171 61.4055 265.229 61.4055C259.286 61.4055 254.452 56.5038 254.452 50.6284C254.452 45.5309 258.044 41.2839 262.811 40.176H262.806ZM265.223 56.2464C268.356 56.2464 270.841 53.7619 270.841 50.6284C270.841 47.4949 268.356 45.0105 265.223 45.0105C262.089 45.0105 259.605 47.4949 259.605 50.6284C259.605 53.7619 262.089 56.2464 265.223 56.2464Z" fill="var(--fill-0, white)" id="Vector_6"/>
</g>
</g>
<defs>
<clipPath id="clip0_0_2437">
<rect fill="white" height="61.4055" width="276"/>
</clipPath>
</defs>
</svg>