<?xml version="1.0" encoding="utf-8"?>
<svg xmlns="http://www.w3.org/2000/svg" fill="none" height="100%" overflow="visible" preserveAspectRatio="none" style="display: block;" viewBox="0 0 5.15196 7.91379" width="100%">
<path d="M0 6.85007L0.486989 6.19645C0.941951 6.65141 1.52507 7.08075 2.44781 7.08075C3.37055 7.08075 4.14593 6.3951 4.14593 5.31857C4.14593 4.24204 3.49231 3.59484 2.49267 3.59484C1.96081 3.59484 1.62119 3.76785 1.16623 4.07543L0.634378 3.73581L0.884297 0H4.77389V0.852245H1.75576L1.55712 3.17191C1.91596 2.97326 2.2684 2.84512 2.74259 2.84512C4.06903 2.84512 5.15196 3.60766 5.15196 5.28654C5.15196 6.96541 3.8896 7.91379 2.53753 7.91379C1.2944 7.91379 0.531858 7.38832 0 6.85647V6.85007Z" fill="var(--fill-0, white)" id="Vector"/>
</svg>