<?xml version="1.0" encoding="utf-8"?>
<svg xmlns="http://www.w3.org/2000/svg" fill="none" height="100%" overflow="visible" preserveAspectRatio="none" style="display: block;" viewBox="0 0 5.11993 8.04835" width="100%">
<path d="M0.0128186 6.96541L0.512636 6.31181C0.980414 6.79881 1.58916 7.22814 2.49268 7.22814C3.3962 7.22814 4.11389 6.67066 4.11389 5.79918C4.11389 4.87644 3.47309 4.26127 1.62761 4.26127V3.49872C3.27444 3.49872 3.83835 2.85793 3.83835 2.03772C3.83835 1.28799 3.3129 0.807405 2.48628 0.807405C1.84548 0.807405 1.27518 1.13421 0.833032 1.58917L0.301173 0.967603C0.89711 0.403705 1.60839 0 2.53113 0C3.87038 0 4.8508 0.71129 4.8508 1.97365C4.8508 2.90921 4.27409 3.51155 3.43465 3.81272V3.85756C4.3702 4.08825 5.11993 4.77391 5.11993 5.83763C5.11993 7.22174 3.97292 8.04835 2.55676 8.04835C1.30722 8.04835 0.519042 7.52291 0 6.95902L0.0128186 6.96541Z" fill="var(--fill-0, white)" id="Vector"/>
</svg>