<?xml version="1.0" encoding="utf-8"?>
<svg xmlns="http://www.w3.org/2000/svg" fill="none" height="100%" overflow="visible" preserveAspectRatio="none" style="display: block;" viewBox="0 0 5.05585 8.04196" width="100%">
<path d="M0 5.92093C0 4.90848 0.74332 4.21002 1.46741 3.81914V3.77428C0.890702 3.38339 0.390884 2.80669 0.390884 1.98007C0.390884 0.7946 1.33926 0 2.58239 0C3.94087 0 4.7739 0.852268 4.7739 2.05696C4.7739 2.87717 4.17797 3.56922 3.70378 3.92806V3.97933C4.38943 4.39585 5.05585 4.94051 5.05585 5.97219C5.05585 7.13843 4.05622 8.04196 2.55036 8.04196C1.04449 8.04196 0 7.15125 0 5.91452V5.92093ZM4.10748 5.95297C4.10748 4.94051 3.12707 4.58167 1.99286 4.13312C1.35848 4.53682 0.903515 5.11353 0.903515 5.83121C0.903515 6.68347 1.60839 7.29863 2.56958 7.29863C3.53077 7.29863 4.10748 6.74115 4.10748 5.94657V5.95297ZM3.92165 2.10821C3.92165 1.34567 3.43465 0.736927 2.56958 0.736927C1.82626 0.736927 1.2944 1.22393 1.2944 1.98007C1.2944 2.91562 2.15306 3.3065 3.08862 3.67816C3.62048 3.19757 3.91524 2.68493 3.91524 2.10821H3.92165Z" fill="var(--fill-0, white)" id="Vector"/>
</svg>