<?xml version="1.0" encoding="utf-8"?>
<svg xmlns="http://www.w3.org/2000/svg" fill="none" height="100%" overflow="visible" preserveAspectRatio="none" style="display: block;" viewBox="0 0 195.095 43.4055" width="100%">
<g id="Group 3">
<g clip-path="url(#clip0_0_1365)" id="Layer_4">
<path d="M7.61791 28.1657C11.8184 28.1657 15.2358 31.5831 15.2358 35.7836C15.2358 39.9841 11.8184 43.4015 7.61791 43.4015C3.41738 43.4015 0 39.9406 0 35.7875C0 31.6345 3.46484 28.1696 7.61791 28.1696V28.1657ZM0.367843 21.5168H5.30801V15.837H9.00226V21.5168H14.8205V25.0252H0.367843V21.5168ZM1.01651 2.124H14.0848V17.4547H10.4815V5.63235H1.01651V2.124ZM7.61791 39.7587C9.83287 39.7587 11.589 38.0025 11.589 35.7875C11.589 33.5726 9.83287 31.8164 7.61791 31.8164C5.40294 31.8164 3.64679 33.5726 3.64679 35.7875C3.64679 38.0025 5.40294 39.7587 7.61791 39.7587Z" fill="var(--fill-0, white)" id="Vector"/>
<path d="M34.9095 13.5311C33.6161 15.841 31.1243 17.4112 28.3081 17.4112C24.1511 17.4112 20.7811 14.0413 20.7811 9.88429C20.7811 5.72727 24.1511 2.35736 28.3081 2.35736C31.1243 2.35736 33.62 3.92761 34.9095 6.28102V4.71076H40.5893V0H44.1926V29.1387H40.5893V14.9629H34.9095V13.5311ZM28.3041 13.8515C30.5191 13.8515 32.2752 12.0953 32.2752 9.88034C32.2752 7.66537 30.5191 5.90922 28.3041 5.90922C26.0892 5.90922 24.333 7.66537 24.333 9.88034C24.333 12.0953 26.0892 13.8515 28.3041 13.8515ZM35.1863 27.8888H38.7896V39.3394H48.2111V42.8478H35.1903V27.8849L35.1863 27.8888ZM35.6491 11.4071H40.5893V8.21911H35.6491C35.7401 8.77285 35.835 9.3266 35.835 9.88034C35.835 10.4341 35.744 10.9404 35.6491 11.4031V11.4071Z" fill="var(--fill-0, white)" id="Vector_2"/>
<path d="M78.5443 5.63235H72.4492L79.1455 15.0539L76.2384 17.2253L71.5276 10.2521L66.6784 17.2728L63.9097 15.0578L70.5586 5.6363H64.5109V2.124H78.5483V5.63235H78.5443ZM77.8996 7.94224H83.441V0H87.0443V29.1387H83.441V11.4506H77.8996V7.94224ZM78.0381 27.8888H81.6413V39.3394H91.0629V42.8478H78.042V27.8849L78.0381 27.8888Z" fill="var(--fill-0, white)" id="Vector_3"/>
<path d="M107.406 4.94017V8.44852H101.588L108.514 15.3268L106.065 17.7751L100.662 12.3722L95.3504 17.6841L92.9021 15.2358L99.6894 8.44852H93.8711V4.94017H107.402H107.406ZM96.185 0.185899H105.144V3.41738H96.185V0.185899ZM110.871 0H114.288V29.1387H110.871V12.7479H106.9V9.19211H110.871V0ZM116.642 0H120.059V29.1387H116.642V0Z" fill="var(--fill-0, white)" id="Vector_4"/>
<path d="M144.669 2.3534C148.826 2.3534 152.196 5.72332 152.196 9.88034C152.196 14.0374 148.826 17.4073 144.669 17.4073C140.512 17.4073 137.142 14.0374 137.142 9.88034C137.142 5.72332 140.512 2.3534 144.669 2.3534ZM144.669 13.8515C146.884 13.8515 148.64 12.0953 148.64 9.88034C148.64 7.66537 146.884 5.90922 144.669 5.90922C142.454 5.90922 140.698 7.66537 140.698 9.88034C140.698 12.0953 142.454 13.8515 144.669 13.8515ZM151.733 27.8453H156.306V0H159.909V27.8453H164.295V37.2194H155.336V39.7112H164.386V43.2196H151.828V33.798H160.787V31.3497H151.737V27.8413L151.733 27.8453Z" fill="var(--fill-0, white)" id="Vector_5"/>
<path d="M180.872 5.63235H174.777L181.473 15.0539L178.562 17.2253L173.851 10.2521L169.002 17.2728L166.233 15.0578L172.882 5.6363H166.835V2.124H180.872V5.63235ZM185.769 28.399V11.4506H180.227V7.94224H185.769V0H189.372V28.4465C192.651 29.2771 195.099 32.2317 195.099 35.7875C195.099 39.9446 191.682 43.4055 187.481 43.4055C183.281 43.4055 179.863 39.9406 179.863 35.7875C179.863 32.1843 182.403 29.1822 185.772 28.399H185.769ZM187.477 39.7587C189.692 39.7587 191.448 38.0025 191.448 35.7875C191.448 33.5726 189.692 31.8164 187.477 31.8164C185.262 31.8164 183.506 33.5726 183.506 35.7875C183.506 38.0025 185.262 39.7587 187.477 39.7587Z" fill="var(--fill-0, white)" id="Vector_6"/>
</g>
</g>
<defs>
<clipPath id="clip0_0_1365">
<rect fill="white" height="43.4055" width="195.095"/>
</clipPath>
</defs>
</svg>