<?xml version="1.0" encoding="utf-8"?>
<svg xmlns="http://www.w3.org/2000/svg" fill="none" height="100%" overflow="visible" preserveAspectRatio="none" style="display: block;" viewBox="0 0 4.96614 8.04835" width="100%">
<path d="M0 4.32535C0 1.19828 1.40335 0 2.96048 0C3.7871 0 4.38943 0.346021 4.82517 0.813799L4.26768 1.43537C3.95369 1.0573 3.4731 0.826628 2.99251 0.826628C1.89035 0.826628 0.980426 1.66605 0.935571 4.13951C1.43539 3.54358 2.12103 3.17193 2.75542 3.17193C4.09467 3.17193 4.96614 3.97933 4.96614 5.55568C4.96614 7.04872 3.92166 8.04835 2.67853 8.04835C1.14063 8.04835 0 6.80521 0 4.32535ZM0.954794 4.94692C1.08295 6.45919 1.68529 7.27941 2.6657 7.27941C3.44106 7.27941 4.02418 6.59376 4.02418 5.55568C4.02418 4.51759 3.54359 3.90884 2.58881 3.90884C2.08899 3.90884 1.48024 4.17796 0.954794 4.9405V4.94692Z" fill="var(--fill-0, white)" id="Vector"/>
</svg>