<?xml version="1.0" encoding="utf-8"?>
<svg xmlns="http://www.w3.org/2000/svg" fill="none" height="100%" overflow="visible" preserveAspectRatio="none" style="display: block;" viewBox="0 0 5.05584 8.04835" width="100%">
<path d="M0 5.92093C0 4.90847 0.743305 4.21 1.4674 3.81912V3.77427C0.890687 3.38338 0.390874 2.80667 0.390874 1.98005C0.390874 0.79458 1.33926 0 2.58239 0C3.94087 0 4.77389 0.852248 4.77389 2.05694C4.77389 2.87074 4.17797 3.56922 3.70378 3.92806V3.98573C4.38943 4.40224 5.05584 4.94692 5.05584 5.97859C5.05584 7.14484 4.0562 8.04835 2.55034 8.04835C1.04448 8.04835 0 7.15765 0 5.92733V5.92093ZM4.10746 5.95296C4.10746 4.9405 3.12706 4.58166 1.99285 4.13311C1.35847 4.53681 0.9035 5.11352 0.9035 5.8312C0.9035 6.68346 1.60838 7.29862 2.56956 7.29862C3.53075 7.29862 4.10746 6.74113 4.10746 5.94655V5.95296ZM3.92165 2.1082C3.92165 1.34566 3.42823 0.736907 2.56956 0.736907C1.82624 0.736907 1.29439 1.23032 1.29439 1.98005C1.29439 2.9156 2.15305 3.30649 3.0886 3.67815C3.62046 3.19756 3.91523 2.68492 3.91523 2.1082H3.92165Z" fill="var(--fill-0, white)" id="Vector"/>
</svg>