<?xml version="1.0" encoding="utf-8"?>
<svg xmlns="http://www.w3.org/2000/svg" fill="none" height="100%" overflow="visible" preserveAspectRatio="none" style="display: block;" viewBox="0 0 11.9251 13.7578" width="100%">
<path d="M3.58203 6.16442C2.38375 6.20928 1.23032 6.20928 0.185825 6.20928L0 5.06867C2.6721 5.06867 6.02345 5.05585 8.95827 4.74827L9.0672 5.74791C7.79202 5.93374 6.47199 6.04267 5.17759 6.10034V8.14447H3.58203V6.16442ZM0.999635 2.32608C0.999635 1.0509 2.38374 0.24991 4.45991 0.24991C6.53608 0.24991 7.90097 1.0509 7.90097 2.32608C7.90097 3.60125 6.51685 4.40224 4.45991 4.40224C2.40297 4.40224 0.999635 3.60125 0.999635 2.32608ZM11.9251 12.6364V13.7578H2.06976V10.6051H9.95149V9.68237H2.03772V8.59303H11.5214V11.624H3.63329V12.6364H11.9187H11.9251ZM2.48627 2.32608C2.48627 2.97328 3.25522 3.33853 4.45351 3.33853C5.65179 3.33853 6.40791 2.96687 6.40791 2.32608C6.40791 1.68528 5.63897 1.31363 4.45351 1.31363C3.26804 1.31363 2.48627 1.68528 2.48627 2.32608ZM9.9451 6.51686V0H11.5279V8.09962H9.9451V7.49727H7.33066V6.51045H9.9451V6.51686Z" fill="var(--fill-0, white)" id="Vector"/>
</svg>