<?xml version="1.0" encoding="utf-8"?>
<svg xmlns="http://www.w3.org/2000/svg" fill="none" height="100%" overflow="visible" preserveAspectRatio="none" style="display: block;" viewBox="0 0 5.05585 8.04194" width="100%">
<path d="M0 5.92092C0 4.90847 0.743315 4.21 1.46741 3.81912V3.77427C0.890697 3.38339 0.390884 2.80667 0.390884 1.98005C0.390884 0.794585 1.33926 0 2.58239 0C3.94087 0 4.7739 0.852253 4.7739 2.05694C4.7739 2.87716 4.17797 3.56921 3.70378 3.92806V3.97932C4.38943 4.39583 5.05585 4.94051 5.05585 5.97218C5.05585 7.13843 4.05621 8.04194 2.55035 8.04194C1.04449 8.04194 0 7.15124 0 5.91452V5.92092ZM4.10748 5.95937C4.10748 4.94691 3.12707 4.58807 1.99286 4.13952C1.35848 4.54322 0.90352 5.11993 0.90352 5.83761C0.90352 6.68987 1.60839 7.30503 2.56957 7.30503C3.53076 7.30503 4.10748 6.74754 4.10748 5.95296V5.95937ZM3.92165 2.11461C3.92165 1.35207 3.43464 0.743321 2.56957 0.743321C1.82625 0.743321 1.2944 1.23032 1.2944 1.98646C1.2944 2.92201 2.15306 3.3129 3.08861 3.68456C3.62047 3.20397 3.91524 2.69132 3.91524 2.11461H3.92165Z" fill="var(--fill-0, white)" id="Vector"/>
</svg>