<?xml version="1.0" encoding="utf-8"?>
<svg xmlns="http://www.w3.org/2000/svg" fill="none" height="100%" overflow="visible" preserveAspectRatio="none" style="display: block;" viewBox="0 0 6.28618 7.4396" width="100%">
<path d="M1.96723 3.64611C0.83303 3.64611 0 2.94765 0 1.95442C0 0.961191 0.83303 0.256318 1.96723 0.256318C3.10143 0.256318 3.94728 0.967598 3.94728 1.95442C3.94728 2.94124 3.10784 3.64611 1.96723 3.64611ZM1.96723 2.94765C2.62725 2.94765 3.11425 2.55676 3.11425 1.95442C3.11425 1.35207 2.62084 0.961189 1.96723 0.961189C1.31362 0.961189 0.833032 1.35207 0.833032 1.95442C0.833032 2.55676 1.31362 2.94765 1.96723 2.94765ZM6.28618 6.76677V7.4396H1.14702V5.46596H5.20965V4.83798H1.1278V4.16515H6.0619V6.10035H1.98646V6.76677H6.28618ZM6.0619 3.82553H5.20324V0H6.0619V3.82553Z" fill="var(--fill-0, white)" id="Vector"/>
</svg>