<?xml version="1.0" encoding="utf-8"?>
<svg xmlns="http://www.w3.org/2000/svg" fill="none" height="100%" overflow="visible" preserveAspectRatio="none" style="display: block;" viewBox="0 0 6.06189 7.70873" width="100%">
<path d="M3.95368 3.27445C3.95368 4.94051 3.12065 5.9914 1.97363 5.9914C0.826614 5.9914 0 4.94692 0 3.27445C0 1.60198 0.833021 0.570305 1.97363 0.570305C3.11424 0.570305 3.95368 1.62761 3.95368 3.27445ZM0.839436 3.27445C0.839436 4.48555 1.30721 5.20323 1.97363 5.20323C2.64006 5.20323 3.11424 4.47914 3.11424 3.27445C3.11424 2.06976 2.64646 1.35848 1.97363 1.35848C1.3008 1.35848 0.839436 2.08258 0.839436 3.27445ZM6.06189 0V7.70873H5.17759V0H6.06189Z" fill="var(--fill-0, #AA35A5)" id="Vector"/>
</svg>