<?xml version="1.0" encoding="utf-8"?>
<svg xmlns="http://www.w3.org/2000/svg" fill="none" height="100%" overflow="visible" preserveAspectRatio="none" style="display: block;" viewBox="0 0 7.18969 7.67029" width="100%">
<path d="M2.81309 5.30577C3.4667 5.28014 4.1203 5.22887 4.73546 5.14557L4.81236 5.79277C3.20397 6.07472 1.44178 6.08112 0.121752 6.08112L0 5.35702C0.576713 5.35702 1.24314 5.35703 1.92879 5.3378V4.13312C0.974011 3.9601 0.301173 3.26805 0.301173 2.31968C0.301173 1.23033 1.17905 0.47419 2.35811 0.47419C3.53717 0.47419 4.40865 1.23033 4.40865 2.31968C4.40865 3.26164 3.75504 3.95369 2.80026 4.1203V5.30577H2.81309ZM2.37094 3.40902C3.0694 3.40902 3.56922 2.99251 3.56922 2.31968C3.56922 1.64684 3.0694 1.22392 2.37094 1.22392C1.67248 1.22392 1.16625 1.64684 1.16625 2.31968C1.16625 2.99251 1.67888 3.40902 2.37094 3.40902ZM7.18969 3.82553H6.0683V7.67029H5.19042V0H6.0683V3.09503H7.18969V3.82553Z" fill="var(--fill-0, #5FFF8C)" id="Vector"/>
</svg>