<?xml version="1.0" encoding="utf-8"?>
<svg xmlns="http://www.w3.org/2000/svg" fill="none" height="100%" overflow="visible" preserveAspectRatio="none" style="display: block;" viewBox="0 0 5.15198 7.91379" width="100%">
<path d="M0 6.85009L0.487008 6.19647C0.941971 6.65143 1.51868 7.08077 2.44783 7.08077C3.37698 7.08077 4.14593 6.39512 4.14593 5.31859C4.14593 4.24206 3.49231 3.59486 2.49267 3.59486C1.96081 3.59486 1.62121 3.76787 1.16625 4.07545L0.634378 3.73583L0.884297 0H4.77389V0.852265H1.75576L1.55712 3.17193C1.91596 2.97328 2.262 2.84512 2.74259 2.84512C4.06903 2.84512 5.15198 3.60768 5.15198 5.28656C5.15198 6.96543 3.8896 7.91379 2.53753 7.91379C1.2944 7.91379 0.531858 7.38832 0 6.85647V6.85009Z" fill="var(--fill-0, white)" id="Vector"/>
</svg>