<?xml version="1.0" encoding="utf-8"?>
<svg xmlns="http://www.w3.org/2000/svg" fill="none" height="100%" overflow="visible" preserveAspectRatio="none" style="display: block;" viewBox="0 0 6.95902 7.38834" width="100%">
<path d="M3.90884 3.60125V4.24846H6.07472V6.10035H1.70451V6.7155H6.299V7.38834H0.839436V5.48518H5.22245V4.89565H0.826628V4.24846H3.03735V3.60125H0V2.90279H6.95902V3.60125H3.91525H3.90884ZM0.346033 1.9416C1.75578 1.83267 2.75542 1.31363 2.93484 0.692057H0.647207V0H6.33103V0.692057H4.02418C4.2036 1.31363 5.19683 1.83267 6.61298 1.9416L6.34384 2.60803C5.01099 2.49909 3.94728 2.0185 3.48591 1.31363C3.02454 2.0185 1.98004 2.49269 0.634378 2.60803L0.352428 1.9416H0.346033Z" fill="var(--fill-0, #5FFF8C)" id="Vector"/>
</svg>