<?xml version="1.0" encoding="utf-8"?>
<svg xmlns="http://www.w3.org/2000/svg" fill="none" height="100%" overflow="visible" preserveAspectRatio="none" style="display: block;" viewBox="0 0 5.05585 8.04835" width="100%">
<path d="M0 5.92092C0 4.90846 0.743315 4.21002 1.46741 3.81914V3.77428C0.890697 3.38339 0.390884 2.80669 0.390884 1.98007C0.390884 0.7946 1.33926 0 2.58239 0C3.94087 0 4.7739 0.852268 4.7739 2.05696C4.7739 2.87076 4.17797 3.56922 3.70378 3.92806V3.98573C4.38943 4.40224 5.05585 4.94693 5.05585 5.9786C5.05585 7.14485 4.05621 8.04835 2.55035 8.04835C1.04449 8.04835 0 7.15765 0 5.92733V5.92092ZM4.10747 5.95299C4.10747 4.94053 3.12707 4.58167 1.99286 4.13312C1.35848 4.53682 0.90351 5.11355 0.90351 5.83123C0.90351 6.68349 1.60839 7.29863 2.56957 7.29863C3.53076 7.29863 4.10747 6.74115 4.10747 5.94657V5.95299ZM3.92165 2.10821C3.92165 1.34567 3.43464 0.736927 2.56957 0.736927C1.82625 0.736927 1.29439 1.23034 1.29439 1.98007C1.29439 2.91562 2.15306 3.3065 3.08861 3.67816C3.62047 3.19757 3.91524 2.68493 3.91524 2.10821H3.92165Z" fill="var(--fill-0, white)" id="Vector"/>
</svg>