<?xml version="1.0" encoding="utf-8"?>
<svg xmlns="http://www.w3.org/2000/svg" fill="none" height="100%" overflow="visible" preserveAspectRatio="none" style="display: block;" viewBox="0 0 172.139 41" width="100%">
<g id="Group 6">
<g clip-path="url(#clip0_0_2611)" id="Layer_4">
<path d="M0 19.3497H6.25434V15.2947H0.757384V5.94093H12.0767V3.49883H0.757384V0H16.124V9.44481H4.79874V11.7959H16.1713V15.2947H10.562V19.3497H16.8695V22.8486H0V19.3497Z" fill="var(--fill-0, black)" id="Vector"/>
<path d="M41.8869 3.91343H34.9343L42.6443 13.6313L39.2479 15.6133L33.8042 8.51955L28.3072 15.6588L24.9641 13.6313L32.7273 3.91343H25.7747V0.414601H41.8928V3.91343H41.8869ZM41.6206 34.9175H30.5675V37.4961H41.7271V40.9949H26.4729V31.5046H37.526V29.1535H26.3664V25.6547H31.7569V21.5087H25.5025V18.0099H42.378V21.5087H36.0704V25.6547H41.6206V34.9124V34.9175Z" fill="var(--fill-0, black)" id="Vector_2"/>
<path d="M64.7445 19.3497H70.9988V15.2947H65.5019V5.94093H76.8212V3.49883H65.5019V0H80.8685V9.44481H69.5492V11.7959H80.9217V15.2947H75.3124V19.3497H81.62V22.8486H64.7445V19.3497Z" fill="var(--fill-0, black)" id="Vector_3"/>
<path d="M106.637 3.91343H99.6848L107.395 13.6313L103.998 15.6133L98.5546 8.51955L93.0577 15.6588L89.7145 13.6313L97.4777 3.91343H90.5252V0.414601H106.643V3.91343H106.637ZM106.365 34.9175H95.3121V37.4961H106.472V40.9949H91.2174V31.5046H102.271V29.1535H91.1109V25.6547H96.5014V21.5087H90.247V18.0099H107.123V21.5087H100.815V25.6547H106.365V34.9124V34.9175Z" fill="var(--fill-0, black)" id="Vector_4"/>
<path d="M129.495 19.3497H135.749V15.2947H130.252V5.94093H141.572V3.49883H130.252V0H145.619V9.44481H134.3V11.7959H145.672V15.2947H140.063V19.3497H146.37V22.8486H129.495V19.3497Z" fill="var(--fill-0, black)" id="Vector_5"/>
<path d="M171.382 3.91343H164.429L172.139 13.6313L168.743 15.6133L163.299 8.51955L157.802 15.6588L154.459 13.6313L162.222 3.91343H155.27V0.414601H171.388V3.91343H171.382ZM171.11 34.9175H160.057V37.4961H171.216V40.9949H155.962V31.5046H167.015V29.1535H155.855V25.6547H161.246V21.5087H154.992V18.0099H171.867V21.5087H165.559V25.6547H171.11V34.9124V34.9175Z" fill="var(--fill-0, black)" id="Vector_6"/>
</g>
</g>
<defs>
<clipPath id="clip0_0_2611">
<rect fill="white" height="41" width="172.139"/>
</clipPath>
</defs>
</svg>