<?xml version="1.0" encoding="utf-8"?>
<svg xmlns="http://www.w3.org/2000/svg" fill="none" height="100%" overflow="visible" preserveAspectRatio="none" style="display: block;" viewBox="0 0 5.05586 8.04196" width="100%">
<path d="M0 5.92092C0 4.90846 0.743325 4.21 1.46742 3.81912V3.77428C0.890707 3.38339 0.390894 2.80667 0.390894 1.98005C0.390894 0.79458 1.33926 0 2.58239 0C3.94087 0 4.77391 0.852248 4.77391 2.05694C4.77391 2.87715 4.17797 3.56922 3.70378 3.92806V3.97932C4.38943 4.39583 5.05586 4.94051 5.05586 5.97219C5.05586 7.13843 4.05622 8.04196 2.55036 8.04196C1.0445 8.04196 0 7.15125 0 5.91452V5.92092ZM4.10748 5.95297C4.10748 4.94051 3.12708 4.58167 1.99287 4.13312C1.35849 4.53682 0.90352 5.11353 0.90352 5.83121C0.90352 6.68347 1.6084 7.29863 2.56958 7.29863C3.53077 7.29863 4.10748 6.74113 4.10748 5.94655V5.95297ZM3.92167 2.10821C3.92167 1.34567 3.43465 0.736907 2.56958 0.736907C1.82626 0.736907 1.29441 1.22391 1.29441 1.98005C1.29441 2.9156 2.15307 3.30648 3.08862 3.67814C3.62048 3.19755 3.91525 2.68493 3.91525 2.10821H3.92167Z" fill="var(--fill-0, white)" id="Vector"/>
</svg>