<?xml version="1.0" encoding="utf-8"?>
<svg xmlns="http://www.w3.org/2000/svg" fill="none" height="100%" overflow="visible" preserveAspectRatio="none" style="display: block;" viewBox="0 0 5.11353 8.04835" width="100%">
<path d="M0.00641418 6.96541L0.506231 6.31181C0.97401 6.79881 1.58276 7.22814 2.48628 7.22814C3.38979 7.22814 4.10748 6.67065 4.10748 5.79917C4.10748 4.87643 3.46669 4.26128 1.6212 4.26128V3.49873C3.26804 3.49873 3.83195 2.85794 3.83195 2.03772C3.83195 1.288 3.30651 0.8074 2.47988 0.8074C1.83909 0.8074 1.26877 1.1342 0.826628 1.58916L0.294779 0.967598C0.890715 0.403701 1.60198 0 2.52472 0C3.86398 0 4.84441 0.711281 4.84441 1.97364C4.84441 2.9092 4.26768 3.51154 3.42824 3.81271V3.85757C4.3638 4.08826 5.11353 4.7739 5.11353 5.83762C5.11353 7.22173 3.97293 8.04835 2.55677 8.04835C1.30723 8.04835 0.519042 7.5229 0 6.95901L0.00641418 6.96541Z" fill="var(--fill-0, white)" id="Vector"/>
</svg>