<?xml version="1.0" encoding="utf-8"?>
<svg xmlns="http://www.w3.org/2000/svg" fill="none" height="100%" overflow="visible" preserveAspectRatio="none" style="display: block;" viewBox="0 0 5.15197 7.91379" width="100%">
<path d="M0 6.85009L0.487004 6.19647C0.941966 6.65143 1.52509 7.08077 2.44783 7.08077C3.37057 7.08077 4.14593 6.39512 4.14593 5.31859C4.14593 4.24206 3.49232 3.59486 2.49268 3.59486C1.96082 3.59486 1.6212 3.76787 1.16624 4.07545L0.634388 3.73583L0.884297 0H4.77391V0.852265H1.75577L1.55713 3.17193C1.91597 2.97328 2.2684 2.84512 2.74259 2.84512C4.06903 2.84512 5.15197 3.60768 5.15197 5.28656C5.15197 6.96543 3.88961 7.91379 2.53754 7.91379C1.2944 7.91379 0.531858 7.38832 0 6.85647V6.85009Z" fill="var(--fill-0, white)" id="Vector"/>
</svg>