<?xml version="1.0" encoding="utf-8"?>
<svg xmlns="http://www.w3.org/2000/svg" fill="none" height="100%" overflow="visible" preserveAspectRatio="none" style="display: block;" viewBox="0 0 6.46559 7.45882" width="100%">
<path d="M1.9416 3.33853C1.2944 3.36416 0.666422 3.36416 0.102524 3.36416L0 2.749C1.44819 2.749 3.26804 2.74259 4.85721 2.57598L4.91488 3.11425C4.22282 3.21678 3.50513 3.27445 2.80666 3.30649V4.41506H1.9416V3.33853ZM0.544673 1.25595C0.544673 0.563897 1.29439 0.134566 2.41578 0.134566C3.53717 0.134566 4.28049 0.570305 4.28049 1.25595C4.28049 1.9416 3.53076 2.37734 2.41578 2.37734C1.3008 2.37734 0.544673 1.9416 0.544673 1.25595ZM6.46559 6.85007V7.45882H1.12779V5.75431H5.40187V5.2545H1.10857V4.66497H6.24773V6.30539H1.97364V6.85648H6.46559V6.85007ZM1.35207 1.25595C1.35207 1.60839 1.76858 1.80703 2.41578 1.80703C3.06298 1.80703 3.47309 1.60839 3.47309 1.25595C3.47309 0.903517 3.05657 0.704871 2.41578 0.704871C1.77499 0.704871 1.35207 0.903517 1.35207 1.25595ZM5.38907 3.53077V0H6.24773V4.38943H5.38907V4.06262H3.97291V3.53077H5.38907Z" fill="var(--fill-0, white)" id="Vector"/>
</svg>