<?xml version="1.0" encoding="utf-8"?>
<svg xmlns="http://www.w3.org/2000/svg" fill="none" height="100%" overflow="visible" preserveAspectRatio="none" style="display: block;" viewBox="0 0 5.11353 8.04837" width="100%">
<path d="M0 6.96543L0.499817 6.31181C0.967596 6.79881 1.57635 7.22814 2.47986 7.22814C3.38338 7.22814 4.10107 6.67066 4.10107 5.79918C4.10107 4.87003 3.46029 4.26128 1.61481 4.26128V3.49874C3.26165 3.49874 3.82553 2.85795 3.82553 2.03773C3.82553 1.28801 3.30009 0.807405 2.47347 0.807405C1.83268 0.807405 1.26236 1.13421 0.820213 1.58917L0.288364 0.967603C0.890709 0.403705 1.59557 0 2.52472 0C3.86398 0 4.84439 0.704883 4.84439 1.97365C4.84439 2.90921 4.26768 3.51155 3.42824 3.81272V3.85758C4.3638 4.08827 5.11353 4.77391 5.11353 5.83763C5.11353 7.22174 3.97293 8.04837 2.55677 8.04837C1.30082 8.04837 0.519042 7.52291 0 6.95902V6.96543Z" fill="var(--fill-0, white)" id="Vector"/>
</svg>