<?xml version="1.0" encoding="utf-8"?>
<svg xmlns="http://www.w3.org/2000/svg" fill="none" height="100%" overflow="visible" preserveAspectRatio="none" style="display: block;" viewBox="0 0 6.96541 6.29259" width="100%">
<path d="M6.959 5.57489V6.29259H0V5.57489H3.03094V4.10108C1.6276 3.97292 0.647187 3.19756 0.647187 2.05695C0.647187 0.807403 1.83906 0 3.47308 0C5.1071 0 6.29898 0.807403 6.29898 2.05695C6.29898 3.19756 5.31215 3.97932 3.90882 4.10748V5.56849H6.96541L6.959 5.57489ZM3.47308 3.42184C4.61369 3.42184 5.44032 2.89638 5.44032 2.06335C5.44032 1.23032 4.61369 0.704876 3.47308 0.704876C2.33247 0.704876 1.49945 1.23032 1.49945 2.06335C1.49945 2.89638 2.32607 3.42184 3.47308 3.42184Z" fill="var(--fill-0, #AA35A5)" id="Vector"/>
</svg>