<?xml version="1.0" encoding="utf-8"?>
<svg xmlns="http://www.w3.org/2000/svg" fill="none" height="100%" overflow="visible" preserveAspectRatio="none" style="display: block;" viewBox="0 0 5.05585 8.04835" width="100%">
<path d="M0 5.92093C0 4.90847 0.743315 4.21 1.46741 3.81912V3.77427C0.890697 3.38338 0.390884 2.80667 0.390884 1.98005C0.390884 0.79458 1.33926 0 2.58239 0C3.94087 0 4.7739 0.852248 4.7739 2.05694C4.7739 2.87074 4.17797 3.56922 3.70378 3.92806V3.98573C4.38943 4.40224 5.05585 4.94692 5.05585 5.97859C5.05585 7.14484 4.05621 8.04835 2.55035 8.04835C1.04449 8.04835 0 7.15765 0 5.92733V5.92093ZM4.10748 5.95296C4.10748 4.9405 3.12707 4.58166 1.99286 4.13311C1.35848 4.53681 0.90352 5.11352 0.90352 5.8312C0.90352 6.68346 1.60839 7.29862 2.56957 7.29862C3.53076 7.29862 4.10748 6.74113 4.10748 5.94655V5.95296ZM3.92165 2.1082C3.92165 1.34566 3.43464 0.736907 2.56957 0.736907C1.82625 0.736907 1.2944 1.23032 1.2944 1.98005C1.2944 2.9156 2.15306 3.30649 3.08861 3.67815C3.62047 3.19756 3.91524 2.68492 3.91524 2.1082H3.92165Z" fill="var(--fill-0, white)" id="Vector"/>
</svg>