<?xml version="1.0" encoding="utf-8"?>
<svg xmlns="http://www.w3.org/2000/svg" fill="none" height="100%" overflow="visible" preserveAspectRatio="none" style="display: block;" viewBox="0 0 7.0359 7.52931" width="100%">
<path d="M2.80667 5.4147C3.44747 5.38266 4.08826 5.3378 4.6906 5.24809L4.75468 5.88247C3.14629 6.16442 1.40334 6.18365 0.115348 6.18365L0 5.47878C0.576713 5.47878 1.24954 5.47878 1.948 5.45314V4.72264C1.11497 4.58167 0.576709 4.07544 0.576709 3.35775C0.576709 2.5055 1.30722 1.94801 2.38375 1.94801C3.46028 1.94801 4.18437 2.5055 4.18437 3.35775C4.18437 4.07544 3.64611 4.58807 2.81308 4.72264V5.4211L2.80667 5.4147ZM4.6073 1.56353H0.134571V0.871478H1.948V0.0320416H2.80667V0.871478H4.6073V1.56353ZM2.38375 4.08825C2.97328 4.08825 3.37698 3.80631 3.37698 3.34494C3.37698 2.88357 2.97969 2.59521 2.38375 2.59521C1.78781 2.59521 1.38411 2.87716 1.38411 3.34494C1.38411 3.81272 1.79422 4.08825 2.38375 4.08825ZM7.0359 3.85757H5.97219V7.52931H5.11352V0H5.97219V3.14629H7.0359V3.85757Z" fill="var(--fill-0, white)" id="Vector"/>
</svg>