<?xml version="1.0" encoding="utf-8"?>
<svg xmlns="http://www.w3.org/2000/svg" fill="none" height="100%" overflow="visible" preserveAspectRatio="none" style="display: block;" viewBox="0 0 6.82443 7.65106" width="100%">
<path d="M3.4795 2.72978C3.33212 3.62048 2.64647 4.21641 1.74296 4.21641C0.730504 4.21641 0 3.46029 0 2.37094C0 1.28159 0.730504 0.51905 1.74296 0.51905C2.64647 0.51905 3.32572 1.11498 3.4731 2.00568H4.14593V0.160198H4.95973V4.4407H4.14593V2.72978H3.4795ZM1.74296 3.48591C2.31326 3.48591 2.71056 3.04377 2.71056 2.37094C2.71056 1.69811 2.31326 1.24955 1.74296 1.24955C1.17265 1.24955 0.781767 1.6917 0.781767 2.37094C0.781767 3.05018 1.19187 3.48591 1.74296 3.48591ZM4.29971 5.011C4.29971 5.92733 5.3442 6.76037 6.82443 6.97824L6.50404 7.65106C5.30576 7.47164 4.34457 6.90775 3.86398 6.12598C3.38979 6.90775 2.41578 7.47164 1.2175 7.65106L0.884297 6.97824C2.37093 6.76678 3.42183 5.93374 3.42183 5.011V4.78031H4.29971V5.011ZM6.4592 5.16479H5.62616V0H6.4592V5.16479Z" fill="var(--fill-0, #5FFF8C)" id="Vector"/>
</svg>