<?xml version="1.0" encoding="utf-8"?>
<svg xmlns="http://www.w3.org/2000/svg" fill="none" height="100%" overflow="visible" preserveAspectRatio="none" style="display: block;" viewBox="0 0 5.11992 8.04835" width="100%">
<path d="M0.0128088 6.96541L0.512626 6.31181C0.980405 6.79881 1.58915 7.22814 2.49267 7.22814C3.39619 7.22814 4.11388 6.67066 4.11388 5.79918C4.11388 4.87644 3.47308 4.26127 1.6276 4.26127V3.49872C3.27443 3.49872 3.83834 2.85793 3.83834 2.03772C3.83834 1.28799 3.3129 0.807405 2.48628 0.807405C1.84549 0.807405 1.27517 1.13421 0.833022 1.58917L0.301173 0.967603C0.89711 0.403705 1.60838 0 2.53112 0C3.87037 0 4.85078 0.71129 4.85078 1.97365C4.85078 2.90921 4.27408 3.51155 3.43464 3.81272V3.85756C4.37019 4.08825 5.11992 4.77391 5.11992 5.83763C5.11992 7.22174 3.97291 8.04835 2.55676 8.04835C1.30721 8.04835 0.519042 7.52291 0 6.95902L0.0128088 6.96541Z" fill="var(--fill-0, white)" id="Vector"/>
</svg>