<?xml version="1.0" encoding="utf-8"?>
<svg xmlns="http://www.w3.org/2000/svg" fill="none" height="100%" overflow="visible" preserveAspectRatio="none" style="display: block;" viewBox="0 0 5.11352 8.04835" width="100%">
<path d="M0.0064044 6.96541L0.506222 6.31181C0.974 6.79881 1.58275 7.22814 2.48627 7.22814C3.38978 7.22814 4.10747 6.67065 4.10747 5.79917C4.10747 4.87643 3.46669 4.26128 1.6212 4.26128V3.49873C3.26804 3.49873 3.83194 2.85794 3.83194 2.03772C3.83194 1.288 3.30649 0.8074 2.47986 0.8074C1.83907 0.8074 1.26876 1.1342 0.826618 1.58916L0.294759 0.967598C0.890696 0.403701 1.60197 0 2.52471 0C3.86397 0 4.84439 0.711281 4.84439 1.97364C4.84439 2.9092 4.26767 3.51154 3.42823 3.81271V3.85757C4.36379 4.08826 5.11352 4.7739 5.11352 5.83762C5.11352 7.22173 3.97291 8.04835 2.55676 8.04835C1.3008 8.04835 0.519042 7.5229 0 6.95901L0.0064044 6.96541Z" fill="var(--fill-0, white)" id="Vector"/>
</svg>