<?xml version="1.0" encoding="utf-8"?>
<svg xmlns="http://www.w3.org/2000/svg" fill="none" height="100%" overflow="visible" preserveAspectRatio="none" style="display: block;" viewBox="0 0 5.11353 8.04835" width="100%">
<path d="M0 6.96541L0.499817 6.3118C0.967596 6.7988 1.57635 7.22814 2.47986 7.22814C3.38338 7.22814 4.10107 6.67064 4.10107 5.79916C4.10107 4.87001 3.46029 4.26127 1.61481 4.26127V3.49872C3.26165 3.49872 3.82553 2.85793 3.82553 2.03772C3.82553 1.28799 3.30009 0.807395 2.47347 0.807395C1.83268 0.807395 1.26236 1.1342 0.820213 1.58916L0.288364 0.967593C0.890709 0.403696 1.59557 0 2.52472 0C3.86398 0 4.84439 0.704863 4.84439 1.97363C4.84439 2.90919 4.26768 3.51154 3.42824 3.81271V3.85756C4.3638 4.08825 5.11353 4.77389 5.11353 5.83761C5.11353 7.22172 3.97293 8.04835 2.55677 8.04835C1.30082 8.04835 0.519042 7.52289 0 6.959V6.96541Z" fill="var(--fill-0, white)" id="Vector"/>
</svg>