<?xml version="1.0" encoding="utf-8"?>
<svg xmlns="http://www.w3.org/2000/svg" fill="none" height="100%" overflow="visible" preserveAspectRatio="none" style="display: block;" viewBox="0 0 5.11352 8.04835" width="100%">
<path d="M0.00640929 6.96541L0.506227 6.3118C0.974005 6.7988 1.58276 7.22814 2.48627 7.22814C3.38979 7.22814 4.10748 6.67064 4.10748 5.79916C4.10748 4.87001 3.46669 4.26127 1.6212 4.26127V3.49872C3.26804 3.49872 3.83194 2.85793 3.83194 2.03772C3.83194 1.28799 3.30649 0.807395 2.47987 0.807395C1.83908 0.807395 1.26877 1.1342 0.826623 1.58916L0.294764 0.967593C0.890701 0.403696 1.60198 0 2.52472 0C3.86398 0 4.84439 0.704863 4.84439 1.97363C4.84439 2.90919 4.26768 3.51154 3.42824 3.81271V3.85756C4.36379 4.08825 5.11352 4.77389 5.11352 5.83761C5.11352 7.22172 3.97291 8.04835 2.55676 8.04835C1.30721 8.04835 0.519042 7.52289 0 6.959L0.00640929 6.96541Z" fill="var(--fill-0, white)" id="Vector"/>
</svg>