<?xml version="1.0" encoding="utf-8"?>
<svg xmlns="http://www.w3.org/2000/svg" fill="none" height="100%" overflow="visible" preserveAspectRatio="none" style="display: block;" viewBox="0 0 6.57454 7.68951" width="100%">
<path d="M3.71659 1.96082H0V1.25596H1.42256V0.211463H2.28763V1.25596H3.71659V1.96082ZM3.4731 4.17797C3.4731 5.24168 2.79386 5.97219 1.84548 5.97219C0.897112 5.97219 0.230695 5.24168 0.230695 4.17797C0.230695 3.11425 0.90352 2.39015 1.84548 2.39015C2.78745 2.39015 3.4731 3.12066 3.4731 4.17797ZM2.69773 4.17797C2.69773 3.54999 2.35171 3.12066 1.84548 3.12066C1.33926 3.12066 0.99322 3.54358 0.99322 4.17797C0.99322 4.81235 1.33926 5.24169 1.84548 5.24169C2.35171 5.24169 2.69773 4.82517 2.69773 4.17797ZM4.27409 0.153794H5.1007V7.31785H4.27409V3.63329H3.51794V2.9092H4.27409V0.153794ZM6.57454 0V7.68951H5.74149V0H6.57454Z" fill="var(--fill-0, #AA35A5)" id="Vector"/>
</svg>