<?xml version="1.0" encoding="utf-8"?>
<svg xmlns="http://www.w3.org/2000/svg" fill="none" height="100%" overflow="visible" preserveAspectRatio="none" style="display: block;" viewBox="0 0 5.15198 7.91378" width="100%">
<path d="M0 6.85007L0.487008 6.19647C0.941971 6.65143 1.52509 7.08075 2.44783 7.08075C3.37057 7.08075 4.14593 6.3951 4.14593 5.31857C4.14593 4.24204 3.49231 3.59484 2.49267 3.59484C1.96081 3.59484 1.62121 3.76785 1.16625 4.07543L0.634378 3.73582L0.884297 0H4.77389V0.852255H1.75576L1.55712 3.17193C1.91596 2.97328 2.2684 2.84511 2.74259 2.84511C4.06903 2.84511 5.15198 3.60766 5.15198 5.28653C5.15198 6.96541 3.8896 7.91378 2.53753 7.91378C1.2944 7.91378 0.531858 7.38834 0 6.85648V6.85007Z" fill="var(--fill-0, white)" id="Vector"/>
</svg>