<?xml version="1.0" encoding="utf-8"?>
<svg xmlns="http://www.w3.org/2000/svg" fill="none" height="100%" overflow="visible" preserveAspectRatio="none" style="display: block;" viewBox="0 0 6.82443 7.65106" width="100%">
<path d="M3.4795 2.73619C3.33212 3.62689 2.64647 4.22282 1.74296 4.22282C0.730504 4.22282 0 3.46669 0 2.37734C0 1.288 0.730504 0.525454 1.74296 0.525454C2.64647 0.525454 3.3257 1.12139 3.47308 2.01209H4.14593V0.166602H4.95973V4.4471H4.14593V2.73619H3.4795ZM1.74296 3.49232C2.31326 3.49232 2.71054 3.05018 2.71054 2.37734C2.71054 1.70451 2.31326 1.25596 1.74296 1.25596C1.17265 1.25596 0.781767 1.6981 0.781767 2.37734C0.781767 3.05658 1.19187 3.49232 1.74296 3.49232ZM4.29971 5.011C4.29971 5.92733 5.3442 6.76036 6.82443 6.97823L6.50404 7.65106C5.30576 7.47164 4.34457 6.90774 3.86398 6.12597C3.38979 6.90774 2.41578 7.47164 1.2175 7.65106L0.884297 6.97823C2.37093 6.76677 3.42183 5.93374 3.42183 5.011V4.78031H4.29971V5.011ZM6.45918 5.16478H5.62616V0H6.45918V5.16478Z" fill="var(--fill-0, #FFE05C)" id="Vector"/>
</svg>