<?xml version="1.0" encoding="utf-8"?>
<svg xmlns="http://www.w3.org/2000/svg" fill="none" height="100%" overflow="visible" preserveAspectRatio="none" style="display: block;" viewBox="0 0 287.485 74" width="100%">
<g id="Frame 6">
<g clip-path="url(#clip0_0_2602)" id="Layer_4">
<path d="M0 34.9239H10.4452V27.6051H1.26489V10.7227H20.169V6.31496H1.26489V0H26.9283V17.0467H8.01425V21.2902H27.0073V27.6051H17.6393V34.9239H28.1734V41.2389H0V34.9239Z" fill="var(--fill-0, black)" id="Vector"/>
<path d="M69.9543 7.06326H58.343L71.2191 24.6028L65.5469 28.18L56.4555 15.3767L47.2752 28.2622L41.6919 24.6028L54.657 7.06326H43.0457V0.748304H69.9641V7.06326H69.9543ZM69.5096 63.0218H51.0501V67.6759H69.6874V73.9909H44.2118V56.862H62.6713V52.6186H44.0339V46.3036H53.0364V38.8206H42.5912V32.5056H70.7745V38.8206H60.2403V46.3036H69.5096V63.0127V63.0218Z" fill="var(--fill-0, black)" id="Vector_2"/>
<path d="M108.128 34.9239H118.573V27.6051H109.393V10.7227H128.297V6.31496H109.393V0H135.056V17.0467H116.152V21.2902H135.145V27.6051H125.777V34.9239H136.311V41.2389H108.128V34.9239Z" fill="var(--fill-0, black)" id="Vector_3"/>
<path d="M178.092 7.06326H166.481L179.357 24.6028L173.685 28.18L164.594 15.3767L155.413 28.2622L149.83 24.6028L162.795 7.06326H151.184V0.748304H178.102V7.06326H178.092ZM177.638 63.0218H159.178V67.6759H177.816V73.9909H152.34V56.862H170.799V52.6186H152.162V46.3036H161.165V38.8206H150.719V32.5056H178.903V38.8206H168.369V46.3036H177.638V63.0127V63.0218Z" fill="var(--fill-0, black)" id="Vector_4"/>
<path d="M216.266 34.9239H226.711V27.6051H217.531V10.7227H236.435V6.31496H217.531V0H243.195V17.0467H224.29V21.2902H243.283V27.6051H233.915V34.9239H244.45V41.2389H216.266V34.9239Z" fill="var(--fill-0, black)" id="Vector_5"/>
<path d="M286.221 7.06326H274.609L287.485 24.6028L281.813 28.18L272.722 15.3767L263.541 28.2622L257.958 24.6028L270.923 7.06326H259.312V0.748304H286.23V7.06326H286.221ZM285.766 63.0218H267.306V67.6759H285.944V73.9909H260.468V56.862H278.928V52.6186H260.29V46.3036H269.293V38.8206H258.848V32.5056H287.031V38.8206H276.497V46.3036H285.766V63.0127V63.0218Z" fill="var(--fill-0, black)" id="Vector_6"/>
</g>
</g>
<defs>
<clipPath id="clip0_0_2602">
<rect fill="white" height="74" width="287.485"/>
</clipPath>
</defs>
</svg>