<?xml version="1.0" encoding="utf-8"?>
<svg xmlns="http://www.w3.org/2000/svg" fill="none" height="100%" overflow="visible" preserveAspectRatio="none" style="display: block;" viewBox="0 0 269.586 68.2904" width="100%">
<g id="Group 6">
<g clip-path="url(#clip0_0_2620)" id="Layer_4">
<path d="M0 32.2293H9.79488V25.4752H1.18613V9.89533H18.9133V5.82772H1.18613V0H25.2517V15.7315H7.51528V19.6475H25.3258V25.4752H16.541V32.2293H26.4193V38.057H0V32.2293Z" fill="var(--fill-0, black)" id="Vector"/>
<path d="M65.5988 6.51829H54.7105L66.785 22.7045L61.4659 26.0058L52.9405 14.1903L44.3318 26.0816L39.0961 22.7045L51.254 6.51829H40.3657V0.690568H65.6081V6.51829H65.5988ZM65.1818 58.1593H47.8717V62.4543H65.3486V68.282H41.4591V52.4747H58.7693V48.5587H41.2923V42.731H49.7343V35.8253H39.9394V29.9976H66.368V35.8253H56.4897V42.731H65.1818V58.1509V58.1593Z" fill="var(--fill-0, black)" id="Vector_2"/>
<path d="M101.396 32.2293H111.191V25.4752H102.582V9.89533H120.309V5.82772H102.582V0H126.648V15.7315H108.921V19.6475H126.731V25.4752H117.946V32.2293H127.825V38.057H101.396V32.2293Z" fill="var(--fill-0, black)" id="Vector_3"/>
<path d="M167.004 6.51829H156.116L168.19 22.7045L162.871 26.0058L154.346 14.1903L145.737 26.0816L140.501 22.7045L152.659 6.51829H141.771V0.690568H167.013V6.51829H167.004ZM166.578 58.1593H149.268V62.4543H166.745V68.282H142.855V52.4747H160.165V48.5587H142.688V42.731H151.13V35.8253H141.335V29.9976H167.764V35.8253H157.886V42.731H166.578V58.1509V58.1593Z" fill="var(--fill-0, black)" id="Vector_4"/>
<path d="M202.801 32.2293H212.596V25.4752H203.987V9.89533H221.715V5.82772H203.987V0H228.053V15.7315H210.326V19.6475H228.136V25.4752H219.352V32.2293H229.23V38.057H202.801V32.2293Z" fill="var(--fill-0, black)" id="Vector_5"/>
<path d="M268.4 6.51829H257.512L269.586 22.7045L264.267 26.0058L255.742 14.1903L247.133 26.0816L241.897 22.7045L254.055 6.51829H243.167V0.690568H268.409V6.51829H268.4ZM267.974 58.1593H250.664V62.4543H268.141V68.282H244.251V52.4747H261.561V48.5587H244.084V42.731H252.526V35.8253H242.731V29.9976H269.16V35.8253H259.282V42.731H267.974V58.1509V58.1593Z" fill="var(--fill-0, black)" id="Vector_6"/>
</g>
</g>
<defs>
<clipPath id="clip0_0_2620">
<rect fill="white" height="68.2904" width="269.586"/>
</clipPath>
</defs>
</svg>