<?xml version="1.0" encoding="utf-8"?>
<svg xmlns="http://www.w3.org/2000/svg" fill="none" height="100%" overflow="visible" preserveAspectRatio="none" style="display: block;" viewBox="0 0 6.82445 7.65106" width="100%">
<path d="M3.47952 2.73619C3.33214 3.62689 2.64647 4.22282 1.74296 4.22282C0.730504 4.22282 0 3.46669 0 2.37734C0 1.288 0.730504 0.525454 1.74296 0.525454C2.64647 0.525454 3.32571 1.12139 3.46669 2.01209H4.13953V0.166602H4.95333V4.4471H4.13953V2.73619H3.4731H3.47952ZM1.74296 3.49232C2.31326 3.49232 2.71056 3.05018 2.71056 2.37734C2.71056 1.70451 2.31326 1.25596 1.74296 1.25596C1.17265 1.25596 0.781767 1.6981 0.781767 2.37734C0.781767 3.05658 1.19187 3.49232 1.74296 3.49232ZM4.29973 5.011C4.29973 5.92733 5.34422 6.76036 6.82445 6.97823L6.50406 7.65106C5.30578 7.47164 4.34457 6.90774 3.86398 6.12597C3.38979 6.90774 2.4158 7.47164 1.21752 7.65106L0.884297 6.97823C2.37093 6.76677 3.42183 5.93374 3.42183 5.011V4.78031H4.29973V5.011ZM6.4592 5.16478H5.62616V0H6.4592V5.16478Z" fill="var(--fill-0, #AA35A5)" id="Vector"/>
</svg>