<?xml version="1.0" encoding="utf-8"?>
<svg xmlns="http://www.w3.org/2000/svg" fill="none" height="100%" overflow="visible" preserveAspectRatio="none" style="display: block;" viewBox="0 0 4.96614 8.04837" width="100%">
<path d="M0.153784 7.24097L0.71129 6.61938C1.01887 7.00385 1.49305 7.22814 1.98646 7.22814C3.07581 7.22814 3.99854 6.37588 4.0434 3.89601C3.54358 4.51758 2.85793 4.89566 2.22355 4.89566C0.871478 4.89566 0 4.08185 0 2.48628C0 1.00605 1.0445 0 2.28763 0C3.82554 0 4.96614 1.24313 4.96614 3.73581C4.96614 6.85006 3.56282 8.04837 2.0121 8.04837C1.18548 8.04837 0.57672 7.70233 0.147389 7.23455L0.153784 7.24097ZM2.39016 4.15874C2.88998 4.15874 3.52436 3.84475 4.02418 3.10143C3.89602 1.59557 3.28087 0.794576 2.29405 0.794576C1.5315 0.794576 0.941966 1.46742 0.941966 2.49269C0.941966 3.51796 1.42257 4.15874 2.39016 4.15874Z" fill="var(--fill-0, white)" id="Vector"/>
</svg>