<?xml version="1.0" encoding="utf-8"?>
<svg xmlns="http://www.w3.org/2000/svg" fill="none" height="100%" overflow="visible" preserveAspectRatio="none" style="display: block;" viewBox="0 0 7.08075 7.68951" width="100%">
<path d="M3.94728 3.27445C3.94728 4.9341 3.12065 5.97859 1.97363 5.97859C0.826614 5.97859 0 4.9341 0 3.27445C0 1.6148 0.826614 0.5639 1.97363 0.5639C3.12065 0.5639 3.94728 1.62121 3.94728 3.27445ZM3.10783 3.27445C3.10783 2.07617 2.64006 1.35207 1.97363 1.35207C1.30721 1.35207 0.839436 2.07617 0.839436 3.27445C0.839436 4.47273 1.3008 5.19683 1.97363 5.19683C2.64646 5.19683 3.10783 4.47273 3.10783 3.27445ZM7.08075 3.72301H5.88247V7.68951H5.00459V0H5.88247V3.00532H7.08075V3.72942V3.72301Z" fill="var(--fill-0, #5FFF8C)" id="Vector"/>
</svg>