<?xml version="1.0" encoding="utf-8"?>
<svg xmlns="http://www.w3.org/2000/svg" fill="none" height="100%" overflow="visible" preserveAspectRatio="none" style="display: block;" viewBox="0 0 5.11351 8.04835" width="100%">
<path d="M0.00639463 6.96541L0.506212 6.31181C0.97399 6.79881 1.58274 7.22814 2.48626 7.22814C3.38978 7.22814 4.10746 6.67066 4.10746 5.79918C4.10746 4.87644 3.46669 4.26127 1.6212 4.26127V3.49872C3.26804 3.49872 3.83193 2.85793 3.83193 2.03772C3.83193 1.28799 3.30649 0.807405 2.47986 0.807405C1.83907 0.807405 1.26875 1.13421 0.826608 1.58917L0.294759 0.967603C0.890696 0.403705 1.60196 0 2.5247 0C3.86396 0 4.84439 0.71129 4.84439 1.97365C4.84439 2.90921 4.26766 3.51155 3.42822 3.81272V3.85756C4.36378 4.08825 5.11351 4.77391 5.11351 5.83763C5.11351 7.22174 3.97291 8.04835 2.55676 8.04835C1.3008 8.04835 0.519042 7.52291 0 6.95902L0.00639463 6.96541Z" fill="var(--fill-0, white)" id="Vector"/>
</svg>